<svg width="230" height="69" viewBox="0 0 230 69" fill="none" xmlns="http://www.w3.org/2000/svg">
<rect x="2" y="2" width="226" height="65" stroke="#CC3E16" stroke-width="4"/>
<path d="M27.5176 30.1318C27.2832 30.1318 27.0283 30.1113 26.7529 30.0703C26.4834 30.0352 26.2109 29.9561 25.9355 29.833C25.666 29.71 25.4053 29.5371 25.1533 29.3145C24.9072 29.0859 24.6875 28.7871 24.4941 28.418C24.3066 28.0488 24.1543 27.5947 24.0371 27.0557C23.9258 26.5107 23.8701 25.8633 23.8701 25.1133V19.7959C23.8701 19.04 23.9287 18.3955 24.0459 17.8623C24.1631 17.3232 24.3184 16.8721 24.5117 16.5088C24.7051 16.1396 24.9277 15.8467 25.1797 15.6299C25.4316 15.4131 25.6924 15.249 25.9619 15.1377C26.2314 15.0205 26.498 14.9443 26.7617 14.9092C27.0312 14.874 27.2803 14.8564 27.5088 14.8564C28.1064 14.8564 28.6045 14.9414 29.0029 15.1113C29.4072 15.2754 29.7295 15.5039 29.9697 15.7969C30.2158 16.084 30.3887 16.4209 30.4883 16.8076C30.5938 17.1943 30.6465 17.6045 30.6465 18.0381C30.6465 18.3604 30.6289 18.6592 30.5938 18.9346C30.5645 19.2041 30.5176 19.5029 30.4531 19.8311H28.6074V19.0664C28.6074 18.2402 28.5166 17.6221 28.335 17.2119C28.1533 16.8018 27.8867 16.5967 27.5352 16.5967C27.3242 16.5967 27.1396 16.6377 26.9814 16.7197C26.8232 16.8018 26.6914 16.9424 26.5859 17.1416C26.4805 17.335 26.3984 17.5928 26.3398 17.915C26.2871 18.2373 26.2607 18.6387 26.2607 19.1191V25.9746C26.2607 26.4434 26.2812 26.833 26.3223 27.1436C26.3691 27.4541 26.4424 27.7031 26.542 27.8906C26.6416 28.0781 26.7705 28.2129 26.9287 28.2949C27.0928 28.3711 27.2891 28.4092 27.5176 28.4092C27.6641 28.4092 27.8047 28.377 27.9395 28.3125C28.0742 28.2422 28.1914 28.1367 28.291 27.9961C28.3965 27.8496 28.4785 27.668 28.5371 27.4512C28.6016 27.2285 28.6338 26.9678 28.6338 26.6689V25.2012H30.7168V26.5898C30.7168 27.7969 30.4414 28.6875 29.8906 29.2617C29.3398 29.8359 28.5488 30.126 27.5176 30.1318ZM32.3867 17.8975H34.6104V26.9941C34.6104 27.5273 34.6924 27.8994 34.8564 28.1104C35.0205 28.3154 35.2607 28.418 35.5771 28.418C35.7998 28.418 36.0166 28.3564 36.2275 28.2334C36.4385 28.1104 36.6289 27.9346 36.7988 27.7061V17.8975H39.0225V30H37.3262L37.1064 28.708H37.0977C36.9219 28.9834 36.7344 29.2148 36.5352 29.4023C36.3418 29.584 36.1367 29.7305 35.9199 29.8418C35.709 29.9473 35.4922 30.0234 35.2695 30.0703C35.0469 30.1172 34.8242 30.1406 34.6016 30.1406C33.8926 30.1406 33.3447 29.8945 32.958 29.4023C32.5771 28.9102 32.3867 28.166 32.3867 27.1699V17.8975ZM40.877 27.4688C40.877 27.2051 40.9004 26.9502 40.9473 26.7041C41 26.458 41.0498 26.2617 41.0967 26.1152H42.6611C42.6611 26.5547 42.6816 26.9238 42.7227 27.2227C42.7695 27.5156 42.8428 27.75 42.9424 27.9258C43.042 28.1016 43.1738 28.2275 43.3379 28.3037C43.5078 28.3799 43.7129 28.418 43.9531 28.418C44.2871 28.418 44.5303 28.3242 44.6826 28.1367C44.835 27.9492 44.9111 27.7324 44.9111 27.4863C44.9111 27.3574 44.8936 27.2344 44.8584 27.1172C44.8232 27 44.7734 26.8828 44.709 26.7656C44.6445 26.6426 44.5654 26.5195 44.4717 26.3965C44.3779 26.2734 44.2725 26.1387 44.1553 25.9922L42.5293 24.0762C42.3184 23.8125 42.1133 23.5459 41.9141 23.2764C41.7207 23.001 41.5479 22.7197 41.3955 22.4326C41.249 22.1396 41.1289 21.835 41.0352 21.5186C40.9473 21.2021 40.9033 20.8682 40.9033 20.5166C40.9033 20.0479 40.9824 19.6406 41.1406 19.2949C41.3047 18.9492 41.5215 18.6621 41.791 18.4336C42.0664 18.2051 42.3828 18.0352 42.7402 17.9238C43.0977 17.8125 43.4756 17.7568 43.874 17.7568C44.3135 17.7568 44.709 17.8096 45.0605 17.915C45.4121 18.0205 45.7139 18.1787 45.9658 18.3896C46.2178 18.6006 46.4111 18.8643 46.5459 19.1807C46.6807 19.4912 46.748 19.8545 46.748 20.2705C46.748 20.5518 46.7217 20.8242 46.6689 21.0879C46.6221 21.3516 46.5752 21.5771 46.5283 21.7646H44.9902C44.9844 21.3662 44.9668 21.0176 44.9375 20.7188C44.9082 20.4199 44.8525 20.1738 44.7705 19.9805C44.6943 19.7812 44.5859 19.6318 44.4453 19.5322C44.3105 19.4326 44.1318 19.3828 43.9092 19.3828C43.7158 19.3828 43.5547 19.415 43.4258 19.4795C43.2969 19.5381 43.1914 19.6172 43.1094 19.7168C43.0332 19.8164 42.9775 19.9277 42.9424 20.0508C42.9131 20.1738 42.8984 20.2998 42.8984 20.4287C42.8984 20.71 42.9658 20.9707 43.1006 21.2109C43.2354 21.4512 43.4141 21.7119 43.6367 21.9932L45.4121 24.0762C45.541 24.2344 45.6904 24.4277 45.8604 24.6562C46.0303 24.8789 46.1914 25.1279 46.3438 25.4033C46.4961 25.6729 46.625 25.9688 46.7305 26.291C46.8359 26.6133 46.8887 26.9502 46.8887 27.3018C46.8887 27.7295 46.8213 28.1191 46.6865 28.4707C46.5518 28.8164 46.3525 29.1123 46.0889 29.3584C45.8252 29.6045 45.5 29.7949 45.1133 29.9297C44.7324 30.0645 44.2959 30.1318 43.8037 30.1318C43.3994 30.1318 43.0186 30.0879 42.6611 30C42.3037 29.9062 41.9932 29.7568 41.7295 29.5518C41.4658 29.3408 41.2578 29.0654 41.1055 28.7256C40.9531 28.3857 40.877 27.9668 40.877 27.4688ZM48.9014 19.4795H47.9609V17.8975H49.0947L49.543 14.7598H51.125V17.8975H53.0586V19.4795H51.125V27.1787C51.125 27.4424 51.1484 27.6562 51.1953 27.8203C51.248 27.9785 51.3184 28.1045 51.4062 28.1982C51.4941 28.2861 51.5967 28.3447 51.7139 28.374C51.8311 28.4033 51.9541 28.418 52.083 28.418C52.2998 28.418 52.4902 28.3916 52.6543 28.3389C52.8242 28.2861 52.9854 28.2129 53.1377 28.1191V29.3496C53.0088 29.5078 52.8682 29.6367 52.7158 29.7363C52.5693 29.8359 52.417 29.918 52.2588 29.9824C52.1006 30.041 51.9395 30.082 51.7754 30.1055C51.6113 30.1289 51.4502 30.1406 51.292 30.1406C50.9814 30.1406 50.6826 30.0996 50.3955 30.0176C50.1084 29.9355 49.8535 29.7803 49.6309 29.5518C49.4082 29.3174 49.2295 28.9951 49.0947 28.585C48.9658 28.1748 48.9014 27.6416 48.9014 26.9854V19.4795ZM57.6377 30.1318C57.3799 30.1318 57.1162 30.1113 56.8467 30.0703C56.583 30.0293 56.3252 29.9443 56.0732 29.8154C55.8271 29.6865 55.5928 29.502 55.3701 29.2617C55.1533 29.0215 54.9629 28.7051 54.7988 28.3125C54.6348 27.9199 54.5059 27.4365 54.4121 26.8623C54.3184 26.2881 54.2715 25.6025 54.2715 24.8057V22.9072C54.2715 22.1221 54.3184 21.4512 54.4121 20.8945C54.5117 20.332 54.6436 19.8604 54.8076 19.4795C54.9775 19.0986 55.1738 18.7969 55.3965 18.5742C55.6191 18.3457 55.8535 18.1729 56.0996 18.0557C56.3516 17.9326 56.6094 17.8535 56.873 17.8184C57.1367 17.7773 57.3945 17.7568 57.6465 17.7568C57.8867 17.7568 58.1357 17.7744 58.3936 17.8096C58.6514 17.8447 58.9033 17.9209 59.1494 18.0381C59.3955 18.1494 59.627 18.3193 59.8438 18.5479C60.0664 18.7705 60.2598 19.0723 60.4238 19.4531C60.5938 19.834 60.7256 20.3086 60.8193 20.877C60.9189 21.4395 60.9688 22.1162 60.9688 22.9072V24.8057C60.9688 25.5908 60.9189 26.2676 60.8193 26.8359C60.7197 27.4043 60.585 27.8848 60.415 28.2773C60.2451 28.6699 60.0488 28.9893 59.8262 29.2354C59.6035 29.4756 59.3691 29.6631 59.123 29.7979C58.877 29.9326 58.625 30.0205 58.3672 30.0615C58.1152 30.1084 57.8721 30.1318 57.6377 30.1318ZM57.6553 28.418C57.8545 28.418 58.0215 28.3682 58.1562 28.2686C58.2969 28.1631 58.4082 27.9932 58.4902 27.7588C58.5781 27.5244 58.6396 27.2168 58.6748 26.8359C58.7158 26.4492 58.7363 25.9717 58.7363 25.4033V22.4238C58.7363 21.8555 58.7158 21.3779 58.6748 20.9912C58.6396 20.6045 58.5781 20.2939 58.4902 20.0596C58.4082 19.8193 58.2969 19.6465 58.1562 19.541C58.0215 19.4355 57.8545 19.3828 57.6553 19.3828C57.4443 19.3828 57.2656 19.4355 57.1191 19.541C56.9785 19.6465 56.8613 19.8193 56.7676 20.0596C56.6738 20.2939 56.6064 20.6045 56.5654 20.9912C56.5244 21.3779 56.5039 21.8555 56.5039 22.4238V25.4033C56.5039 25.9717 56.5244 26.4492 56.5654 26.8359C56.6064 27.2168 56.6738 27.5244 56.7676 27.7588C56.8613 27.9932 56.9785 28.1631 57.1191 28.2686C57.2656 28.3682 57.4443 28.418 57.6553 28.418ZM62.9375 17.8975H64.6602L64.8535 19.1895V19.1982C65.0293 18.9229 65.2168 18.6943 65.416 18.5127C65.6152 18.3252 65.8203 18.1758 66.0312 18.0645C66.248 17.9531 66.4678 17.874 66.6904 17.8271C66.9189 17.7803 67.1445 17.7568 67.3672 17.7568C67.8418 17.7568 68.2432 17.8711 68.5713 18.0996C68.8994 18.3281 69.1484 18.6709 69.3184 19.1279C69.4941 18.8643 69.6787 18.6445 69.8721 18.4688C70.0713 18.293 70.2764 18.1523 70.4873 18.0469C70.6982 17.9414 70.9121 17.8682 71.1289 17.8271C71.3457 17.7803 71.5654 17.7568 71.7881 17.7568C72.4912 17.7568 73.0332 18.0059 73.4141 18.5039C73.8008 18.9961 73.9941 19.7373 73.9941 20.7275V30H71.7705V20.8066C71.7705 20.543 71.75 20.3203 71.709 20.1387C71.668 19.957 71.6064 19.8105 71.5244 19.6992C71.4424 19.5879 71.3369 19.5088 71.208 19.4619C71.0791 19.4092 70.9238 19.3828 70.7422 19.3828C70.5371 19.3828 70.332 19.459 70.127 19.6113C69.9219 19.7578 69.7344 19.9629 69.5645 20.2266C69.5703 20.2793 69.5732 20.332 69.5732 20.3848C69.5732 20.4375 69.5732 20.4902 69.5732 20.543V30H67.3496V20.8066C67.3496 20.543 67.3291 20.3203 67.2881 20.1387C67.2471 19.957 67.1855 19.8105 67.1035 19.6992C67.0215 19.5879 66.916 19.5088 66.7871 19.4619C66.6582 19.4092 66.5029 19.3828 66.3213 19.3828C66.1221 19.3828 65.9199 19.4561 65.7148 19.6025C65.5098 19.749 65.3252 19.9512 65.1611 20.209V30H62.9375V17.8975ZM79.2148 30.1318C78.6934 30.1318 78.2305 30.0352 77.8262 29.8418C77.4277 29.6484 77.0908 29.3467 76.8154 28.9365C76.54 28.5264 76.332 28.002 76.1914 27.3633C76.0508 26.7188 75.9805 25.9453 75.9805 25.043V22.7578C75.9805 21.9902 76.0361 21.334 76.1475 20.7891C76.2646 20.2383 76.4141 19.7783 76.5957 19.4092C76.7832 19.0342 76.9971 18.7383 77.2373 18.5215C77.4834 18.3047 77.7354 18.1406 77.9932 18.0293C78.251 17.9121 78.5059 17.8389 78.7578 17.8096C79.0156 17.7744 79.2529 17.7568 79.4697 17.7568C79.8682 17.7568 80.252 17.8184 80.6211 17.9414C80.9902 18.0586 81.3154 18.2637 81.5967 18.5566C81.8779 18.8438 82.1006 19.2305 82.2646 19.7168C82.4346 20.2031 82.5195 20.8096 82.5195 21.5361C82.5195 21.7822 82.5107 22.0312 82.4932 22.2832C82.4814 22.5352 82.4639 22.7842 82.4404 23.0303C82.417 23.2705 82.3848 23.5049 82.3438 23.7334C82.3086 23.9619 82.2705 24.1729 82.2295 24.3662H78.2129V25.5967C78.2129 26.124 78.2334 26.5693 78.2744 26.9326C78.3154 27.29 78.3828 27.5801 78.4766 27.8027C78.5762 28.0195 78.708 28.1777 78.8721 28.2773C79.042 28.3711 79.2529 28.418 79.5049 28.418C79.6396 28.418 79.7715 28.3916 79.9004 28.3389C80.0293 28.2803 80.1406 28.1865 80.2344 28.0576C80.334 27.9287 80.4131 27.7588 80.4717 27.5479C80.5303 27.3311 80.5596 27.0645 80.5596 26.748V26.3701H82.4141V26.8359C82.4141 27.9844 82.1387 28.8223 81.5879 29.3496C81.043 29.8711 80.252 30.1318 79.2148 30.1318ZM80.4453 22.8721C80.4512 22.8076 80.457 22.7227 80.4629 22.6172C80.4688 22.5059 80.4717 22.3916 80.4717 22.2744C80.4775 22.1572 80.4805 22.043 80.4805 21.9316C80.4805 21.8145 80.4805 21.7148 80.4805 21.6328C80.4805 20.8359 80.3867 20.2617 80.1992 19.9102C80.0117 19.5586 79.7334 19.3828 79.3643 19.3828C79.1709 19.3828 79.001 19.4297 78.8545 19.5234C78.708 19.6113 78.5879 19.7637 78.4941 19.9805C78.4004 20.1914 78.3301 20.4727 78.2832 20.8242C78.2363 21.1758 78.2129 21.6123 78.2129 22.1338V22.8721H80.4453ZM84.4004 17.8975H86.0264L86.2197 19.1279C86.4658 18.6709 86.7471 18.3281 87.0635 18.0996C87.3857 17.8711 87.7139 17.7568 88.0479 17.7568C88.6865 17.7568 89.1582 17.9531 89.4629 18.3457C89.7676 18.7383 89.9199 19.3271 89.9199 20.1123C89.9199 20.2119 89.9111 20.332 89.8936 20.4727C89.8818 20.6074 89.8613 20.751 89.832 20.9033C89.8086 21.0498 89.7764 21.1992 89.7354 21.3516C89.7002 21.498 89.6621 21.6328 89.6211 21.7559H88.0742V20.6309C88.0742 20.3848 88.0566 20.1826 88.0215 20.0244C87.9922 19.8662 87.9512 19.7402 87.8984 19.6465C87.8457 19.5469 87.7842 19.4795 87.7139 19.4443C87.6436 19.4033 87.5674 19.3828 87.4854 19.3828C87.3096 19.3828 87.1455 19.4414 86.9932 19.5586C86.8467 19.6699 86.7236 19.8281 86.624 20.0332V30H84.4004V17.8975ZM94.7363 26.959C94.7363 26.6367 94.7539 26.3408 94.7891 26.0713C94.8301 25.7959 94.8887 25.5 94.9648 25.1836H96.7314V25.9131C96.7314 26.3174 96.7549 26.6748 96.8018 26.9854C96.8545 27.2959 96.9365 27.5596 97.0479 27.7764C97.165 27.9873 97.3174 28.1484 97.5049 28.2598C97.6982 28.3652 97.9326 28.418 98.208 28.418C98.6416 28.418 98.9727 28.3008 99.2012 28.0664C99.4297 27.8262 99.5439 27.4775 99.5439 27.0205C99.5439 26.7861 99.5264 26.5723 99.4912 26.3789C99.4619 26.1797 99.4062 25.9834 99.3242 25.79C99.248 25.5967 99.1426 25.3945 99.0078 25.1836C98.873 24.9668 98.7002 24.7266 98.4893 24.4629L96.1162 21.6416C95.6943 21.1025 95.3691 20.5605 95.1406 20.0156C94.9121 19.4648 94.7979 18.8789 94.7979 18.2578C94.7979 17.7598 94.874 17.3027 95.0264 16.8867C95.1846 16.4707 95.4102 16.1133 95.7031 15.8145C95.9961 15.5098 96.3564 15.2754 96.7842 15.1113C97.2178 14.9414 97.707 14.8564 98.252 14.8564C98.9141 14.8564 99.4648 14.9502 99.9043 15.1377C100.35 15.3252 100.704 15.5713 100.968 15.876C101.231 16.1807 101.416 16.5234 101.521 16.9043C101.633 17.2793 101.688 17.6572 101.688 18.0381C101.688 18.3604 101.662 18.6592 101.609 18.9346C101.562 19.2041 101.507 19.5029 101.442 19.8311H99.6846V19.1191C99.6846 18.3223 99.5703 17.7129 99.3418 17.291C99.1133 16.8633 98.7412 16.6494 98.2256 16.6494C97.7979 16.6494 97.4785 16.7695 97.2676 17.0098C97.0566 17.2441 96.9512 17.5605 96.9512 17.959C96.9512 18.1699 96.9658 18.3604 96.9951 18.5303C97.0303 18.7002 97.0771 18.8584 97.1357 19.0049C97.2002 19.1455 97.2764 19.2832 97.3643 19.418C97.4521 19.5527 97.5518 19.6934 97.6631 19.8398L100.309 23.0391C100.789 23.666 101.158 24.2695 101.416 24.8496C101.674 25.4238 101.803 26.0332 101.803 26.6777C101.803 27.2109 101.718 27.6914 101.548 28.1191C101.384 28.5469 101.146 28.9102 100.836 29.209C100.525 29.5078 100.15 29.7393 99.7109 29.9033C99.2715 30.0615 98.7764 30.1406 98.2256 30.1406C97.5459 30.1406 96.9805 30.0498 96.5293 29.8682C96.084 29.6865 95.7266 29.4463 95.457 29.1475C95.1934 28.8486 95.0059 28.5088 94.8945 28.1279C94.7891 27.7471 94.7363 27.3574 94.7363 26.959ZM106.496 30.1318C105.975 30.1318 105.512 30.0352 105.107 29.8418C104.709 29.6484 104.372 29.3467 104.097 28.9365C103.821 28.5264 103.613 28.002 103.473 27.3633C103.332 26.7188 103.262 25.9453 103.262 25.043V22.7578C103.262 21.9902 103.317 21.334 103.429 20.7891C103.546 20.2383 103.695 19.7783 103.877 19.4092C104.064 19.0342 104.278 18.7383 104.519 18.5215C104.765 18.3047 105.017 18.1406 105.274 18.0293C105.532 17.9121 105.787 17.8389 106.039 17.8096C106.297 17.7744 106.534 17.7568 106.751 17.7568C107.149 17.7568 107.533 17.8184 107.902 17.9414C108.271 18.0586 108.597 18.2637 108.878 18.5566C109.159 18.8438 109.382 19.2305 109.546 19.7168C109.716 20.2031 109.801 20.8096 109.801 21.5361C109.801 21.7822 109.792 22.0312 109.774 22.2832C109.763 22.5352 109.745 22.7842 109.722 23.0303C109.698 23.2705 109.666 23.5049 109.625 23.7334C109.59 23.9619 109.552 24.1729 109.511 24.3662H105.494V25.5967C105.494 26.124 105.515 26.5693 105.556 26.9326C105.597 27.29 105.664 27.5801 105.758 27.8027C105.857 28.0195 105.989 28.1777 106.153 28.2773C106.323 28.3711 106.534 28.418 106.786 28.418C106.921 28.418 107.053 28.3916 107.182 28.3389C107.311 28.2803 107.422 28.1865 107.516 28.0576C107.615 27.9287 107.694 27.7588 107.753 27.5479C107.812 27.3311 107.841 27.0645 107.841 26.748V26.3701H109.695V26.8359C109.695 27.9844 109.42 28.8223 108.869 29.3496C108.324 29.8711 107.533 30.1318 106.496 30.1318ZM107.727 22.8721C107.732 22.8076 107.738 22.7227 107.744 22.6172C107.75 22.5059 107.753 22.3916 107.753 22.2744C107.759 22.1572 107.762 22.043 107.762 21.9316C107.762 21.8145 107.762 21.7148 107.762 21.6328C107.762 20.8359 107.668 20.2617 107.48 19.9102C107.293 19.5586 107.015 19.3828 106.646 19.3828C106.452 19.3828 106.282 19.4297 106.136 19.5234C105.989 19.6113 105.869 19.7637 105.775 19.9805C105.682 20.1914 105.611 20.4727 105.564 20.8242C105.518 21.1758 105.494 21.6123 105.494 22.1338V22.8721H107.727ZM111.682 17.8975H113.308L113.501 19.1279C113.747 18.6709 114.028 18.3281 114.345 18.0996C114.667 17.8711 114.995 17.7568 115.329 17.7568C115.968 17.7568 116.439 17.9531 116.744 18.3457C117.049 18.7383 117.201 19.3271 117.201 20.1123C117.201 20.2119 117.192 20.332 117.175 20.4727C117.163 20.6074 117.143 20.751 117.113 20.9033C117.09 21.0498 117.058 21.1992 117.017 21.3516C116.981 21.498 116.943 21.6328 116.902 21.7559H115.355V20.6309C115.355 20.3848 115.338 20.1826 115.303 20.0244C115.273 19.8662 115.232 19.7402 115.18 19.6465C115.127 19.5469 115.065 19.4795 114.995 19.4443C114.925 19.4033 114.849 19.3828 114.767 19.3828C114.591 19.3828 114.427 19.4414 114.274 19.5586C114.128 19.6699 114.005 19.8281 113.905 20.0332V30H111.682V17.8975ZM117.605 17.8975H119.82L120.989 24.3311L121.279 26.9062H121.35L121.684 24.3311L122.844 17.8975H124.988L122.229 30H120.33L117.605 17.8975ZM127.476 16.166C127.065 16.166 126.74 16.043 126.5 15.7969C126.266 15.5508 126.148 15.1904 126.148 14.7158C126.148 14.4521 126.178 14.2324 126.236 14.0566C126.301 13.875 126.389 13.7314 126.5 13.626C126.617 13.5146 126.758 13.4355 126.922 13.3887C127.086 13.3359 127.273 13.3096 127.484 13.3096C127.924 13.3096 128.258 13.4209 128.486 13.6436C128.715 13.8662 128.829 14.2236 128.829 14.7158C128.829 15.1729 128.712 15.5303 128.478 15.7881C128.249 16.04 127.915 16.166 127.476 16.166ZM126.324 17.8975H128.548V30H126.324V17.8975ZM133.698 30.1318C132.679 30.1318 131.899 29.7129 131.36 28.875C130.827 28.0371 130.561 26.7598 130.561 25.043V22.7578C130.561 21.9902 130.616 21.334 130.728 20.7891C130.839 20.2383 130.985 19.7783 131.167 19.4092C131.354 19.0342 131.565 18.7383 131.8 18.5215C132.04 18.3047 132.286 18.1406 132.538 18.0293C132.79 17.9121 133.039 17.8389 133.285 17.8096C133.531 17.7744 133.757 17.7568 133.962 17.7568C134.372 17.7568 134.747 17.8125 135.087 17.9238C135.427 18.0293 135.72 18.1934 135.966 18.416C136.212 18.6328 136.402 18.9082 136.537 19.2422C136.672 19.5762 136.739 19.9688 136.739 20.4199C136.739 20.7012 136.725 20.9443 136.695 21.1494C136.672 21.3486 136.637 21.542 136.59 21.7295H134.814V21.3252C134.814 20.7158 134.741 20.2412 134.595 19.9014C134.454 19.5557 134.22 19.3828 133.892 19.3828C133.71 19.3828 133.552 19.4268 133.417 19.5146C133.282 19.5967 133.168 19.7402 133.074 19.9453C132.986 20.1504 132.919 20.4258 132.872 20.7715C132.831 21.1172 132.811 21.5508 132.811 22.0723V25.5088C132.811 26.0361 132.828 26.4844 132.863 26.8535C132.898 27.2227 132.96 27.5244 133.048 27.7588C133.136 27.9873 133.253 28.1543 133.399 28.2598C133.546 28.3652 133.728 28.418 133.944 28.418C134.056 28.418 134.164 28.3916 134.27 28.3389C134.375 28.2803 134.466 28.1865 134.542 28.0576C134.624 27.9287 134.688 27.7588 134.735 27.5479C134.788 27.3311 134.814 27.0645 134.814 26.748V26.3701H136.73V26.8359C136.73 27.9844 136.476 28.8223 135.966 29.3496C135.462 29.8711 134.706 30.1318 133.698 30.1318ZM141.459 30.1318C140.938 30.1318 140.475 30.0352 140.07 29.8418C139.672 29.6484 139.335 29.3467 139.06 28.9365C138.784 28.5264 138.576 28.002 138.436 27.3633C138.295 26.7188 138.225 25.9453 138.225 25.043V22.7578C138.225 21.9902 138.28 21.334 138.392 20.7891C138.509 20.2383 138.658 19.7783 138.84 19.4092C139.027 19.0342 139.241 18.7383 139.481 18.5215C139.728 18.3047 139.979 18.1406 140.237 18.0293C140.495 17.9121 140.75 17.8389 141.002 17.8096C141.26 17.7744 141.497 17.7568 141.714 17.7568C142.112 17.7568 142.496 17.8184 142.865 17.9414C143.234 18.0586 143.56 18.2637 143.841 18.5566C144.122 18.8438 144.345 19.2305 144.509 19.7168C144.679 20.2031 144.764 20.8096 144.764 21.5361C144.764 21.7822 144.755 22.0312 144.737 22.2832C144.726 22.5352 144.708 22.7842 144.685 23.0303C144.661 23.2705 144.629 23.5049 144.588 23.7334C144.553 23.9619 144.515 24.1729 144.474 24.3662H140.457V25.5967C140.457 26.124 140.478 26.5693 140.519 26.9326C140.56 27.29 140.627 27.5801 140.721 27.8027C140.82 28.0195 140.952 28.1777 141.116 28.2773C141.286 28.3711 141.497 28.418 141.749 28.418C141.884 28.418 142.016 28.3916 142.145 28.3389C142.273 28.2803 142.385 28.1865 142.479 28.0576C142.578 27.9287 142.657 27.7588 142.716 27.5479C142.774 27.3311 142.804 27.0645 142.804 26.748V26.3701H144.658V26.8359C144.658 27.9844 144.383 28.8223 143.832 29.3496C143.287 29.8711 142.496 30.1318 141.459 30.1318ZM142.689 22.8721C142.695 22.8076 142.701 22.7227 142.707 22.6172C142.713 22.5059 142.716 22.3916 142.716 22.2744C142.722 22.1572 142.725 22.043 142.725 21.9316C142.725 21.8145 142.725 21.7148 142.725 21.6328C142.725 20.8359 142.631 20.2617 142.443 19.9102C142.256 19.5586 141.978 19.3828 141.608 19.3828C141.415 19.3828 141.245 19.4297 141.099 19.5234C140.952 19.6113 140.832 19.7637 140.738 19.9805C140.645 20.1914 140.574 20.4727 140.527 20.8242C140.48 21.1758 140.457 21.6123 140.457 22.1338V22.8721H142.689ZM23.7031 49.959C23.7031 49.6367 23.7207 49.3408 23.7559 49.0713C23.7969 48.7959 23.8555 48.5 23.9316 48.1836H25.6982V48.9131C25.6982 49.3174 25.7217 49.6748 25.7686 49.9854C25.8213 50.2959 25.9033 50.5596 26.0146 50.7764C26.1318 50.9873 26.2842 51.1484 26.4717 51.2598C26.665 51.3652 26.8994 51.418 27.1748 51.418C27.6084 51.418 27.9395 51.3008 28.168 51.0664C28.3965 50.8262 28.5107 50.4775 28.5107 50.0205C28.5107 49.7861 28.4932 49.5723 28.458 49.3789C28.4287 49.1797 28.373 48.9834 28.291 48.79C28.2148 48.5967 28.1094 48.3945 27.9746 48.1836C27.8398 47.9668 27.667 47.7266 27.4561 47.4629L25.083 44.6416C24.6611 44.1025 24.3359 43.5605 24.1074 43.0156C23.8789 42.4648 23.7646 41.8789 23.7646 41.2578C23.7646 40.7598 23.8408 40.3027 23.9932 39.8867C24.1514 39.4707 24.377 39.1133 24.6699 38.8145C24.9629 38.5098 25.3232 38.2754 25.751 38.1113C26.1846 37.9414 26.6738 37.8564 27.2188 37.8564C27.8809 37.8564 28.4316 37.9502 28.8711 38.1377C29.3164 38.3252 29.6709 38.5713 29.9346 38.876C30.1982 39.1807 30.3828 39.5234 30.4883 39.9043C30.5996 40.2793 30.6553 40.6572 30.6553 41.0381C30.6553 41.3604 30.6289 41.6592 30.5762 41.9346C30.5293 42.2041 30.4736 42.5029 30.4092 42.8311H28.6514V42.1191C28.6514 41.3223 28.5371 40.7129 28.3086 40.291C28.0801 39.8633 27.708 39.6494 27.1924 39.6494C26.7646 39.6494 26.4453 39.7695 26.2344 40.0098C26.0234 40.2441 25.918 40.5605 25.918 40.959C25.918 41.1699 25.9326 41.3604 25.9619 41.5303C25.9971 41.7002 26.0439 41.8584 26.1025 42.0049C26.167 42.1455 26.2432 42.2832 26.3311 42.418C26.4189 42.5527 26.5186 42.6934 26.6299 42.8398L29.2754 46.0391C29.7559 46.666 30.125 47.2695 30.3828 47.8496C30.6406 48.4238 30.7695 49.0332 30.7695 49.6777C30.7695 50.2109 30.6846 50.6914 30.5146 51.1191C30.3506 51.5469 30.1133 51.9102 29.8027 52.209C29.4922 52.5078 29.1172 52.7393 28.6777 52.9033C28.2383 53.0615 27.7432 53.1406 27.1924 53.1406C26.5127 53.1406 25.9473 53.0498 25.4961 52.8682C25.0508 52.6865 24.6934 52.4463 24.4238 52.1475C24.1602 51.8486 23.9727 51.5088 23.8613 51.1279C23.7559 50.7471 23.7031 50.3574 23.7031 49.959ZM35.4629 53.1318C34.9414 53.1318 34.4785 53.0352 34.0742 52.8418C33.6758 52.6484 33.3389 52.3467 33.0635 51.9365C32.7881 51.5264 32.5801 51.002 32.4395 50.3633C32.2988 49.7188 32.2285 48.9453 32.2285 48.043V45.7578C32.2285 44.9902 32.2842 44.334 32.3955 43.7891C32.5127 43.2383 32.6621 42.7783 32.8438 42.4092C33.0312 42.0342 33.2451 41.7383 33.4854 41.5215C33.7314 41.3047 33.9834 41.1406 34.2412 41.0293C34.499 40.9121 34.7539 40.8389 35.0059 40.8096C35.2637 40.7744 35.501 40.7568 35.7178 40.7568C36.1162 40.7568 36.5 40.8184 36.8691 40.9414C37.2383 41.0586 37.5635 41.2637 37.8447 41.5566C38.126 41.8438 38.3486 42.2305 38.5127 42.7168C38.6826 43.2031 38.7676 43.8096 38.7676 44.5361C38.7676 44.7822 38.7588 45.0312 38.7412 45.2832C38.7295 45.5352 38.7119 45.7842 38.6885 46.0303C38.665 46.2705 38.6328 46.5049 38.5918 46.7334C38.5566 46.9619 38.5186 47.1729 38.4775 47.3662H34.4609V48.5967C34.4609 49.124 34.4814 49.5693 34.5225 49.9326C34.5635 50.29 34.6309 50.5801 34.7246 50.8027C34.8242 51.0195 34.9561 51.1777 35.1201 51.2773C35.29 51.3711 35.501 51.418 35.7529 51.418C35.8877 51.418 36.0195 51.3916 36.1484 51.3389C36.2773 51.2803 36.3887 51.1865 36.4824 51.0576C36.582 50.9287 36.6611 50.7588 36.7197 50.5479C36.7783 50.3311 36.8076 50.0645 36.8076 49.748V49.3701H38.6621V49.8359C38.6621 50.9844 38.3867 51.8223 37.8359 52.3496C37.291 52.8711 36.5 53.1318 35.4629 53.1318ZM36.6934 45.8721C36.6992 45.8076 36.7051 45.7227 36.7109 45.6172C36.7168 45.5059 36.7197 45.3916 36.7197 45.2744C36.7256 45.1572 36.7285 45.043 36.7285 44.9316C36.7285 44.8145 36.7285 44.7148 36.7285 44.6328C36.7285 43.8359 36.6348 43.2617 36.4473 42.9102C36.2598 42.5586 35.9814 42.3828 35.6123 42.3828C35.4189 42.3828 35.249 42.4297 35.1025 42.5234C34.9561 42.6113 34.8359 42.7637 34.7422 42.9805C34.6484 43.1914 34.5781 43.4727 34.5312 43.8242C34.4844 44.1758 34.4609 44.6123 34.4609 45.1338V45.8721H36.6934ZM40.6836 37.0127H42.9072V53H40.6836V37.0127ZM45.5352 42.4795H44.4893V40.8975H45.5352V40.0273C45.5352 39.3711 45.6025 38.8379 45.7373 38.4277C45.8721 38.0117 46.0566 37.6895 46.291 37.4609C46.5312 37.2266 46.8096 37.0684 47.126 36.9863C47.4482 36.9043 47.7939 36.8633 48.1631 36.8633C48.2686 36.8633 48.3857 36.8691 48.5146 36.8809C48.6494 36.8926 48.7812 36.9131 48.9102 36.9424C49.0449 36.9658 49.1738 36.9951 49.2969 37.0303C49.4258 37.0654 49.54 37.1094 49.6396 37.1621V38.7266C49.3936 38.6621 49.1182 38.6299 48.8135 38.6299C48.667 38.6299 48.5264 38.6533 48.3916 38.7002C48.2627 38.7471 48.1484 38.8262 48.0488 38.9375C47.9492 39.043 47.8701 39.1865 47.8115 39.3682C47.7529 39.5439 47.7236 39.7637 47.7236 40.0273V40.8975H49.4023V42.4795H47.7236V53H45.5352V42.4795ZM56.293 37.9883H58.9121L61.6895 53H59.3867L58.9736 50.3105H56.2314L55.8359 53H53.5244L56.293 37.9883ZM58.71 48.5967L57.6553 41.1172H57.5586L56.4951 48.5967H58.71ZM62.5332 50.4688C62.5332 50.2051 62.5566 49.9502 62.6035 49.7041C62.6562 49.458 62.7061 49.2617 62.7529 49.1152H64.3174C64.3174 49.5547 64.3379 49.9238 64.3789 50.2227C64.4258 50.5156 64.499 50.75 64.5986 50.9258C64.6982 51.1016 64.8301 51.2275 64.9941 51.3037C65.1641 51.3799 65.3691 51.418 65.6094 51.418C65.9434 51.418 66.1865 51.3242 66.3389 51.1367C66.4912 50.9492 66.5674 50.7324 66.5674 50.4863C66.5674 50.3574 66.5498 50.2344 66.5146 50.1172C66.4795 50 66.4297 49.8828 66.3652 49.7656C66.3008 49.6426 66.2217 49.5195 66.1279 49.3965C66.0342 49.2734 65.9287 49.1387 65.8115 48.9922L64.1855 47.0762C63.9746 46.8125 63.7695 46.5459 63.5703 46.2764C63.377 46.001 63.2041 45.7197 63.0518 45.4326C62.9053 45.1396 62.7852 44.835 62.6914 44.5186C62.6035 44.2021 62.5596 43.8682 62.5596 43.5166C62.5596 43.0479 62.6387 42.6406 62.7969 42.2949C62.9609 41.9492 63.1777 41.6621 63.4473 41.4336C63.7227 41.2051 64.0391 41.0352 64.3965 40.9238C64.7539 40.8125 65.1318 40.7568 65.5303 40.7568C65.9697 40.7568 66.3652 40.8096 66.7168 40.915C67.0684 41.0205 67.3701 41.1787 67.6221 41.3896C67.874 41.6006 68.0674 41.8643 68.2021 42.1807C68.3369 42.4912 68.4043 42.8545 68.4043 43.2705C68.4043 43.5518 68.3779 43.8242 68.3252 44.0879C68.2783 44.3516 68.2314 44.5771 68.1846 44.7646H66.6465C66.6406 44.3662 66.623 44.0176 66.5938 43.7188C66.5645 43.4199 66.5088 43.1738 66.4268 42.9805C66.3506 42.7812 66.2422 42.6318 66.1016 42.5322C65.9668 42.4326 65.7881 42.3828 65.5654 42.3828C65.3721 42.3828 65.2109 42.415 65.082 42.4795C64.9531 42.5381 64.8477 42.6172 64.7656 42.7168C64.6895 42.8164 64.6338 42.9277 64.5986 43.0508C64.5693 43.1738 64.5547 43.2998 64.5547 43.4287C64.5547 43.71 64.6221 43.9707 64.7568 44.2109C64.8916 44.4512 65.0703 44.7119 65.293 44.9932L67.0684 47.0762C67.1973 47.2344 67.3467 47.4277 67.5166 47.6562C67.6865 47.8789 67.8477 48.1279 68 48.4033C68.1523 48.6729 68.2812 48.9688 68.3867 49.291C68.4922 49.6133 68.5449 49.9502 68.5449 50.3018C68.5449 50.7295 68.4775 51.1191 68.3428 51.4707C68.208 51.8164 68.0088 52.1123 67.7451 52.3584C67.4814 52.6045 67.1562 52.7949 66.7695 52.9297C66.3887 53.0645 65.9521 53.1318 65.46 53.1318C65.0557 53.1318 64.6748 53.0879 64.3174 53C63.96 52.9062 63.6494 52.7568 63.3857 52.5518C63.1221 52.3408 62.9141 52.0654 62.7617 51.7256C62.6094 51.3857 62.5332 50.9668 62.5332 50.4688ZM69.8281 50.4688C69.8281 50.2051 69.8516 49.9502 69.8984 49.7041C69.9512 49.458 70.001 49.2617 70.0479 49.1152H71.6123C71.6123 49.5547 71.6328 49.9238 71.6738 50.2227C71.7207 50.5156 71.7939 50.75 71.8936 50.9258C71.9932 51.1016 72.125 51.2275 72.2891 51.3037C72.459 51.3799 72.6641 51.418 72.9043 51.418C73.2383 51.418 73.4814 51.3242 73.6338 51.1367C73.7861 50.9492 73.8623 50.7324 73.8623 50.4863C73.8623 50.3574 73.8447 50.2344 73.8096 50.1172C73.7744 50 73.7246 49.8828 73.6602 49.7656C73.5957 49.6426 73.5166 49.5195 73.4229 49.3965C73.3291 49.2734 73.2236 49.1387 73.1064 48.9922L71.4805 47.0762C71.2695 46.8125 71.0645 46.5459 70.8652 46.2764C70.6719 46.001 70.499 45.7197 70.3467 45.4326C70.2002 45.1396 70.0801 44.835 69.9863 44.5186C69.8984 44.2021 69.8545 43.8682 69.8545 43.5166C69.8545 43.0479 69.9336 42.6406 70.0918 42.2949C70.2559 41.9492 70.4727 41.6621 70.7422 41.4336C71.0176 41.2051 71.334 41.0352 71.6914 40.9238C72.0488 40.8125 72.4268 40.7568 72.8252 40.7568C73.2646 40.7568 73.6602 40.8096 74.0117 40.915C74.3633 41.0205 74.665 41.1787 74.917 41.3896C75.1689 41.6006 75.3623 41.8643 75.4971 42.1807C75.6318 42.4912 75.6992 42.8545 75.6992 43.2705C75.6992 43.5518 75.6729 43.8242 75.6201 44.0879C75.5732 44.3516 75.5264 44.5771 75.4795 44.7646H73.9414C73.9355 44.3662 73.918 44.0176 73.8887 43.7188C73.8594 43.4199 73.8037 43.1738 73.7217 42.9805C73.6455 42.7812 73.5371 42.6318 73.3965 42.5322C73.2617 42.4326 73.083 42.3828 72.8604 42.3828C72.667 42.3828 72.5059 42.415 72.377 42.4795C72.248 42.5381 72.1426 42.6172 72.0605 42.7168C71.9844 42.8164 71.9287 42.9277 71.8936 43.0508C71.8643 43.1738 71.8496 43.2998 71.8496 43.4287C71.8496 43.71 71.917 43.9707 72.0518 44.2109C72.1865 44.4512 72.3652 44.7119 72.5879 44.9932L74.3633 47.0762C74.4922 47.2344 74.6416 47.4277 74.8115 47.6562C74.9814 47.8789 75.1426 48.1279 75.2949 48.4033C75.4473 48.6729 75.5762 48.9688 75.6816 49.291C75.7871 49.6133 75.8398 49.9502 75.8398 50.3018C75.8398 50.7295 75.7725 51.1191 75.6377 51.4707C75.5029 51.8164 75.3037 52.1123 75.04 52.3584C74.7764 52.6045 74.4512 52.7949 74.0645 52.9297C73.6836 53.0645 73.2471 53.1318 72.7549 53.1318C72.3506 53.1318 71.9697 53.0879 71.6123 53C71.2549 52.9062 70.9443 52.7568 70.6807 52.5518C70.417 52.3408 70.209 52.0654 70.0566 51.7256C69.9043 51.3857 69.8281 50.9668 69.8281 50.4688ZM80.5156 53.1318C79.9941 53.1318 79.5312 53.0352 79.127 52.8418C78.7285 52.6484 78.3916 52.3467 78.1162 51.9365C77.8408 51.5264 77.6328 51.002 77.4922 50.3633C77.3516 49.7188 77.2812 48.9453 77.2812 48.043V45.7578C77.2812 44.9902 77.3369 44.334 77.4482 43.7891C77.5654 43.2383 77.7148 42.7783 77.8965 42.4092C78.084 42.0342 78.2979 41.7383 78.5381 41.5215C78.7842 41.3047 79.0361 41.1406 79.2939 41.0293C79.5518 40.9121 79.8066 40.8389 80.0586 40.8096C80.3164 40.7744 80.5537 40.7568 80.7705 40.7568C81.1689 40.7568 81.5527 40.8184 81.9219 40.9414C82.291 41.0586 82.6162 41.2637 82.8975 41.5566C83.1787 41.8438 83.4014 42.2305 83.5654 42.7168C83.7354 43.2031 83.8203 43.8096 83.8203 44.5361C83.8203 44.7822 83.8115 45.0312 83.7939 45.2832C83.7822 45.5352 83.7646 45.7842 83.7412 46.0303C83.7178 46.2705 83.6855 46.5049 83.6445 46.7334C83.6094 46.9619 83.5713 47.1729 83.5303 47.3662H79.5137V48.5967C79.5137 49.124 79.5342 49.5693 79.5752 49.9326C79.6162 50.29 79.6836 50.5801 79.7773 50.8027C79.877 51.0195 80.0088 51.1777 80.1729 51.2773C80.3428 51.3711 80.5537 51.418 80.8057 51.418C80.9404 51.418 81.0723 51.3916 81.2012 51.3389C81.3301 51.2803 81.4414 51.1865 81.5352 51.0576C81.6348 50.9287 81.7139 50.7588 81.7725 50.5479C81.8311 50.3311 81.8604 50.0645 81.8604 49.748V49.3701H83.7148V49.8359C83.7148 50.9844 83.4395 51.8223 82.8887 52.3496C82.3438 52.8711 81.5527 53.1318 80.5156 53.1318ZM81.7461 45.8721C81.752 45.8076 81.7578 45.7227 81.7637 45.6172C81.7695 45.5059 81.7725 45.3916 81.7725 45.2744C81.7783 45.1572 81.7812 45.043 81.7812 44.9316C81.7812 44.8145 81.7812 44.7148 81.7812 44.6328C81.7812 43.8359 81.6875 43.2617 81.5 42.9102C81.3125 42.5586 81.0342 42.3828 80.665 42.3828C80.4717 42.3828 80.3018 42.4297 80.1553 42.5234C80.0088 42.6113 79.8887 42.7637 79.7949 42.9805C79.7012 43.1914 79.6309 43.4727 79.584 43.8242C79.5371 44.1758 79.5137 44.6123 79.5137 45.1338V45.8721H81.7461ZM85.2266 50.4688C85.2266 50.2051 85.25 49.9502 85.2969 49.7041C85.3496 49.458 85.3994 49.2617 85.4463 49.1152H87.0107C87.0107 49.5547 87.0312 49.9238 87.0723 50.2227C87.1191 50.5156 87.1924 50.75 87.292 50.9258C87.3916 51.1016 87.5234 51.2275 87.6875 51.3037C87.8574 51.3799 88.0625 51.418 88.3027 51.418C88.6367 51.418 88.8799 51.3242 89.0322 51.1367C89.1846 50.9492 89.2607 50.7324 89.2607 50.4863C89.2607 50.3574 89.2432 50.2344 89.208 50.1172C89.1729 50 89.123 49.8828 89.0586 49.7656C88.9941 49.6426 88.915 49.5195 88.8213 49.3965C88.7275 49.2734 88.6221 49.1387 88.5049 48.9922L86.8789 47.0762C86.668 46.8125 86.4629 46.5459 86.2637 46.2764C86.0703 46.001 85.8975 45.7197 85.7451 45.4326C85.5986 45.1396 85.4785 44.835 85.3848 44.5186C85.2969 44.2021 85.2529 43.8682 85.2529 43.5166C85.2529 43.0479 85.332 42.6406 85.4902 42.2949C85.6543 41.9492 85.8711 41.6621 86.1406 41.4336C86.416 41.2051 86.7324 41.0352 87.0898 40.9238C87.4473 40.8125 87.8252 40.7568 88.2236 40.7568C88.6631 40.7568 89.0586 40.8096 89.4102 40.915C89.7617 41.0205 90.0635 41.1787 90.3154 41.3896C90.5674 41.6006 90.7607 41.8643 90.8955 42.1807C91.0303 42.4912 91.0977 42.8545 91.0977 43.2705C91.0977 43.5518 91.0713 43.8242 91.0186 44.0879C90.9717 44.3516 90.9248 44.5771 90.8779 44.7646H89.3398C89.334 44.3662 89.3164 44.0176 89.2871 43.7188C89.2578 43.4199 89.2021 43.1738 89.1201 42.9805C89.0439 42.7812 88.9355 42.6318 88.7949 42.5322C88.6602 42.4326 88.4814 42.3828 88.2588 42.3828C88.0654 42.3828 87.9043 42.415 87.7754 42.4795C87.6465 42.5381 87.541 42.6172 87.459 42.7168C87.3828 42.8164 87.3271 42.9277 87.292 43.0508C87.2627 43.1738 87.248 43.2998 87.248 43.4287C87.248 43.71 87.3154 43.9707 87.4502 44.2109C87.585 44.4512 87.7637 44.7119 87.9863 44.9932L89.7617 47.0762C89.8906 47.2344 90.04 47.4277 90.21 47.6562C90.3799 47.8789 90.541 48.1279 90.6934 48.4033C90.8457 48.6729 90.9746 48.9688 91.0801 49.291C91.1855 49.6133 91.2383 49.9502 91.2383 50.3018C91.2383 50.7295 91.1709 51.1191 91.0361 51.4707C90.9014 51.8164 90.7021 52.1123 90.4385 52.3584C90.1748 52.6045 89.8496 52.7949 89.4629 52.9297C89.082 53.0645 88.6455 53.1318 88.1533 53.1318C87.749 53.1318 87.3682 53.0879 87.0107 53C86.6533 52.9062 86.3428 52.7568 86.0791 52.5518C85.8154 52.3408 85.6074 52.0654 85.4551 51.7256C85.3027 51.3857 85.2266 50.9668 85.2266 50.4688ZM92.5215 50.4688C92.5215 50.2051 92.5449 49.9502 92.5918 49.7041C92.6445 49.458 92.6943 49.2617 92.7412 49.1152H94.3057C94.3057 49.5547 94.3262 49.9238 94.3672 50.2227C94.4141 50.5156 94.4873 50.75 94.5869 50.9258C94.6865 51.1016 94.8184 51.2275 94.9824 51.3037C95.1523 51.3799 95.3574 51.418 95.5977 51.418C95.9316 51.418 96.1748 51.3242 96.3271 51.1367C96.4795 50.9492 96.5557 50.7324 96.5557 50.4863C96.5557 50.3574 96.5381 50.2344 96.5029 50.1172C96.4678 50 96.418 49.8828 96.3535 49.7656C96.2891 49.6426 96.21 49.5195 96.1162 49.3965C96.0225 49.2734 95.917 49.1387 95.7998 48.9922L94.1738 47.0762C93.9629 46.8125 93.7578 46.5459 93.5586 46.2764C93.3652 46.001 93.1924 45.7197 93.04 45.4326C92.8936 45.1396 92.7734 44.835 92.6797 44.5186C92.5918 44.2021 92.5479 43.8682 92.5479 43.5166C92.5479 43.0479 92.627 42.6406 92.7852 42.2949C92.9492 41.9492 93.166 41.6621 93.4355 41.4336C93.7109 41.2051 94.0273 41.0352 94.3848 40.9238C94.7422 40.8125 95.1201 40.7568 95.5186 40.7568C95.958 40.7568 96.3535 40.8096 96.7051 40.915C97.0566 41.0205 97.3584 41.1787 97.6104 41.3896C97.8623 41.6006 98.0557 41.8643 98.1904 42.1807C98.3252 42.4912 98.3926 42.8545 98.3926 43.2705C98.3926 43.5518 98.3662 43.8242 98.3135 44.0879C98.2666 44.3516 98.2197 44.5771 98.1729 44.7646H96.6348C96.6289 44.3662 96.6113 44.0176 96.582 43.7188C96.5527 43.4199 96.4971 43.1738 96.415 42.9805C96.3389 42.7812 96.2305 42.6318 96.0898 42.5322C95.9551 42.4326 95.7764 42.3828 95.5537 42.3828C95.3604 42.3828 95.1992 42.415 95.0703 42.4795C94.9414 42.5381 94.8359 42.6172 94.7539 42.7168C94.6777 42.8164 94.6221 42.9277 94.5869 43.0508C94.5576 43.1738 94.543 43.2998 94.543 43.4287C94.543 43.71 94.6104 43.9707 94.7451 44.2109C94.8799 44.4512 95.0586 44.7119 95.2812 44.9932L97.0566 47.0762C97.1855 47.2344 97.335 47.4277 97.5049 47.6562C97.6748 47.8789 97.8359 48.1279 97.9883 48.4033C98.1406 48.6729 98.2695 48.9688 98.375 49.291C98.4805 49.6133 98.5332 49.9502 98.5332 50.3018C98.5332 50.7295 98.4658 51.1191 98.3311 51.4707C98.1963 51.8164 97.9971 52.1123 97.7334 52.3584C97.4697 52.6045 97.1445 52.7949 96.7578 52.9297C96.377 53.0645 95.9404 53.1318 95.4482 53.1318C95.0439 53.1318 94.6631 53.0879 94.3057 53C93.9482 52.9062 93.6377 52.7568 93.374 52.5518C93.1104 52.3408 92.9023 52.0654 92.75 51.7256C92.5977 51.3857 92.5215 50.9668 92.5215 50.4688ZM100.291 40.8975H102.014L102.207 42.1895V42.1982C102.383 41.9229 102.57 41.6943 102.77 41.5127C102.969 41.3252 103.174 41.1758 103.385 41.0645C103.602 40.9531 103.821 40.874 104.044 40.8271C104.272 40.7803 104.498 40.7568 104.721 40.7568C105.195 40.7568 105.597 40.8711 105.925 41.0996C106.253 41.3281 106.502 41.6709 106.672 42.1279C106.848 41.8643 107.032 41.6445 107.226 41.4688C107.425 41.293 107.63 41.1523 107.841 41.0469C108.052 40.9414 108.266 40.8682 108.482 40.8271C108.699 40.7803 108.919 40.7568 109.142 40.7568C109.845 40.7568 110.387 41.0059 110.768 41.5039C111.154 41.9961 111.348 42.7373 111.348 43.7275V53H109.124V43.8066C109.124 43.543 109.104 43.3203 109.062 43.1387C109.021 42.957 108.96 42.8105 108.878 42.6992C108.796 42.5879 108.69 42.5088 108.562 42.4619C108.433 42.4092 108.277 42.3828 108.096 42.3828C107.891 42.3828 107.686 42.459 107.48 42.6113C107.275 42.7578 107.088 42.9629 106.918 43.2266C106.924 43.2793 106.927 43.332 106.927 43.3848C106.927 43.4375 106.927 43.4902 106.927 43.543V53H104.703V43.8066C104.703 43.543 104.683 43.3203 104.642 43.1387C104.601 42.957 104.539 42.8105 104.457 42.6992C104.375 42.5879 104.27 42.5088 104.141 42.4619C104.012 42.4092 103.856 42.3828 103.675 42.3828C103.476 42.3828 103.273 42.4561 103.068 42.6025C102.863 42.749 102.679 42.9512 102.515 43.209V53H100.291V40.8975ZM116.568 53.1318C116.047 53.1318 115.584 53.0352 115.18 52.8418C114.781 52.6484 114.444 52.3467 114.169 51.9365C113.894 51.5264 113.686 51.002 113.545 50.3633C113.404 49.7188 113.334 48.9453 113.334 48.043V45.7578C113.334 44.9902 113.39 44.334 113.501 43.7891C113.618 43.2383 113.768 42.7783 113.949 42.4092C114.137 42.0342 114.351 41.7383 114.591 41.5215C114.837 41.3047 115.089 41.1406 115.347 41.0293C115.604 40.9121 115.859 40.8389 116.111 40.8096C116.369 40.7744 116.606 40.7568 116.823 40.7568C117.222 40.7568 117.605 40.8184 117.975 40.9414C118.344 41.0586 118.669 41.2637 118.95 41.5566C119.231 41.8438 119.454 42.2305 119.618 42.7168C119.788 43.2031 119.873 43.8096 119.873 44.5361C119.873 44.7822 119.864 45.0312 119.847 45.2832C119.835 45.5352 119.817 45.7842 119.794 46.0303C119.771 46.2705 119.738 46.5049 119.697 46.7334C119.662 46.9619 119.624 47.1729 119.583 47.3662H115.566V48.5967C115.566 49.124 115.587 49.5693 115.628 49.9326C115.669 50.29 115.736 50.5801 115.83 50.8027C115.93 51.0195 116.062 51.1777 116.226 51.2773C116.396 51.3711 116.606 51.418 116.858 51.418C116.993 51.418 117.125 51.3916 117.254 51.3389C117.383 51.2803 117.494 51.1865 117.588 51.0576C117.688 50.9287 117.767 50.7588 117.825 50.5479C117.884 50.3311 117.913 50.0645 117.913 49.748V49.3701H119.768V49.8359C119.768 50.9844 119.492 51.8223 118.941 52.3496C118.396 52.8711 117.605 53.1318 116.568 53.1318ZM117.799 45.8721C117.805 45.8076 117.811 45.7227 117.816 45.6172C117.822 45.5059 117.825 45.3916 117.825 45.2744C117.831 45.1572 117.834 45.043 117.834 44.9316C117.834 44.8145 117.834 44.7148 117.834 44.6328C117.834 43.8359 117.74 43.2617 117.553 42.9102C117.365 42.5586 117.087 42.3828 116.718 42.3828C116.524 42.3828 116.354 42.4297 116.208 42.5234C116.062 42.6113 115.941 42.7637 115.848 42.9805C115.754 43.1914 115.684 43.4727 115.637 43.8242C115.59 44.1758 115.566 44.6123 115.566 45.1338V45.8721H117.799ZM121.754 40.8975H123.468L123.67 42.1895V42.1982C123.846 41.9229 124.033 41.6943 124.232 41.5127C124.438 41.3252 124.648 41.1758 124.865 41.0645C125.082 40.9531 125.302 40.874 125.524 40.8271C125.753 40.7803 125.979 40.7568 126.201 40.7568C126.91 40.7568 127.455 41.0059 127.836 41.5039C128.223 41.9961 128.416 42.7373 128.416 43.7275V53H126.192V43.8066C126.192 43.2734 126.11 42.9043 125.946 42.6992C125.782 42.4883 125.542 42.3828 125.226 42.3828C125.003 42.3828 124.78 42.4561 124.558 42.6025C124.341 42.749 124.147 42.9512 123.978 43.209V53H121.754V40.8975ZM130.974 42.4795H130.033V40.8975H131.167L131.615 37.7598H133.197V40.8975H135.131V42.4795H133.197V50.1787C133.197 50.4424 133.221 50.6562 133.268 50.8203C133.32 50.9785 133.391 51.1045 133.479 51.1982C133.566 51.2861 133.669 51.3447 133.786 51.374C133.903 51.4033 134.026 51.418 134.155 51.418C134.372 51.418 134.562 51.3916 134.727 51.3389C134.896 51.2861 135.058 51.2129 135.21 51.1191V52.3496C135.081 52.5078 134.94 52.6367 134.788 52.7363C134.642 52.8359 134.489 52.918 134.331 52.9824C134.173 53.041 134.012 53.082 133.848 53.1055C133.684 53.1289 133.522 53.1406 133.364 53.1406C133.054 53.1406 132.755 53.0996 132.468 53.0176C132.181 52.9355 131.926 52.7803 131.703 52.5518C131.48 52.3174 131.302 51.9951 131.167 51.585C131.038 51.1748 130.974 50.6416 130.974 49.9854V42.4795Z" fill="#CC3E16"/>
<path d="M204 34.9065C203.985 34.5165 203.824 34.0658 203.557 33.7815L194.83 24.508C194.238 23.9766 193.104 23.7572 192.443 24.3717C191.792 24.9769 191.812 26.1506 192.46 26.7582L198.597 33.2701H172.636C171.733 33.2701 171 34.0028 171 34.9065C171 35.8103 171.733 36.543 172.636 36.543H198.597L192.46 43.0549C191.902 43.6143 191.799 44.8293 192.443 45.4415C193.088 46.0535 194.263 45.858 194.83 45.3051L203.557 36.0316C203.856 35.7143 204.001 35.3419 204 34.9065Z" fill="#CC3E16"/>
</svg>
