<svg width="230" height="69" viewBox="0 0 230 69" fill="none" xmlns="http://www.w3.org/2000/svg">
<rect x="2" y="2" width="226" height="65" stroke="#CC3E16" stroke-width="4"/>
<path d="M24.2832 14.9883H29.8467V16.7812H26.5596V21.2725H29.0996V23.0654H26.5596V28.207H29.9346V30H24.2832V14.9883ZM31.4375 17.8975H33.1602L33.3535 19.1895V19.1982C33.5293 18.9229 33.7168 18.6943 33.916 18.5127C34.1152 18.3252 34.3203 18.1758 34.5312 18.0645C34.748 17.9531 34.9678 17.874 35.1904 17.8271C35.4189 17.7803 35.6445 17.7568 35.8672 17.7568C36.3418 17.7568 36.7432 17.8711 37.0713 18.0996C37.3994 18.3281 37.6484 18.6709 37.8184 19.1279C37.9941 18.8643 38.1787 18.6445 38.3721 18.4688C38.5713 18.293 38.7764 18.1523 38.9873 18.0469C39.1982 17.9414 39.4121 17.8682 39.6289 17.8271C39.8457 17.7803 40.0654 17.7568 40.2881 17.7568C40.9912 17.7568 41.5332 18.0059 41.9141 18.5039C42.3008 18.9961 42.4941 19.7373 42.4941 20.7275V30H40.2705V20.8066C40.2705 20.543 40.25 20.3203 40.209 20.1387C40.168 19.957 40.1064 19.8105 40.0244 19.6992C39.9424 19.5879 39.8369 19.5088 39.708 19.4619C39.5791 19.4092 39.4238 19.3828 39.2422 19.3828C39.0371 19.3828 38.832 19.459 38.627 19.6113C38.4219 19.7578 38.2344 19.9629 38.0645 20.2266C38.0703 20.2793 38.0732 20.332 38.0732 20.3848C38.0732 20.4375 38.0732 20.4902 38.0732 20.543V30H35.8496V20.8066C35.8496 20.543 35.8291 20.3203 35.7881 20.1387C35.7471 19.957 35.6855 19.8105 35.6035 19.6992C35.5215 19.5879 35.416 19.5088 35.2871 19.4619C35.1582 19.4092 35.0029 19.3828 34.8213 19.3828C34.6221 19.3828 34.4199 19.4561 34.2148 19.6025C34.0098 19.749 33.8252 19.9512 33.6611 20.209V30H31.4375V17.8975ZM47.0205 30.6855V33.9111H44.7969V17.8975H46.5371L46.7393 19.1719C46.8389 19.0078 46.9561 18.8408 47.0908 18.6709C47.2314 18.501 47.3926 18.3516 47.5742 18.2227C47.7617 18.0879 47.9697 17.9795 48.1982 17.8975C48.4326 17.8096 48.6934 17.7656 48.9805 17.7656C49.1035 17.7656 49.25 17.7773 49.4199 17.8008C49.5957 17.8242 49.7744 17.8828 49.9561 17.9766C50.1436 18.0703 50.3281 18.2109 50.5098 18.3984C50.6973 18.5801 50.8613 18.832 51.002 19.1543C51.1484 19.4766 51.2656 19.8779 51.3535 20.3584C51.4473 20.8389 51.4941 21.4219 51.4941 22.1074V25.7725C51.4941 26.458 51.4473 27.041 51.3535 27.5215C51.2656 28.002 51.1484 28.4033 51.002 28.7256C50.8555 29.0479 50.6885 29.3027 50.501 29.4902C50.3135 29.6777 50.123 29.8184 49.9297 29.9121C49.7363 30.0059 49.5488 30.0645 49.3672 30.0879C49.1855 30.1172 49.0273 30.1318 48.8926 30.1318C48.4238 30.1318 48.0312 30.041 47.7148 29.8594C47.4043 29.6777 47.1494 29.458 46.9502 29.2002L47.0205 30.6855ZM47.0205 27.5303C47.0674 27.6475 47.123 27.7588 47.1875 27.8643C47.2578 27.9697 47.3369 28.0635 47.4248 28.1455C47.5186 28.2275 47.6211 28.2949 47.7324 28.3477C47.8496 28.3945 47.9844 28.418 48.1367 28.418C48.3008 28.418 48.4502 28.3887 48.585 28.3301C48.7197 28.2656 48.8369 28.1543 48.9365 27.9961C49.0361 27.832 49.1123 27.6064 49.165 27.3193C49.2236 27.0322 49.2529 26.6631 49.2529 26.2119V21.5801C49.2529 21.1289 49.2236 20.7627 49.165 20.4814C49.1123 20.1943 49.0361 19.9688 48.9365 19.8047C48.8428 19.6406 48.7285 19.5293 48.5938 19.4707C48.459 19.4121 48.3096 19.3828 48.1455 19.3828C47.8643 19.3828 47.6328 19.4678 47.4512 19.6377C47.2754 19.8018 47.1318 19.9951 47.0205 20.2178V27.5303ZM53.5332 14.0127H55.7568V30H53.5332V14.0127ZM61.1357 30.1318C60.8779 30.1318 60.6143 30.1113 60.3447 30.0703C60.0811 30.0293 59.8232 29.9443 59.5713 29.8154C59.3252 29.6865 59.0908 29.502 58.8682 29.2617C58.6514 29.0215 58.4609 28.7051 58.2969 28.3125C58.1328 27.9199 58.0039 27.4365 57.9102 26.8623C57.8164 26.2881 57.7695 25.6025 57.7695 24.8057V22.9072C57.7695 22.1221 57.8164 21.4512 57.9102 20.8945C58.0098 20.332 58.1416 19.8604 58.3057 19.4795C58.4756 19.0986 58.6719 18.7969 58.8945 18.5742C59.1172 18.3457 59.3516 18.1729 59.5977 18.0557C59.8496 17.9326 60.1074 17.8535 60.3711 17.8184C60.6348 17.7773 60.8926 17.7568 61.1445 17.7568C61.3848 17.7568 61.6338 17.7744 61.8916 17.8096C62.1494 17.8447 62.4014 17.9209 62.6475 18.0381C62.8936 18.1494 63.125 18.3193 63.3418 18.5479C63.5645 18.7705 63.7578 19.0723 63.9219 19.4531C64.0918 19.834 64.2236 20.3086 64.3174 20.877C64.417 21.4395 64.4668 22.1162 64.4668 22.9072V24.8057C64.4668 25.5908 64.417 26.2676 64.3174 26.8359C64.2178 27.4043 64.083 27.8848 63.9131 28.2773C63.7432 28.6699 63.5469 28.9893 63.3242 29.2354C63.1016 29.4756 62.8672 29.6631 62.6211 29.7979C62.375 29.9326 62.123 30.0205 61.8652 30.0615C61.6133 30.1084 61.3701 30.1318 61.1357 30.1318ZM61.1533 28.418C61.3525 28.418 61.5195 28.3682 61.6543 28.2686C61.7949 28.1631 61.9062 27.9932 61.9883 27.7588C62.0762 27.5244 62.1377 27.2168 62.1729 26.8359C62.2139 26.4492 62.2344 25.9717 62.2344 25.4033V22.4238C62.2344 21.8555 62.2139 21.3779 62.1729 20.9912C62.1377 20.6045 62.0762 20.2939 61.9883 20.0596C61.9062 19.8193 61.7949 19.6465 61.6543 19.541C61.5195 19.4355 61.3525 19.3828 61.1533 19.3828C60.9424 19.3828 60.7637 19.4355 60.6172 19.541C60.4766 19.6465 60.3594 19.8193 60.2656 20.0596C60.1719 20.2939 60.1045 20.6045 60.0635 20.9912C60.0225 21.3779 60.002 21.8555 60.002 22.4238V25.4033C60.002 25.9717 60.0225 26.4492 60.0635 26.8359C60.1045 27.2168 60.1719 27.5244 60.2656 27.7588C60.3594 27.9932 60.4766 28.1631 60.6172 28.2686C60.7637 28.3682 60.9424 28.418 61.1533 28.418ZM65.9785 32.3291C66.3125 32.376 66.6201 32.3643 66.9014 32.2939C67.1826 32.2295 67.4229 32.1035 67.6221 31.916C67.8271 31.7285 67.9883 31.4795 68.1055 31.1689C68.2285 30.8643 68.2988 30.498 68.3164 30.0703L65.4512 17.8975H67.71L68.9844 24.5947L69.3535 26.9062H69.4238L69.6787 24.5947L70.707 17.8975H72.8955L70.3467 30.4482C70.2354 31.0283 70.0918 31.5352 69.916 31.9688C69.7461 32.4023 69.5322 32.7627 69.2744 33.0498C69.0225 33.3369 68.7207 33.5508 68.3691 33.6914C68.0176 33.8379 67.6074 33.9111 67.1387 33.9111C66.7578 33.9111 66.3682 33.8379 65.9697 33.6914L65.9785 32.3291ZM77.2461 30.1318C76.7246 30.1318 76.2617 30.0352 75.8574 29.8418C75.459 29.6484 75.1221 29.3467 74.8467 28.9365C74.5713 28.5264 74.3633 28.002 74.2227 27.3633C74.082 26.7188 74.0117 25.9453 74.0117 25.043V22.7578C74.0117 21.9902 74.0674 21.334 74.1787 20.7891C74.2959 20.2383 74.4453 19.7783 74.627 19.4092C74.8145 19.0342 75.0283 18.7383 75.2686 18.5215C75.5146 18.3047 75.7666 18.1406 76.0244 18.0293C76.2822 17.9121 76.5371 17.8389 76.7891 17.8096C77.0469 17.7744 77.2842 17.7568 77.501 17.7568C77.8994 17.7568 78.2832 17.8184 78.6523 17.9414C79.0215 18.0586 79.3467 18.2637 79.6279 18.5566C79.9092 18.8438 80.1318 19.2305 80.2959 19.7168C80.4658 20.2031 80.5508 20.8096 80.5508 21.5361C80.5508 21.7822 80.542 22.0312 80.5244 22.2832C80.5127 22.5352 80.4951 22.7842 80.4717 23.0303C80.4482 23.2705 80.416 23.5049 80.375 23.7334C80.3398 23.9619 80.3018 24.1729 80.2607 24.3662H76.2441V25.5967C76.2441 26.124 76.2646 26.5693 76.3057 26.9326C76.3467 27.29 76.4141 27.5801 76.5078 27.8027C76.6074 28.0195 76.7393 28.1777 76.9033 28.2773C77.0732 28.3711 77.2842 28.418 77.5361 28.418C77.6709 28.418 77.8027 28.3916 77.9316 28.3389C78.0605 28.2803 78.1719 28.1865 78.2656 28.0576C78.3652 27.9287 78.4443 27.7588 78.5029 27.5479C78.5615 27.3311 78.5908 27.0645 78.5908 26.748V26.3701H80.4453V26.8359C80.4453 27.9844 80.1699 28.8223 79.6191 29.3496C79.0742 29.8711 78.2832 30.1318 77.2461 30.1318ZM78.4766 22.8721C78.4824 22.8076 78.4883 22.7227 78.4941 22.6172C78.5 22.5059 78.5029 22.3916 78.5029 22.2744C78.5088 22.1572 78.5117 22.043 78.5117 21.9316C78.5117 21.8145 78.5117 21.7148 78.5117 21.6328C78.5117 20.8359 78.418 20.2617 78.2305 19.9102C78.043 19.5586 77.7646 19.3828 77.3955 19.3828C77.2021 19.3828 77.0322 19.4297 76.8857 19.5234C76.7393 19.6113 76.6191 19.7637 76.5254 19.9805C76.4316 20.1914 76.3613 20.4727 76.3145 20.8242C76.2676 21.1758 76.2441 21.6123 76.2441 22.1338V22.8721H78.4766ZM82.4316 17.8975H84.0576L84.251 19.1279C84.4971 18.6709 84.7783 18.3281 85.0947 18.0996C85.417 17.8711 85.7451 17.7568 86.0791 17.7568C86.7178 17.7568 87.1895 17.9531 87.4941 18.3457C87.7988 18.7383 87.9512 19.3271 87.9512 20.1123C87.9512 20.2119 87.9424 20.332 87.9248 20.4727C87.9131 20.6074 87.8926 20.751 87.8633 20.9033C87.8398 21.0498 87.8076 21.1992 87.7666 21.3516C87.7314 21.498 87.6934 21.6328 87.6523 21.7559H86.1055V20.6309C86.1055 20.3848 86.0879 20.1826 86.0527 20.0244C86.0234 19.8662 85.9824 19.7402 85.9297 19.6465C85.877 19.5469 85.8154 19.4795 85.7451 19.4443C85.6748 19.4033 85.5986 19.3828 85.5166 19.3828C85.3408 19.3828 85.1768 19.4414 85.0244 19.5586C84.8779 19.6699 84.7549 19.8281 84.6553 20.0332V30H82.4316V17.8975ZM23.7031 49.959C23.7031 49.6367 23.7207 49.3408 23.7559 49.0713C23.7969 48.7959 23.8555 48.5 23.9316 48.1836H25.6982V48.9131C25.6982 49.3174 25.7217 49.6748 25.7686 49.9854C25.8213 50.2959 25.9033 50.5596 26.0146 50.7764C26.1318 50.9873 26.2842 51.1484 26.4717 51.2598C26.665 51.3652 26.8994 51.418 27.1748 51.418C27.6084 51.418 27.9395 51.3008 28.168 51.0664C28.3965 50.8262 28.5107 50.4775 28.5107 50.0205C28.5107 49.7861 28.4932 49.5723 28.458 49.3789C28.4287 49.1797 28.373 48.9834 28.291 48.79C28.2148 48.5967 28.1094 48.3945 27.9746 48.1836C27.8398 47.9668 27.667 47.7266 27.4561 47.4629L25.083 44.6416C24.6611 44.1025 24.3359 43.5605 24.1074 43.0156C23.8789 42.4648 23.7646 41.8789 23.7646 41.2578C23.7646 40.7598 23.8408 40.3027 23.9932 39.8867C24.1514 39.4707 24.377 39.1133 24.6699 38.8145C24.9629 38.5098 25.3232 38.2754 25.751 38.1113C26.1846 37.9414 26.6738 37.8564 27.2188 37.8564C27.8809 37.8564 28.4316 37.9502 28.8711 38.1377C29.3164 38.3252 29.6709 38.5713 29.9346 38.876C30.1982 39.1807 30.3828 39.5234 30.4883 39.9043C30.5996 40.2793 30.6553 40.6572 30.6553 41.0381C30.6553 41.3604 30.6289 41.6592 30.5762 41.9346C30.5293 42.2041 30.4736 42.5029 30.4092 42.8311H28.6514V42.1191C28.6514 41.3223 28.5371 40.7129 28.3086 40.291C28.0801 39.8633 27.708 39.6494 27.1924 39.6494C26.7646 39.6494 26.4453 39.7695 26.2344 40.0098C26.0234 40.2441 25.918 40.5605 25.918 40.959C25.918 41.1699 25.9326 41.3604 25.9619 41.5303C25.9971 41.7002 26.0439 41.8584 26.1025 42.0049C26.167 42.1455 26.2432 42.2832 26.3311 42.418C26.4189 42.5527 26.5186 42.6934 26.6299 42.8398L29.2754 46.0391C29.7559 46.666 30.125 47.2695 30.3828 47.8496C30.6406 48.4238 30.7695 49.0332 30.7695 49.6777C30.7695 50.2109 30.6846 50.6914 30.5146 51.1191C30.3506 51.5469 30.1133 51.9102 29.8027 52.209C29.4922 52.5078 29.1172 52.7393 28.6777 52.9033C28.2383 53.0615 27.7432 53.1406 27.1924 53.1406C26.5127 53.1406 25.9473 53.0498 25.4961 52.8682C25.0508 52.6865 24.6934 52.4463 24.4238 52.1475C24.1602 51.8486 23.9727 51.5088 23.8613 51.1279C23.7559 50.7471 23.7031 50.3574 23.7031 49.959ZM35.4629 53.1318C34.9414 53.1318 34.4785 53.0352 34.0742 52.8418C33.6758 52.6484 33.3389 52.3467 33.0635 51.9365C32.7881 51.5264 32.5801 51.002 32.4395 50.3633C32.2988 49.7188 32.2285 48.9453 32.2285 48.043V45.7578C32.2285 44.9902 32.2842 44.334 32.3955 43.7891C32.5127 43.2383 32.6621 42.7783 32.8438 42.4092C33.0312 42.0342 33.2451 41.7383 33.4854 41.5215C33.7314 41.3047 33.9834 41.1406 34.2412 41.0293C34.499 40.9121 34.7539 40.8389 35.0059 40.8096C35.2637 40.7744 35.501 40.7568 35.7178 40.7568C36.1162 40.7568 36.5 40.8184 36.8691 40.9414C37.2383 41.0586 37.5635 41.2637 37.8447 41.5566C38.126 41.8438 38.3486 42.2305 38.5127 42.7168C38.6826 43.2031 38.7676 43.8096 38.7676 44.5361C38.7676 44.7822 38.7588 45.0312 38.7412 45.2832C38.7295 45.5352 38.7119 45.7842 38.6885 46.0303C38.665 46.2705 38.6328 46.5049 38.5918 46.7334C38.5566 46.9619 38.5186 47.1729 38.4775 47.3662H34.4609V48.5967C34.4609 49.124 34.4814 49.5693 34.5225 49.9326C34.5635 50.29 34.6309 50.5801 34.7246 50.8027C34.8242 51.0195 34.9561 51.1777 35.1201 51.2773C35.29 51.3711 35.501 51.418 35.7529 51.418C35.8877 51.418 36.0195 51.3916 36.1484 51.3389C36.2773 51.2803 36.3887 51.1865 36.4824 51.0576C36.582 50.9287 36.6611 50.7588 36.7197 50.5479C36.7783 50.3311 36.8076 50.0645 36.8076 49.748V49.3701H38.6621V49.8359C38.6621 50.9844 38.3867 51.8223 37.8359 52.3496C37.291 52.8711 36.5 53.1318 35.4629 53.1318ZM36.6934 45.8721C36.6992 45.8076 36.7051 45.7227 36.7109 45.6172C36.7168 45.5059 36.7197 45.3916 36.7197 45.2744C36.7256 45.1572 36.7285 45.043 36.7285 44.9316C36.7285 44.8145 36.7285 44.7148 36.7285 44.6328C36.7285 43.8359 36.6348 43.2617 36.4473 42.9102C36.2598 42.5586 35.9814 42.3828 35.6123 42.3828C35.4189 42.3828 35.249 42.4297 35.1025 42.5234C34.9561 42.6113 34.8359 42.7637 34.7422 42.9805C34.6484 43.1914 34.5781 43.4727 34.5312 43.8242C34.4844 44.1758 34.4609 44.6123 34.4609 45.1338V45.8721H36.6934ZM40.6836 37.0127H42.9072V53H40.6836V37.0127ZM45.5352 42.4795H44.4893V40.8975H45.5352V40.0273C45.5352 39.3711 45.6025 38.8379 45.7373 38.4277C45.8721 38.0117 46.0566 37.6895 46.291 37.4609C46.5312 37.2266 46.8096 37.0684 47.126 36.9863C47.4482 36.9043 47.7939 36.8633 48.1631 36.8633C48.2686 36.8633 48.3857 36.8691 48.5146 36.8809C48.6494 36.8926 48.7812 36.9131 48.9102 36.9424C49.0449 36.9658 49.1738 36.9951 49.2969 37.0303C49.4258 37.0654 49.54 37.1094 49.6396 37.1621V38.7266C49.3936 38.6621 49.1182 38.6299 48.8135 38.6299C48.667 38.6299 48.5264 38.6533 48.3916 38.7002C48.2627 38.7471 48.1484 38.8262 48.0488 38.9375C47.9492 39.043 47.8701 39.1865 47.8115 39.3682C47.7529 39.5439 47.7236 39.7637 47.7236 40.0273V40.8975H49.4023V42.4795H47.7236V53H45.5352V42.4795ZM56.293 37.9883H58.9121L61.6895 53H59.3867L58.9736 50.3105H56.2314L55.8359 53H53.5244L56.293 37.9883ZM58.71 48.5967L57.6553 41.1172H57.5586L56.4951 48.5967H58.71ZM62.5332 50.4688C62.5332 50.2051 62.5566 49.9502 62.6035 49.7041C62.6562 49.458 62.7061 49.2617 62.7529 49.1152H64.3174C64.3174 49.5547 64.3379 49.9238 64.3789 50.2227C64.4258 50.5156 64.499 50.75 64.5986 50.9258C64.6982 51.1016 64.8301 51.2275 64.9941 51.3037C65.1641 51.3799 65.3691 51.418 65.6094 51.418C65.9434 51.418 66.1865 51.3242 66.3389 51.1367C66.4912 50.9492 66.5674 50.7324 66.5674 50.4863C66.5674 50.3574 66.5498 50.2344 66.5146 50.1172C66.4795 50 66.4297 49.8828 66.3652 49.7656C66.3008 49.6426 66.2217 49.5195 66.1279 49.3965C66.0342 49.2734 65.9287 49.1387 65.8115 48.9922L64.1855 47.0762C63.9746 46.8125 63.7695 46.5459 63.5703 46.2764C63.377 46.001 63.2041 45.7197 63.0518 45.4326C62.9053 45.1396 62.7852 44.835 62.6914 44.5186C62.6035 44.2021 62.5596 43.8682 62.5596 43.5166C62.5596 43.0479 62.6387 42.6406 62.7969 42.2949C62.9609 41.9492 63.1777 41.6621 63.4473 41.4336C63.7227 41.2051 64.0391 41.0352 64.3965 40.9238C64.7539 40.8125 65.1318 40.7568 65.5303 40.7568C65.9697 40.7568 66.3652 40.8096 66.7168 40.915C67.0684 41.0205 67.3701 41.1787 67.6221 41.3896C67.874 41.6006 68.0674 41.8643 68.2021 42.1807C68.3369 42.4912 68.4043 42.8545 68.4043 43.2705C68.4043 43.5518 68.3779 43.8242 68.3252 44.0879C68.2783 44.3516 68.2314 44.5771 68.1846 44.7646H66.6465C66.6406 44.3662 66.623 44.0176 66.5938 43.7188C66.5645 43.4199 66.5088 43.1738 66.4268 42.9805C66.3506 42.7812 66.2422 42.6318 66.1016 42.5322C65.9668 42.4326 65.7881 42.3828 65.5654 42.3828C65.3721 42.3828 65.2109 42.415 65.082 42.4795C64.9531 42.5381 64.8477 42.6172 64.7656 42.7168C64.6895 42.8164 64.6338 42.9277 64.5986 43.0508C64.5693 43.1738 64.5547 43.2998 64.5547 43.4287C64.5547 43.71 64.6221 43.9707 64.7568 44.2109C64.8916 44.4512 65.0703 44.7119 65.293 44.9932L67.0684 47.0762C67.1973 47.2344 67.3467 47.4277 67.5166 47.6562C67.6865 47.8789 67.8477 48.1279 68 48.4033C68.1523 48.6729 68.2812 48.9688 68.3867 49.291C68.4922 49.6133 68.5449 49.9502 68.5449 50.3018C68.5449 50.7295 68.4775 51.1191 68.3428 51.4707C68.208 51.8164 68.0088 52.1123 67.7451 52.3584C67.4814 52.6045 67.1562 52.7949 66.7695 52.9297C66.3887 53.0645 65.9521 53.1318 65.46 53.1318C65.0557 53.1318 64.6748 53.0879 64.3174 53C63.96 52.9062 63.6494 52.7568 63.3857 52.5518C63.1221 52.3408 62.9141 52.0654 62.7617 51.7256C62.6094 51.3857 62.5332 50.9668 62.5332 50.4688ZM69.8281 50.4688C69.8281 50.2051 69.8516 49.9502 69.8984 49.7041C69.9512 49.458 70.001 49.2617 70.0479 49.1152H71.6123C71.6123 49.5547 71.6328 49.9238 71.6738 50.2227C71.7207 50.5156 71.7939 50.75 71.8936 50.9258C71.9932 51.1016 72.125 51.2275 72.2891 51.3037C72.459 51.3799 72.6641 51.418 72.9043 51.418C73.2383 51.418 73.4814 51.3242 73.6338 51.1367C73.7861 50.9492 73.8623 50.7324 73.8623 50.4863C73.8623 50.3574 73.8447 50.2344 73.8096 50.1172C73.7744 50 73.7246 49.8828 73.6602 49.7656C73.5957 49.6426 73.5166 49.5195 73.4229 49.3965C73.3291 49.2734 73.2236 49.1387 73.1064 48.9922L71.4805 47.0762C71.2695 46.8125 71.0645 46.5459 70.8652 46.2764C70.6719 46.001 70.499 45.7197 70.3467 45.4326C70.2002 45.1396 70.0801 44.835 69.9863 44.5186C69.8984 44.2021 69.8545 43.8682 69.8545 43.5166C69.8545 43.0479 69.9336 42.6406 70.0918 42.2949C70.2559 41.9492 70.4727 41.6621 70.7422 41.4336C71.0176 41.2051 71.334 41.0352 71.6914 40.9238C72.0488 40.8125 72.4268 40.7568 72.8252 40.7568C73.2646 40.7568 73.6602 40.8096 74.0117 40.915C74.3633 41.0205 74.665 41.1787 74.917 41.3896C75.1689 41.6006 75.3623 41.8643 75.4971 42.1807C75.6318 42.4912 75.6992 42.8545 75.6992 43.2705C75.6992 43.5518 75.6729 43.8242 75.6201 44.0879C75.5732 44.3516 75.5264 44.5771 75.4795 44.7646H73.9414C73.9355 44.3662 73.918 44.0176 73.8887 43.7188C73.8594 43.4199 73.8037 43.1738 73.7217 42.9805C73.6455 42.7812 73.5371 42.6318 73.3965 42.5322C73.2617 42.4326 73.083 42.3828 72.8604 42.3828C72.667 42.3828 72.5059 42.415 72.377 42.4795C72.248 42.5381 72.1426 42.6172 72.0605 42.7168C71.9844 42.8164 71.9287 42.9277 71.8936 43.0508C71.8643 43.1738 71.8496 43.2998 71.8496 43.4287C71.8496 43.71 71.917 43.9707 72.0518 44.2109C72.1865 44.4512 72.3652 44.7119 72.5879 44.9932L74.3633 47.0762C74.4922 47.2344 74.6416 47.4277 74.8115 47.6562C74.9814 47.8789 75.1426 48.1279 75.2949 48.4033C75.4473 48.6729 75.5762 48.9688 75.6816 49.291C75.7871 49.6133 75.8398 49.9502 75.8398 50.3018C75.8398 50.7295 75.7725 51.1191 75.6377 51.4707C75.5029 51.8164 75.3037 52.1123 75.04 52.3584C74.7764 52.6045 74.4512 52.7949 74.0645 52.9297C73.6836 53.0645 73.2471 53.1318 72.7549 53.1318C72.3506 53.1318 71.9697 53.0879 71.6123 53C71.2549 52.9062 70.9443 52.7568 70.6807 52.5518C70.417 52.3408 70.209 52.0654 70.0566 51.7256C69.9043 51.3857 69.8281 50.9668 69.8281 50.4688ZM80.5156 53.1318C79.9941 53.1318 79.5312 53.0352 79.127 52.8418C78.7285 52.6484 78.3916 52.3467 78.1162 51.9365C77.8408 51.5264 77.6328 51.002 77.4922 50.3633C77.3516 49.7188 77.2812 48.9453 77.2812 48.043V45.7578C77.2812 44.9902 77.3369 44.334 77.4482 43.7891C77.5654 43.2383 77.7148 42.7783 77.8965 42.4092C78.084 42.0342 78.2979 41.7383 78.5381 41.5215C78.7842 41.3047 79.0361 41.1406 79.2939 41.0293C79.5518 40.9121 79.8066 40.8389 80.0586 40.8096C80.3164 40.7744 80.5537 40.7568 80.7705 40.7568C81.1689 40.7568 81.5527 40.8184 81.9219 40.9414C82.291 41.0586 82.6162 41.2637 82.8975 41.5566C83.1787 41.8438 83.4014 42.2305 83.5654 42.7168C83.7354 43.2031 83.8203 43.8096 83.8203 44.5361C83.8203 44.7822 83.8115 45.0312 83.7939 45.2832C83.7822 45.5352 83.7646 45.7842 83.7412 46.0303C83.7178 46.2705 83.6855 46.5049 83.6445 46.7334C83.6094 46.9619 83.5713 47.1729 83.5303 47.3662H79.5137V48.5967C79.5137 49.124 79.5342 49.5693 79.5752 49.9326C79.6162 50.29 79.6836 50.5801 79.7773 50.8027C79.877 51.0195 80.0088 51.1777 80.1729 51.2773C80.3428 51.3711 80.5537 51.418 80.8057 51.418C80.9404 51.418 81.0723 51.3916 81.2012 51.3389C81.3301 51.2803 81.4414 51.1865 81.5352 51.0576C81.6348 50.9287 81.7139 50.7588 81.7725 50.5479C81.8311 50.3311 81.8604 50.0645 81.8604 49.748V49.3701H83.7148V49.8359C83.7148 50.9844 83.4395 51.8223 82.8887 52.3496C82.3438 52.8711 81.5527 53.1318 80.5156 53.1318ZM81.7461 45.8721C81.752 45.8076 81.7578 45.7227 81.7637 45.6172C81.7695 45.5059 81.7725 45.3916 81.7725 45.2744C81.7783 45.1572 81.7812 45.043 81.7812 44.9316C81.7812 44.8145 81.7812 44.7148 81.7812 44.6328C81.7812 43.8359 81.6875 43.2617 81.5 42.9102C81.3125 42.5586 81.0342 42.3828 80.665 42.3828C80.4717 42.3828 80.3018 42.4297 80.1553 42.5234C80.0088 42.6113 79.8887 42.7637 79.7949 42.9805C79.7012 43.1914 79.6309 43.4727 79.584 43.8242C79.5371 44.1758 79.5137 44.6123 79.5137 45.1338V45.8721H81.7461ZM85.2266 50.4688C85.2266 50.2051 85.25 49.9502 85.2969 49.7041C85.3496 49.458 85.3994 49.2617 85.4463 49.1152H87.0107C87.0107 49.5547 87.0312 49.9238 87.0723 50.2227C87.1191 50.5156 87.1924 50.75 87.292 50.9258C87.3916 51.1016 87.5234 51.2275 87.6875 51.3037C87.8574 51.3799 88.0625 51.418 88.3027 51.418C88.6367 51.418 88.8799 51.3242 89.0322 51.1367C89.1846 50.9492 89.2607 50.7324 89.2607 50.4863C89.2607 50.3574 89.2432 50.2344 89.208 50.1172C89.1729 50 89.123 49.8828 89.0586 49.7656C88.9941 49.6426 88.915 49.5195 88.8213 49.3965C88.7275 49.2734 88.6221 49.1387 88.5049 48.9922L86.8789 47.0762C86.668 46.8125 86.4629 46.5459 86.2637 46.2764C86.0703 46.001 85.8975 45.7197 85.7451 45.4326C85.5986 45.1396 85.4785 44.835 85.3848 44.5186C85.2969 44.2021 85.2529 43.8682 85.2529 43.5166C85.2529 43.0479 85.332 42.6406 85.4902 42.2949C85.6543 41.9492 85.8711 41.6621 86.1406 41.4336C86.416 41.2051 86.7324 41.0352 87.0898 40.9238C87.4473 40.8125 87.8252 40.7568 88.2236 40.7568C88.6631 40.7568 89.0586 40.8096 89.4102 40.915C89.7617 41.0205 90.0635 41.1787 90.3154 41.3896C90.5674 41.6006 90.7607 41.8643 90.8955 42.1807C91.0303 42.4912 91.0977 42.8545 91.0977 43.2705C91.0977 43.5518 91.0713 43.8242 91.0186 44.0879C90.9717 44.3516 90.9248 44.5771 90.8779 44.7646H89.3398C89.334 44.3662 89.3164 44.0176 89.2871 43.7188C89.2578 43.4199 89.2021 43.1738 89.1201 42.9805C89.0439 42.7812 88.9355 42.6318 88.7949 42.5322C88.6602 42.4326 88.4814 42.3828 88.2588 42.3828C88.0654 42.3828 87.9043 42.415 87.7754 42.4795C87.6465 42.5381 87.541 42.6172 87.459 42.7168C87.3828 42.8164 87.3271 42.9277 87.292 43.0508C87.2627 43.1738 87.248 43.2998 87.248 43.4287C87.248 43.71 87.3154 43.9707 87.4502 44.2109C87.585 44.4512 87.7637 44.7119 87.9863 44.9932L89.7617 47.0762C89.8906 47.2344 90.04 47.4277 90.21 47.6562C90.3799 47.8789 90.541 48.1279 90.6934 48.4033C90.8457 48.6729 90.9746 48.9688 91.0801 49.291C91.1855 49.6133 91.2383 49.9502 91.2383 50.3018C91.2383 50.7295 91.1709 51.1191 91.0361 51.4707C90.9014 51.8164 90.7021 52.1123 90.4385 52.3584C90.1748 52.6045 89.8496 52.7949 89.4629 52.9297C89.082 53.0645 88.6455 53.1318 88.1533 53.1318C87.749 53.1318 87.3682 53.0879 87.0107 53C86.6533 52.9062 86.3428 52.7568 86.0791 52.5518C85.8154 52.3408 85.6074 52.0654 85.4551 51.7256C85.3027 51.3857 85.2266 50.9668 85.2266 50.4688ZM92.5215 50.4688C92.5215 50.2051 92.5449 49.9502 92.5918 49.7041C92.6445 49.458 92.6943 49.2617 92.7412 49.1152H94.3057C94.3057 49.5547 94.3262 49.9238 94.3672 50.2227C94.4141 50.5156 94.4873 50.75 94.5869 50.9258C94.6865 51.1016 94.8184 51.2275 94.9824 51.3037C95.1523 51.3799 95.3574 51.418 95.5977 51.418C95.9316 51.418 96.1748 51.3242 96.3271 51.1367C96.4795 50.9492 96.5557 50.7324 96.5557 50.4863C96.5557 50.3574 96.5381 50.2344 96.5029 50.1172C96.4678 50 96.418 49.8828 96.3535 49.7656C96.2891 49.6426 96.21 49.5195 96.1162 49.3965C96.0225 49.2734 95.917 49.1387 95.7998 48.9922L94.1738 47.0762C93.9629 46.8125 93.7578 46.5459 93.5586 46.2764C93.3652 46.001 93.1924 45.7197 93.04 45.4326C92.8936 45.1396 92.7734 44.835 92.6797 44.5186C92.5918 44.2021 92.5479 43.8682 92.5479 43.5166C92.5479 43.0479 92.627 42.6406 92.7852 42.2949C92.9492 41.9492 93.166 41.6621 93.4355 41.4336C93.7109 41.2051 94.0273 41.0352 94.3848 40.9238C94.7422 40.8125 95.1201 40.7568 95.5186 40.7568C95.958 40.7568 96.3535 40.8096 96.7051 40.915C97.0566 41.0205 97.3584 41.1787 97.6104 41.3896C97.8623 41.6006 98.0557 41.8643 98.1904 42.1807C98.3252 42.4912 98.3926 42.8545 98.3926 43.2705C98.3926 43.5518 98.3662 43.8242 98.3135 44.0879C98.2666 44.3516 98.2197 44.5771 98.1729 44.7646H96.6348C96.6289 44.3662 96.6113 44.0176 96.582 43.7188C96.5527 43.4199 96.4971 43.1738 96.415 42.9805C96.3389 42.7812 96.2305 42.6318 96.0898 42.5322C95.9551 42.4326 95.7764 42.3828 95.5537 42.3828C95.3604 42.3828 95.1992 42.415 95.0703 42.4795C94.9414 42.5381 94.8359 42.6172 94.7539 42.7168C94.6777 42.8164 94.6221 42.9277 94.5869 43.0508C94.5576 43.1738 94.543 43.2998 94.543 43.4287C94.543 43.71 94.6104 43.9707 94.7451 44.2109C94.8799 44.4512 95.0586 44.7119 95.2812 44.9932L97.0566 47.0762C97.1855 47.2344 97.335 47.4277 97.5049 47.6562C97.6748 47.8789 97.8359 48.1279 97.9883 48.4033C98.1406 48.6729 98.2695 48.9688 98.375 49.291C98.4805 49.6133 98.5332 49.9502 98.5332 50.3018C98.5332 50.7295 98.4658 51.1191 98.3311 51.4707C98.1963 51.8164 97.9971 52.1123 97.7334 52.3584C97.4697 52.6045 97.1445 52.7949 96.7578 52.9297C96.377 53.0645 95.9404 53.1318 95.4482 53.1318C95.0439 53.1318 94.6631 53.0879 94.3057 53C93.9482 52.9062 93.6377 52.7568 93.374 52.5518C93.1104 52.3408 92.9023 52.0654 92.75 51.7256C92.5977 51.3857 92.5215 50.9668 92.5215 50.4688ZM100.291 40.8975H102.014L102.207 42.1895V42.1982C102.383 41.9229 102.57 41.6943 102.77 41.5127C102.969 41.3252 103.174 41.1758 103.385 41.0645C103.602 40.9531 103.821 40.874 104.044 40.8271C104.272 40.7803 104.498 40.7568 104.721 40.7568C105.195 40.7568 105.597 40.8711 105.925 41.0996C106.253 41.3281 106.502 41.6709 106.672 42.1279C106.848 41.8643 107.032 41.6445 107.226 41.4688C107.425 41.293 107.63 41.1523 107.841 41.0469C108.052 40.9414 108.266 40.8682 108.482 40.8271C108.699 40.7803 108.919 40.7568 109.142 40.7568C109.845 40.7568 110.387 41.0059 110.768 41.5039C111.154 41.9961 111.348 42.7373 111.348 43.7275V53H109.124V43.8066C109.124 43.543 109.104 43.3203 109.062 43.1387C109.021 42.957 108.96 42.8105 108.878 42.6992C108.796 42.5879 108.69 42.5088 108.562 42.4619C108.433 42.4092 108.277 42.3828 108.096 42.3828C107.891 42.3828 107.686 42.459 107.48 42.6113C107.275 42.7578 107.088 42.9629 106.918 43.2266C106.924 43.2793 106.927 43.332 106.927 43.3848C106.927 43.4375 106.927 43.4902 106.927 43.543V53H104.703V43.8066C104.703 43.543 104.683 43.3203 104.642 43.1387C104.601 42.957 104.539 42.8105 104.457 42.6992C104.375 42.5879 104.27 42.5088 104.141 42.4619C104.012 42.4092 103.856 42.3828 103.675 42.3828C103.476 42.3828 103.273 42.4561 103.068 42.6025C102.863 42.749 102.679 42.9512 102.515 43.209V53H100.291V40.8975ZM116.568 53.1318C116.047 53.1318 115.584 53.0352 115.18 52.8418C114.781 52.6484 114.444 52.3467 114.169 51.9365C113.894 51.5264 113.686 51.002 113.545 50.3633C113.404 49.7188 113.334 48.9453 113.334 48.043V45.7578C113.334 44.9902 113.39 44.334 113.501 43.7891C113.618 43.2383 113.768 42.7783 113.949 42.4092C114.137 42.0342 114.351 41.7383 114.591 41.5215C114.837 41.3047 115.089 41.1406 115.347 41.0293C115.604 40.9121 115.859 40.8389 116.111 40.8096C116.369 40.7744 116.606 40.7568 116.823 40.7568C117.222 40.7568 117.605 40.8184 117.975 40.9414C118.344 41.0586 118.669 41.2637 118.95 41.5566C119.231 41.8438 119.454 42.2305 119.618 42.7168C119.788 43.2031 119.873 43.8096 119.873 44.5361C119.873 44.7822 119.864 45.0312 119.847 45.2832C119.835 45.5352 119.817 45.7842 119.794 46.0303C119.771 46.2705 119.738 46.5049 119.697 46.7334C119.662 46.9619 119.624 47.1729 119.583 47.3662H115.566V48.5967C115.566 49.124 115.587 49.5693 115.628 49.9326C115.669 50.29 115.736 50.5801 115.83 50.8027C115.93 51.0195 116.062 51.1777 116.226 51.2773C116.396 51.3711 116.606 51.418 116.858 51.418C116.993 51.418 117.125 51.3916 117.254 51.3389C117.383 51.2803 117.494 51.1865 117.588 51.0576C117.688 50.9287 117.767 50.7588 117.825 50.5479C117.884 50.3311 117.913 50.0645 117.913 49.748V49.3701H119.768V49.8359C119.768 50.9844 119.492 51.8223 118.941 52.3496C118.396 52.8711 117.605 53.1318 116.568 53.1318ZM117.799 45.8721C117.805 45.8076 117.811 45.7227 117.816 45.6172C117.822 45.5059 117.825 45.3916 117.825 45.2744C117.831 45.1572 117.834 45.043 117.834 44.9316C117.834 44.8145 117.834 44.7148 117.834 44.6328C117.834 43.8359 117.74 43.2617 117.553 42.9102C117.365 42.5586 117.087 42.3828 116.718 42.3828C116.524 42.3828 116.354 42.4297 116.208 42.5234C116.062 42.6113 115.941 42.7637 115.848 42.9805C115.754 43.1914 115.684 43.4727 115.637 43.8242C115.59 44.1758 115.566 44.6123 115.566 45.1338V45.8721H117.799ZM121.754 40.8975H123.468L123.67 42.1895V42.1982C123.846 41.9229 124.033 41.6943 124.232 41.5127C124.438 41.3252 124.648 41.1758 124.865 41.0645C125.082 40.9531 125.302 40.874 125.524 40.8271C125.753 40.7803 125.979 40.7568 126.201 40.7568C126.91 40.7568 127.455 41.0059 127.836 41.5039C128.223 41.9961 128.416 42.7373 128.416 43.7275V53H126.192V43.8066C126.192 43.2734 126.11 42.9043 125.946 42.6992C125.782 42.4883 125.542 42.3828 125.226 42.3828C125.003 42.3828 124.78 42.4561 124.558 42.6025C124.341 42.749 124.147 42.9512 123.978 43.209V53H121.754V40.8975ZM130.974 42.4795H130.033V40.8975H131.167L131.615 37.7598H133.197V40.8975H135.131V42.4795H133.197V50.1787C133.197 50.4424 133.221 50.6562 133.268 50.8203C133.32 50.9785 133.391 51.1045 133.479 51.1982C133.566 51.2861 133.669 51.3447 133.786 51.374C133.903 51.4033 134.026 51.418 134.155 51.418C134.372 51.418 134.562 51.3916 134.727 51.3389C134.896 51.2861 135.058 51.2129 135.21 51.1191V52.3496C135.081 52.5078 134.94 52.6367 134.788 52.7363C134.642 52.8359 134.489 52.918 134.331 52.9824C134.173 53.041 134.012 53.082 133.848 53.1055C133.684 53.1289 133.522 53.1406 133.364 53.1406C133.054 53.1406 132.755 53.0996 132.468 53.0176C132.181 52.9355 131.926 52.7803 131.703 52.5518C131.48 52.3174 131.302 51.9951 131.167 51.585C131.038 51.1748 130.974 50.6416 130.974 49.9854V42.4795Z" fill="#CC3E16"/>
<path d="M204 34.9065C203.985 34.5165 203.824 34.0658 203.557 33.7815L194.83 24.508C194.238 23.9766 193.104 23.7572 192.443 24.3717C191.792 24.9769 191.812 26.1506 192.46 26.7582L198.597 33.2701H172.636C171.733 33.2701 171 34.0028 171 34.9065C171 35.8103 171.733 36.543 172.636 36.543H198.597L192.46 43.0549C191.902 43.6143 191.799 44.8293 192.443 45.4415C193.088 46.0535 194.263 45.858 194.83 45.3051L203.557 36.0316C203.856 35.7143 204.001 35.3419 204 34.9065Z" fill="#CC3E16"/>
</svg>
