<svg width="1022" height="106" viewBox="0 0 1022 106" fill="none" xmlns="http://www.w3.org/2000/svg">
<rect y="50" width="200" height="10" fill="#155777" fill-opacity="0.47"/>
<rect x="822" y="48" width="200" height="10" fill="#155777" fill-opacity="0.47"/>
<path d="M362 0H368.757C369.527 0 370.368 0.0325015 371.282 0.0975043C372.212 0.162507 373.134 0.325015 374.048 0.585026C374.978 0.828787 375.867 1.20255 376.717 1.70633C377.583 2.2101 378.344 2.90075 379.001 3.77829C379.675 4.65583 380.212 5.76088 380.613 7.09344C381.013 8.40975 381.214 10.0104 381.214 11.8955V12.9437C381.214 16.1126 380.765 18.6965 379.867 20.6953C378.969 22.6779 377.647 24.108 375.899 24.9855L382.488 41.6344H375.899L370.441 26.058H368.108V41.6344H362V0ZM369.046 21.4997C370.136 21.4997 371.058 21.3778 371.811 21.1341C372.565 20.8903 373.174 20.484 373.639 19.9153C374.104 19.3302 374.44 18.5665 374.649 17.6239C374.857 16.6651 374.961 15.4869 374.961 14.0894V10.7986C374.961 9.72606 374.865 8.79977 374.673 8.01973C374.481 7.2397 374.152 6.59779 373.687 6.09402C373.238 5.59025 372.637 5.21648 371.883 4.97272C371.13 4.72896 370.184 4.60708 369.046 4.60708H368.108V21.4997H369.046Z" fill="black"/>
<path d="M394.801 42C393.374 42 392.107 41.7319 391.001 41.1956C389.911 40.6593 388.989 39.8224 388.236 38.6848C387.482 37.5473 386.913 36.0929 386.528 34.3215C386.143 32.534 385.951 30.3889 385.951 27.8862V21.5485C385.951 19.4196 386.103 17.5995 386.408 16.0882C386.729 14.5606 387.137 13.285 387.634 12.2612C388.147 11.2211 388.733 10.4005 389.39 9.79919C390.063 9.19791 390.753 8.74289 391.458 8.43413C392.163 8.10911 392.861 7.90598 393.55 7.82472C394.255 7.72722 394.905 7.67847 395.498 7.67847C396.588 7.67847 397.638 7.8491 398.648 8.19037C399.658 8.51538 400.548 9.08416 401.317 9.89669C402.087 10.693 402.696 11.7655 403.145 13.1143C403.61 14.4631 403.842 16.1451 403.842 18.1602C403.842 18.8427 403.818 19.5334 403.77 20.2322C403.738 20.9309 403.69 21.6216 403.626 22.3041C403.562 22.9704 403.474 23.6204 403.361 24.2542C403.265 24.888 403.161 25.473 403.049 26.0093H392.059V29.4219C392.059 30.8845 392.115 32.1196 392.227 33.1271C392.34 34.1184 392.524 34.9228 392.781 35.5403C393.053 36.1416 393.414 36.5804 393.863 36.8566C394.328 37.1167 394.905 37.2467 395.594 37.2467C395.963 37.2467 396.324 37.1735 396.676 37.0273C397.029 36.8648 397.334 36.6048 397.59 36.2472C397.863 35.8897 398.079 35.4185 398.239 34.8334C398.4 34.2322 398.48 33.4927 398.48 32.6152V31.567H403.554V32.859C403.554 36.0441 402.8 38.368 401.293 39.8305C399.802 41.2768 397.638 42 394.801 42ZM398.167 21.8654C398.183 21.6866 398.199 21.451 398.215 21.1584C398.231 20.8497 398.239 20.5328 398.239 20.2078C398.255 19.8828 398.263 19.5659 398.263 19.2571C398.263 18.9321 398.263 18.6558 398.263 18.4283C398.263 16.2182 398.007 14.6257 397.494 13.6506C396.981 12.6756 396.219 12.188 395.209 12.188C394.68 12.188 394.215 12.318 393.815 12.5781C393.414 12.8218 393.085 13.2443 392.829 13.8456C392.572 14.4306 392.38 15.2107 392.252 16.1857C392.123 17.1608 392.059 18.3714 392.059 19.8178V21.8654H398.167Z" fill="black"/>
<path d="M413.557 42C412.531 42 411.618 41.7969 410.816 41.3906C410.03 40.9681 409.365 40.3993 408.82 39.6843C408.275 38.9692 407.858 38.1242 407.57 37.1492C407.297 36.1579 407.161 35.0853 407.161 33.9315C407.161 32.5502 407.329 31.3233 407.666 30.2507C408.002 29.1782 408.491 28.2113 409.133 27.35C409.79 26.4887 410.6 25.7086 411.562 25.0099C412.523 24.2948 413.638 23.6204 414.904 22.9867C415.513 22.6779 416.195 22.3691 416.948 22.0604C417.718 21.7353 418.399 21.4591 418.992 21.2316V16.7951C418.992 16.1451 418.968 15.5438 418.92 14.9913C418.872 14.4225 418.752 13.935 418.559 13.5287C418.383 13.1062 418.11 12.7812 417.742 12.5537C417.373 12.3099 416.868 12.188 416.227 12.188C415.794 12.188 415.369 12.2693 414.952 12.4318C414.551 12.5943 414.191 12.8706 413.87 13.2606C413.565 13.6506 413.317 14.1706 413.125 14.8207C412.948 15.4707 412.86 16.2751 412.86 17.2339V18.6965H408.219C408.075 18.0627 407.962 17.4858 407.882 16.9658C407.818 16.4295 407.786 15.9013 407.786 15.3813C407.786 14.13 407.994 13.025 408.411 12.0662C408.844 11.1074 409.437 10.303 410.191 9.65293C410.96 9.0029 411.874 8.51538 412.932 8.19037C413.99 7.8491 415.153 7.67847 416.419 7.67847C418.07 7.67847 419.441 7.86535 420.531 8.23912C421.621 8.59663 422.487 9.14103 423.128 9.87232C423.786 10.6036 424.242 11.5218 424.499 12.6268C424.771 13.7319 424.908 15.0238 424.908 16.5026V41.6344H420.387L419.954 38.758C419.297 39.7168 418.415 40.4968 417.309 41.0981C416.219 41.6994 414.968 42 413.557 42ZM416.251 37.2467C416.764 37.2467 417.261 37.1167 417.742 36.8566C418.239 36.5804 418.655 36.2472 418.992 35.8572V25.3511C418.671 25.4811 418.311 25.6355 417.91 25.8143C417.509 25.993 417.076 26.2287 416.611 26.5212C416.179 26.7974 415.754 27.1306 415.337 27.5206C414.92 27.9106 414.543 28.3738 414.207 28.91C413.886 29.4463 413.622 30.0557 413.413 30.7382C413.221 31.4045 413.125 32.1521 413.125 32.9808C413.125 34.2647 413.373 35.2966 413.87 36.0766C414.367 36.8566 415.161 37.2467 416.251 37.2467Z" fill="black"/>
<path d="M429.91 34.614C429.91 33.8828 429.974 33.1759 430.102 32.4933C430.246 31.8108 430.383 31.2664 430.511 30.8601H434.791C434.791 32.0789 434.847 33.1027 434.96 33.9315C435.088 34.744 435.288 35.3941 435.561 35.8816C435.833 36.3691 436.194 36.7185 436.643 36.9298C437.108 37.141 437.669 37.2467 438.326 37.2467C439.24 37.2467 439.905 36.9866 440.322 36.4666C440.739 35.9466 440.947 35.3453 440.947 34.6628C440.947 34.3053 440.899 33.964 440.803 33.639C440.707 33.314 440.571 32.989 440.394 32.664C440.218 32.3227 440.001 31.9814 439.745 31.6402C439.488 31.2989 439.2 30.9251 438.879 30.5189L434.43 25.2049C433.853 24.4736 433.292 23.7342 432.747 22.9867C432.218 22.2229 431.745 21.4428 431.328 20.6465C430.928 19.834 430.599 18.989 430.342 18.1114C430.102 17.2339 429.982 16.3076 429.982 15.3326C429.982 14.0325 430.198 12.9031 430.631 11.9443C431.08 10.9855 431.673 10.1892 432.411 9.55543C433.164 8.92165 434.03 8.45038 435.008 8.14161C435.986 7.83285 437.02 7.67847 438.11 7.67847C439.312 7.67847 440.394 7.82472 441.356 8.11724C442.318 8.40975 443.144 8.84852 443.833 9.43355C444.522 10.0186 445.051 10.7499 445.42 11.6274C445.789 12.4887 445.973 13.4962 445.973 14.65C445.973 15.4301 445.901 16.1857 445.757 16.917C445.629 17.6483 445.5 18.2739 445.372 18.794H441.164C441.148 17.6889 441.1 16.722 441.019 15.8932C440.939 15.0644 440.787 14.3819 440.563 13.8456C440.354 13.2931 440.058 12.8787 439.673 12.6024C439.304 12.3262 438.815 12.188 438.206 12.188C437.677 12.188 437.236 12.2774 436.883 12.4562C436.531 12.6187 436.242 12.8381 436.018 13.1143C435.809 13.3906 435.657 13.6994 435.561 14.0406C435.481 14.3819 435.44 14.7313 435.44 15.0888C435.44 15.8688 435.625 16.592 435.994 17.2583C436.362 17.9245 436.851 18.6477 437.46 19.4277L442.318 25.2049C442.671 25.6436 443.08 26.1799 443.544 26.8137C444.009 27.4312 444.45 28.1219 444.867 28.8857C445.284 29.6332 445.637 30.4539 445.925 31.3476C446.214 32.2414 446.358 33.1759 446.358 34.1509C446.358 35.3372 446.174 36.4179 445.805 37.3929C445.436 38.3517 444.891 39.1724 444.17 39.8549C443.448 40.5374 442.558 41.0656 441.5 41.4394C440.458 41.8131 439.264 42 437.917 42C436.811 42 435.769 41.8781 434.791 41.6344C433.813 41.3743 432.964 40.96 432.242 40.3912C431.521 39.8062 430.952 39.0424 430.535 38.0998C430.118 37.1573 429.91 35.9954 429.91 34.614Z" fill="black"/>
<path d="M459.512 42C458.806 42 458.085 41.9431 457.348 41.8294C456.626 41.7156 455.921 41.48 455.231 41.1225C454.558 40.7649 453.917 40.253 453.308 39.5868C452.714 38.9205 452.193 38.0429 451.745 36.9541C451.296 35.8653 450.943 34.5247 450.686 32.9321C450.43 31.3395 450.302 29.4382 450.302 27.2281V21.9629C450.302 19.7853 450.43 17.9245 450.686 16.3807C450.959 14.8207 451.32 13.5125 451.769 12.4562C452.234 11.3999 452.771 10.563 453.38 9.94544C453.989 9.31167 454.63 8.83227 455.304 8.50725C455.993 8.16599 456.698 7.9466 457.42 7.8491C458.141 7.73534 458.847 7.67847 459.536 7.67847C460.193 7.67847 460.875 7.72722 461.58 7.82472C462.285 7.92223 462.975 8.13349 463.648 8.4585C464.321 8.76727 464.955 9.23854 465.548 9.87232C466.157 10.4898 466.686 11.3268 467.135 12.3831C467.6 13.4393 467.96 14.7557 468.217 16.332C468.489 17.892 468.626 19.769 468.626 21.9629V27.2281C468.626 29.4057 468.489 31.2826 468.217 32.859C467.944 34.4353 467.576 35.7678 467.111 36.8566C466.646 37.9454 466.109 38.8311 465.5 39.5136C464.89 40.1799 464.249 40.6999 463.576 41.0737C462.903 41.4475 462.213 41.6912 461.508 41.805C460.818 41.935 460.153 42 459.512 42ZM459.56 37.2467C460.105 37.2467 460.562 37.1085 460.931 36.8323C461.315 36.5398 461.62 36.0685 461.844 35.4185C462.085 34.7684 462.253 33.9153 462.349 32.859C462.462 31.7864 462.518 30.462 462.518 28.8857V20.6222C462.518 19.0458 462.462 17.7214 462.349 16.6489C462.253 15.5763 462.085 14.715 461.844 14.065C461.62 13.3987 461.315 12.9193 460.931 12.6268C460.562 12.3343 460.105 12.188 459.56 12.188C458.983 12.188 458.494 12.3343 458.093 12.6268C457.708 12.9193 457.388 13.3987 457.131 14.065C456.875 14.715 456.69 15.5763 456.578 16.6489C456.466 17.7214 456.41 19.0458 456.41 20.6222V28.8857C456.41 30.462 456.466 31.7864 456.578 32.859C456.69 33.9153 456.875 34.7684 457.131 35.4185C457.388 36.0685 457.708 36.5398 458.093 36.8323C458.494 37.1085 458.983 37.2467 459.56 37.2467Z" fill="black"/>
<path d="M474.012 8.06849H478.702L479.255 11.6518V11.6761C479.736 10.9124 480.249 10.2786 480.794 9.77481C481.355 9.25479 481.932 8.84039 482.525 8.53163C483.118 8.22287 483.719 8.00348 484.329 7.87348C484.954 7.74347 485.571 7.67847 486.18 7.67847C488.12 7.67847 489.611 8.36912 490.653 9.75043C491.711 11.1155 492.24 13.1712 492.24 15.9176V41.6344H486.156V16.137C486.156 14.6582 485.932 13.6344 485.483 13.0656C485.034 12.4806 484.377 12.188 483.511 12.188C482.902 12.188 482.293 12.3912 481.683 12.7974C481.09 13.2037 480.561 13.7644 480.096 14.4794V41.6344H474.012V8.06849Z" fill="black"/>
<path d="M497.242 34.614C497.242 33.8828 497.306 33.1759 497.434 32.4933C497.579 31.8108 497.715 31.2664 497.843 30.8601H502.124C502.124 32.0789 502.18 33.1027 502.292 33.9315C502.42 34.744 502.621 35.3941 502.893 35.8816C503.166 36.3691 503.526 36.7185 503.975 36.9298C504.44 37.141 505.001 37.2467 505.659 37.2467C506.572 37.2467 507.238 36.9866 507.655 36.4666C508.071 35.9466 508.28 35.3453 508.28 34.6628C508.28 34.3053 508.232 33.964 508.135 33.639C508.039 33.314 507.903 32.989 507.727 32.664C507.55 32.3227 507.334 31.9814 507.077 31.6402C506.821 31.2989 506.532 30.9251 506.212 30.5189L501.763 25.2049C501.186 24.4736 500.625 23.7342 500.08 22.9867C499.551 22.2229 499.078 21.4428 498.661 20.6465C498.26 19.834 497.931 18.989 497.675 18.1114C497.434 17.2339 497.314 16.3076 497.314 15.3326C497.314 14.0325 497.531 12.9031 497.963 11.9443C498.412 10.9855 499.006 10.1892 499.743 9.55543C500.496 8.92165 501.362 8.45038 502.34 8.14161C503.318 7.83285 504.352 7.67847 505.442 7.67847C506.645 7.67847 507.727 7.82472 508.689 8.11724C509.65 8.40975 510.476 8.84852 511.165 9.43355C511.855 10.0186 512.384 10.7499 512.753 11.6274C513.121 12.4887 513.306 13.4962 513.306 14.65C513.306 15.4301 513.234 16.1857 513.089 16.917C512.961 17.6483 512.833 18.2739 512.704 18.794H508.496C508.48 17.6889 508.432 16.722 508.352 15.8932C508.272 15.0644 508.119 14.3819 507.895 13.8456C507.687 13.2931 507.39 12.8787 507.005 12.6024C506.637 12.3262 506.148 12.188 505.538 12.188C505.009 12.188 504.568 12.2774 504.216 12.4562C503.863 12.6187 503.575 12.8381 503.35 13.1143C503.142 13.3906 502.989 13.6994 502.893 14.0406C502.813 14.3819 502.773 14.7313 502.773 15.0888C502.773 15.8688 502.957 16.592 503.326 17.2583C503.695 17.9245 504.184 18.6477 504.793 19.4277L509.65 25.2049C510.003 25.6436 510.412 26.1799 510.877 26.8137C511.342 27.4312 511.783 28.1219 512.199 28.8857C512.616 29.6332 512.969 30.4539 513.258 31.3476C513.546 32.2414 513.69 33.1759 513.69 34.1509C513.69 35.3372 513.506 36.4179 513.137 37.3929C512.769 38.3517 512.224 39.1724 511.502 39.8549C510.781 40.5374 509.891 41.0656 508.833 41.4394C507.791 41.8131 506.596 42 505.25 42C504.144 42 503.102 41.8781 502.124 41.6344C501.146 41.3743 500.296 40.96 499.575 40.3912C498.853 39.8062 498.284 39.0424 497.867 38.0998C497.45 37.1573 497.242 35.9954 497.242 34.614Z" fill="black"/>
<path d="M533.217 4.97272H526.604V0H546.034V4.97272H539.445V41.6344H533.217V4.97272Z" fill="black"/>
<path d="M558.202 42C557.497 42 556.775 41.9431 556.038 41.8294C555.316 41.7156 554.611 41.48 553.922 41.1225C553.248 40.7649 552.607 40.253 551.998 39.5868C551.405 38.9205 550.884 38.0429 550.435 36.9541C549.986 35.8653 549.633 34.5247 549.377 32.9321C549.12 31.3395 548.992 29.4382 548.992 27.2281V21.9629C548.992 19.7853 549.12 17.9245 549.377 16.3807C549.649 14.8207 550.01 13.5125 550.459 12.4562C550.924 11.3999 551.461 10.563 552.07 9.94544C552.679 9.31167 553.32 8.83227 553.994 8.50725C554.683 8.16599 555.388 7.9466 556.11 7.8491C556.831 7.73534 557.537 7.67847 558.226 7.67847C558.883 7.67847 559.565 7.72722 560.27 7.82472C560.975 7.92223 561.665 8.13349 562.338 8.4585C563.011 8.76727 563.645 9.23854 564.238 9.87232C564.847 10.4898 565.376 11.3268 565.825 12.3831C566.29 13.4393 566.651 14.7557 566.907 16.332C567.18 17.892 567.316 19.769 567.316 21.9629V27.2281C567.316 29.4057 567.18 31.2826 566.907 32.859C566.635 34.4353 566.266 35.7678 565.801 36.8566C565.336 37.9454 564.799 38.8311 564.19 39.5136C563.581 40.1799 562.939 40.6999 562.266 41.0737C561.593 41.4475 560.903 41.6912 560.198 41.805C559.509 41.935 558.843 42 558.202 42ZM558.25 37.2467C558.795 37.2467 559.252 37.1085 559.621 36.8323C560.006 36.5398 560.31 36.0685 560.535 35.4185C560.775 34.7684 560.943 33.9153 561.04 32.859C561.152 31.7864 561.208 30.462 561.208 28.8857V20.6222C561.208 19.0458 561.152 17.7214 561.04 16.6489C560.943 15.5763 560.775 14.715 560.535 14.065C560.31 13.3987 560.006 12.9193 559.621 12.6268C559.252 12.3343 558.795 12.188 558.25 12.188C557.673 12.188 557.184 12.3343 556.783 12.6268C556.398 12.9193 556.078 13.3987 555.821 14.065C555.565 14.715 555.38 15.5763 555.268 16.6489C555.156 17.7214 555.1 19.0458 555.1 20.6222V28.8857C555.1 30.462 555.156 31.7864 555.268 32.859C555.38 33.9153 555.565 34.7684 555.821 35.4185C556.078 36.0685 556.398 36.5398 556.783 36.8323C557.184 37.1085 557.673 37.2467 558.25 37.2467Z" fill="black"/>
<path d="M583.62 0H589.92C590.85 0 591.812 0.0325015 592.806 0.0975043C593.8 0.162507 594.77 0.300638 595.716 0.511898C596.662 0.723157 597.559 1.04005 598.409 1.46257C599.259 1.86883 599.996 2.42136 600.621 3.12014C601.263 3.81892 601.768 4.68833 602.136 5.72838C602.521 6.75218 602.714 7.98723 602.714 9.43355V11.4568C602.714 12.5618 602.553 13.5775 602.233 14.5038C601.928 15.4301 601.519 16.2507 601.006 16.9658C600.493 17.6645 599.908 18.2496 599.251 18.7208C598.593 19.1759 597.92 19.4846 597.231 19.6471V19.8421C599.267 20.2159 600.798 21.1991 601.824 22.7916C602.866 24.368 603.387 26.3912 603.387 28.8613V30.982C603.387 32.4933 603.219 33.8096 602.882 34.9309C602.561 36.036 602.104 36.9866 601.511 37.7829C600.918 38.563 600.213 39.2049 599.395 39.7086C598.577 40.2124 597.68 40.6106 596.702 40.9031C595.724 41.1793 594.682 41.3743 593.576 41.4881C592.469 41.5856 591.331 41.6344 590.161 41.6344H583.62V0ZM590.93 17.8189C591.764 17.8189 592.525 17.7214 593.215 17.5264C593.904 17.3151 594.489 16.9983 594.97 16.5757C595.467 16.137 595.844 15.5763 596.101 14.8938C596.373 14.195 596.509 13.3581 596.509 12.3831V10.6767C596.509 9.70168 596.413 8.84039 596.221 8.09286C596.028 7.34533 595.708 6.71155 595.259 6.19153C594.826 5.6715 594.249 5.28149 593.527 5.02147C592.822 4.74521 591.956 4.60708 590.93 4.60708H589.728V17.8189H590.93ZM591.508 37.2467C592.341 37.2467 593.095 37.141 593.768 36.9298C594.457 36.7023 595.042 36.361 595.523 35.906C596.02 35.4347 596.397 34.8416 596.654 34.1265C596.926 33.4115 597.062 32.5665 597.062 31.5914V28.3494C597.062 27.3743 596.966 26.5131 596.774 25.7655C596.581 25.0017 596.261 24.368 595.812 23.8642C595.379 23.3442 594.81 22.9541 594.105 22.6941C593.399 22.4179 592.534 22.2797 591.508 22.2797H589.728V37.2467H591.508Z" fill="black"/>
<path d="M616.421 42C614.994 42 613.727 41.7319 612.621 41.1956C611.531 40.6593 610.609 39.8224 609.856 38.6848C609.102 37.5473 608.533 36.0929 608.148 34.3215C607.763 32.534 607.571 30.3889 607.571 27.8862V21.5485C607.571 19.4196 607.723 17.5995 608.028 16.0882C608.349 14.5606 608.757 13.285 609.254 12.2612C609.767 11.2211 610.353 10.4005 611.01 9.79919C611.683 9.19791 612.373 8.74289 613.078 8.43413C613.783 8.10911 614.481 7.90598 615.17 7.82472C615.875 7.72722 616.525 7.67847 617.118 7.67847C618.208 7.67847 619.258 7.8491 620.268 8.19037C621.278 8.51538 622.168 9.08416 622.937 9.89669C623.707 10.693 624.316 11.7655 624.765 13.1143C625.23 14.4631 625.462 16.1451 625.462 18.1602C625.462 18.8427 625.438 19.5334 625.39 20.2322C625.358 20.9309 625.31 21.6216 625.246 22.3041C625.182 22.9704 625.094 23.6204 624.981 24.2542C624.885 24.888 624.781 25.473 624.669 26.0093H613.679V29.4219C613.679 30.8845 613.735 32.1196 613.847 33.1271C613.96 34.1184 614.144 34.9228 614.401 35.5403C614.673 36.1416 615.034 36.5804 615.483 36.8566C615.948 37.1167 616.525 37.2467 617.214 37.2467C617.583 37.2467 617.944 37.1735 618.296 37.0273C618.649 36.8648 618.953 36.6048 619.21 36.2472C619.483 35.8897 619.699 35.4185 619.859 34.8334C620.02 34.2322 620.1 33.4927 620.1 32.6152V31.567H625.174V32.859C625.174 36.0441 624.42 38.368 622.913 39.8305C621.422 41.2768 619.258 42 616.421 42ZM619.787 21.8654C619.803 21.6866 619.819 21.451 619.835 21.1584C619.851 20.8497 619.859 20.5328 619.859 20.2078C619.875 19.8828 619.883 19.5659 619.883 19.2571C619.883 18.9321 619.883 18.6558 619.883 18.4283C619.883 16.2182 619.627 14.6257 619.114 13.6506C618.601 12.6756 617.839 12.188 616.829 12.188C616.3 12.188 615.835 12.318 615.435 12.5781C615.034 12.8218 614.705 13.2443 614.449 13.8456C614.192 14.4306 614 15.2107 613.871 16.1857C613.743 17.1608 613.679 18.3714 613.679 19.8178V21.8654H619.787Z" fill="black"/>
<path d="M638.328 42C635.538 42 633.406 40.8381 631.931 38.5142C630.472 36.1904 629.743 32.6477 629.743 27.8862V21.5485C629.743 19.4196 629.895 17.5995 630.2 16.0882C630.504 14.5606 630.905 13.285 631.402 12.2612C631.915 11.2211 632.492 10.4005 633.133 9.79919C633.791 9.19791 634.464 8.74289 635.153 8.43413C635.843 8.10911 636.524 7.90598 637.197 7.82472C637.871 7.72722 638.488 7.67847 639.049 7.67847C640.171 7.67847 641.197 7.83285 642.127 8.14161C643.057 8.43413 643.858 8.88915 644.532 9.50667C645.205 10.108 645.726 10.8717 646.095 11.798C646.464 12.7243 646.648 13.8131 646.648 15.0644C646.648 15.8445 646.608 16.5189 646.528 17.0876C646.464 17.6402 646.367 18.1764 646.239 18.6965H641.382V17.5752C641.382 15.8851 641.181 14.5688 640.78 13.6262C640.396 12.6674 639.754 12.188 638.857 12.188C638.36 12.188 637.927 12.3099 637.558 12.5537C637.189 12.7812 636.877 13.1793 636.62 13.7481C636.38 14.3169 636.195 15.0807 636.067 16.0395C635.955 16.9983 635.899 18.2008 635.899 19.6471V29.1782C635.899 30.6407 635.947 31.8839 636.043 32.9077C636.139 33.9315 636.308 34.7684 636.548 35.4185C636.789 36.0522 637.109 36.5154 637.51 36.8079C637.911 37.1004 638.408 37.2467 639.001 37.2467C639.306 37.2467 639.602 37.1735 639.891 37.0273C640.179 36.8648 640.428 36.6048 640.636 36.2472C640.861 35.8897 641.037 35.4185 641.165 34.8334C641.309 34.2322 641.382 33.4927 641.382 32.6152V31.567H646.624V32.859C646.624 36.0441 645.927 38.368 644.532 39.8305C643.153 41.2768 641.085 42 638.328 42Z" fill="black"/>
<path d="M659.922 42C659.217 42 658.495 41.9431 657.758 41.8294C657.036 41.7156 656.331 41.48 655.642 41.1225C654.968 40.7649 654.327 40.253 653.718 39.5868C653.125 38.9205 652.604 38.0429 652.155 36.9541C651.706 35.8653 651.353 34.5247 651.097 32.9321C650.84 31.3395 650.712 29.4382 650.712 27.2281V21.9629C650.712 19.7853 650.84 17.9245 651.097 16.3807C651.369 14.8207 651.73 13.5125 652.179 12.4562C652.644 11.3999 653.181 10.563 653.79 9.94544C654.399 9.31167 655.04 8.83227 655.714 8.50725C656.403 8.16599 657.109 7.9466 657.83 7.8491C658.551 7.73534 659.257 7.67847 659.946 7.67847C660.603 7.67847 661.285 7.72722 661.99 7.82472C662.696 7.92223 663.385 8.13349 664.058 8.4585C664.732 8.76727 665.365 9.23854 665.958 9.87232C666.567 10.4898 667.096 11.3268 667.545 12.3831C668.01 13.4393 668.371 14.7557 668.627 16.332C668.9 17.892 669.036 19.769 669.036 21.9629V27.2281C669.036 29.4057 668.9 31.2826 668.627 32.859C668.355 34.4353 667.986 35.7678 667.521 36.8566C667.056 37.9454 666.519 38.8311 665.91 39.5136C665.301 40.1799 664.659 40.6999 663.986 41.0737C663.313 41.4475 662.623 41.6912 661.918 41.805C661.229 41.935 660.563 42 659.922 42ZM659.97 37.2467C660.515 37.2467 660.972 37.1085 661.341 36.8323C661.726 36.5398 662.03 36.0685 662.255 35.4185C662.495 34.7684 662.663 33.9153 662.76 32.859C662.872 31.7864 662.928 30.462 662.928 28.8857V20.6222C662.928 19.0458 662.872 17.7214 662.76 16.6489C662.663 15.5763 662.495 14.715 662.255 14.065C662.03 13.3987 661.726 12.9193 661.341 12.6268C660.972 12.3343 660.515 12.188 659.97 12.188C659.393 12.188 658.904 12.3343 658.503 12.6268C658.119 12.9193 657.798 13.3987 657.541 14.065C657.285 14.715 657.101 15.5763 656.988 16.6489C656.876 17.7214 656.82 19.0458 656.82 20.6222V28.8857C656.82 30.462 656.876 31.7864 656.988 32.859C657.101 33.9153 657.285 34.7684 657.541 35.4185C657.798 36.0685 658.119 36.5398 658.503 36.8323C658.904 37.1085 659.393 37.2467 659.97 37.2467Z" fill="black"/>
<path d="M674.423 8.06849H679.136L679.665 11.6518V11.6761C680.146 10.9124 680.659 10.2786 681.204 9.77481C681.749 9.25479 682.31 8.84039 682.887 8.53163C683.48 8.22287 684.082 8.00348 684.691 7.87348C685.316 7.74347 685.933 7.67847 686.542 7.67847C687.841 7.67847 688.939 7.99536 689.837 8.62914C690.735 9.26291 691.416 10.2136 691.881 11.4811C692.362 10.7499 692.867 10.1405 693.396 9.65293C693.941 9.16541 694.502 8.77539 695.079 8.48288C695.656 8.19037 696.242 7.98723 696.835 7.87348C697.428 7.74347 698.029 7.67847 698.638 7.67847C700.562 7.67847 702.045 8.36912 703.087 9.75043C704.145 11.1155 704.674 13.1712 704.674 15.9176V41.6344H698.59V16.137C698.59 15.4057 698.534 14.7882 698.422 14.2844C698.31 13.7806 698.141 13.3743 697.917 13.0656C697.692 12.7568 697.404 12.5374 697.051 12.4074C696.698 12.2612 696.274 12.188 695.777 12.188C695.216 12.188 694.654 12.3993 694.093 12.8218C693.532 13.2281 693.019 13.7969 692.554 14.5281C692.57 14.6744 692.578 14.8207 692.578 14.9669C692.578 15.1132 692.578 15.2594 692.578 15.4057V41.6344H686.494V16.137C686.494 15.4057 686.438 14.7882 686.326 14.2844C686.214 13.7806 686.045 13.3743 685.821 13.0656C685.597 12.7568 685.308 12.5374 684.955 12.4074C684.603 12.2612 684.178 12.188 683.681 12.188C683.136 12.188 682.583 12.3912 682.022 12.7974C681.46 13.2037 680.955 13.7644 680.507 14.4794V41.6344H674.423V8.06849Z" fill="black"/>
<path d="M718.958 42C717.531 42 716.265 41.7319 715.159 41.1956C714.069 40.6593 713.147 39.8224 712.393 38.6848C711.64 37.5473 711.071 36.0929 710.686 34.3215C710.301 32.534 710.109 30.3889 710.109 27.8862V21.5485C710.109 19.4196 710.261 17.5995 710.566 16.0882C710.886 14.5606 711.295 13.285 711.792 12.2612C712.305 11.2211 712.89 10.4005 713.548 9.79919C714.221 9.19791 714.91 8.74289 715.616 8.43413C716.321 8.10911 717.018 7.90598 717.708 7.82472C718.413 7.72722 719.062 7.67847 719.656 7.67847C720.746 7.67847 721.796 7.8491 722.806 8.19037C723.816 8.51538 724.706 9.08416 725.475 9.89669C726.245 10.693 726.854 11.7655 727.303 13.1143C727.768 14.4631 728 16.1451 728 18.1602C728 18.8427 727.976 19.5334 727.928 20.2322C727.896 20.9309 727.848 21.6216 727.784 22.3041C727.719 22.9704 727.631 23.6204 727.519 24.2542C727.423 24.888 727.319 25.473 727.206 26.0093H716.217V29.4219C716.217 30.8845 716.273 32.1196 716.385 33.1271C716.497 34.1184 716.682 34.9228 716.938 35.5403C717.211 36.1416 717.572 36.5804 718.02 36.8566C718.485 37.1167 719.062 37.2467 719.752 37.2467C720.121 37.2467 720.481 37.1735 720.834 37.0273C721.187 36.8648 721.491 36.6048 721.748 36.2472C722.02 35.8897 722.237 35.4185 722.397 34.8334C722.557 34.2322 722.637 33.4927 722.637 32.6152V31.567H727.711V32.859C727.711 36.0441 726.958 38.368 725.451 39.8305C723.96 41.2768 721.796 42 718.958 42ZM722.325 21.8654C722.341 21.6866 722.357 21.451 722.373 21.1584C722.389 20.8497 722.397 20.5328 722.397 20.2078C722.413 19.8828 722.421 19.5659 722.421 19.2571C722.421 18.9321 722.421 18.6558 722.421 18.4283C722.421 16.2182 722.165 14.6257 721.652 13.6506C721.139 12.6756 720.377 12.188 719.367 12.188C718.838 12.188 718.373 12.318 717.972 12.5781C717.572 12.8218 717.243 13.2443 716.986 13.8456C716.73 14.4306 716.537 15.2107 716.409 16.1857C716.281 17.1608 716.217 18.3714 716.217 19.8178V21.8654H722.325Z" fill="black"/>
<path d="M284.79 52.9187L290.479 1H344.868V19.2832H307.991L305.882 39.4505C307.416 38.4736 309.418 37.6129 311.889 36.8686C314.403 36.1242 316.853 35.752 319.239 35.752C328.485 35.752 335.58 38.7527 340.522 44.7541C345.507 50.7089 348 59.0829 348 69.876C348 76.3891 346.658 82.2974 343.974 87.601C341.332 92.8579 337.604 96.9054 332.789 99.7432C327.974 102.581 322.286 104 315.724 104C309.887 104 304.412 102.697 299.299 100.092C294.186 97.4404 290.18 93.8349 287.283 89.2757C284.386 84.6701 282.958 79.4828 283.001 73.7141H304.603C304.816 77.4359 305.903 80.39 307.863 82.5766C309.823 84.7631 312.401 85.8564 315.596 85.8564C322.84 85.8564 326.461 79.9946 326.461 68.271C326.461 57.4313 322.03 52.0115 313.168 52.0115C308.14 52.0115 304.39 53.7794 301.919 57.315L284.79 52.9187Z" fill="black"/>
<mask id="path-5-outside-1" maskUnits="userSpaceOnUse" x="361" y="51" width="369" height="55" fill="black">
<rect fill="white" x="361" y="51" width="369" height="55"/>
<path d="M372.68 52.4572H381.839L391.55 104.512H383.498L382.054 95.1863H372.465L371.082 104.512H363L372.68 52.4572ZM381.132 89.2432L377.444 63.3071H377.106L373.387 89.2432H381.132Z"/>
<path d="M407.254 105C406.639 105 405.922 104.929 405.102 104.787C404.283 104.665 403.433 104.39 402.552 103.964C401.691 103.537 400.841 102.938 400.001 102.166C399.161 101.373 398.403 100.337 397.727 99.0569C397.071 97.7566 396.538 96.1717 396.129 94.3025C395.719 92.4129 395.514 90.1677 395.514 87.567V69.1282C395.514 66.5072 395.729 64.2722 396.159 62.4232C396.59 60.554 397.163 58.9895 397.88 57.7297C398.598 56.4497 399.417 55.4338 400.339 54.682C401.281 53.9302 402.255 53.3613 403.258 52.9753C404.262 52.5689 405.256 52.3048 406.239 52.1829C407.223 52.061 408.135 52 408.975 52C411.105 52 412.898 52.2946 414.353 52.8838C415.828 53.4528 417.016 54.2452 417.917 55.2611C418.839 56.2567 419.495 57.425 419.884 58.766C420.294 60.107 420.499 61.5292 420.499 63.0328C420.499 64.1503 420.427 65.1865 420.284 66.1415C420.161 67.0761 419.987 68.1123 419.761 69.2501H413.4V66.7815C413.4 61.0721 411.853 58.2174 408.759 58.2174C407.919 58.2174 407.192 58.3596 406.578 58.644C405.963 58.9285 405.451 59.4161 405.041 60.107C404.631 60.7775 404.324 61.6715 404.119 62.789C403.935 63.9065 403.842 65.2983 403.842 66.9643V90.5538C403.842 92.1792 403.935 93.5304 404.119 94.6072C404.324 95.6841 404.621 96.5476 405.01 97.1978C405.42 97.848 405.922 98.3153 406.516 98.5998C407.131 98.8639 407.858 98.996 408.698 98.996C409.579 98.996 410.337 98.7725 410.972 98.3255C411.607 97.8582 412.13 97.2283 412.539 96.4359C412.949 95.6435 413.246 94.7088 413.431 93.632C413.636 92.5551 413.738 91.3868 413.738 90.1271V83.3307H409.651V78.1495H421.482V104.512H416.197L415.336 99.575C414.332 101.505 413.175 102.897 411.863 103.75C410.573 104.583 409.036 105 407.254 105Z"/>
<path d="M428.858 52.4572H448.311V58.6745H436.817V74.2484H445.699V80.4658H436.817V98.295H448.618V104.512H428.858V52.4572Z"/>
<path d="M467.211 77.4485H490.106V83.6354H467.211V77.4485Z"/>
<path d="M511.956 52.4572H532.024V58.6745H519.916V74.2484H529.412V80.4658H519.916V104.512H511.956V52.4572Z"/>
<path d="M537.341 52.4572H545.976C546.96 52.4572 548.035 52.4978 549.203 52.5791C550.391 52.6603 551.57 52.8635 552.737 53.1886C553.926 53.4934 555.063 53.9607 556.149 54.5906C557.255 55.2204 558.228 56.084 559.068 57.1811C559.929 58.2783 560.615 59.66 561.127 61.326C561.639 62.9718 561.895 64.9732 561.895 67.3301V68.6406C561.895 72.6026 561.322 75.8332 560.174 78.3324C559.027 80.8112 557.337 82.5992 555.104 83.6964L563.524 104.512H555.104L548.128 85.0374H545.147V104.512H537.341V52.4572ZM546.345 79.3381C547.738 79.3381 548.916 79.1857 549.879 78.881C550.842 78.5762 551.621 78.0682 552.215 77.3571C552.809 76.6256 553.239 75.6707 553.506 74.4922C553.772 73.2935 553.905 71.8204 553.905 70.073V65.9586C553.905 64.6176 553.782 63.4595 553.536 62.4842C553.29 61.5089 552.87 60.7063 552.276 60.0765C551.703 59.4466 550.934 58.9793 549.971 58.6745C549.009 58.3698 547.8 58.2174 546.345 58.2174H545.147V79.3381H546.345Z"/>
<path d="M569.548 52.4572H577.507V104.512H569.548V52.4572Z"/>
<path d="M586.511 52.4572H605.965V58.6745H594.471V74.2484H603.352V80.4658H594.471V98.295H606.272V104.512H586.511V52.4572Z"/>
<path d="M612.019 52.4572H618.472L631.195 87.2927H631.38C631.318 86.48 631.236 85.5758 631.134 84.5802C631.031 83.5846 630.939 82.457 630.857 81.1972C630.775 79.9172 630.704 78.4746 630.642 76.8695C630.581 75.2643 630.55 73.456 630.55 71.4445V52.4572H637.68V104.512H631.165L618.503 70.5911H618.257C618.319 71.5055 618.401 72.5011 618.503 73.5779C618.606 74.6345 618.698 75.884 618.78 77.3266C618.862 78.7692 618.933 80.4556 618.995 82.3859C619.056 84.2958 619.087 86.5714 619.087 89.2128V104.512H612.019V52.4572Z"/>
<path d="M646.684 52.4572H654.951C656.201 52.4572 657.491 52.4978 658.823 52.5791C660.175 52.64 661.486 52.8534 662.757 53.2191C664.047 53.5848 665.256 54.1537 666.383 54.9258C667.53 55.6776 668.534 56.7443 669.395 58.1259C670.255 59.4873 670.931 61.2143 671.423 63.3071C671.935 65.3795 672.191 67.9193 672.191 70.9264V86.0431C672.191 89.0502 671.935 91.6002 671.423 93.6929C670.931 95.7857 670.255 97.5127 669.395 98.8741C668.534 100.235 667.53 101.302 666.383 102.074C665.256 102.826 664.047 103.385 662.757 103.75C661.486 104.116 660.175 104.34 658.823 104.421C657.491 104.482 656.201 104.512 654.951 104.512H646.684V52.4572ZM656.672 98.996C658.106 98.996 659.284 98.8131 660.206 98.4474C661.148 98.0817 661.886 97.4416 662.419 96.5273C662.972 95.5927 663.351 94.333 663.556 92.7481C663.761 91.143 663.863 89.1213 663.863 86.6832V70.5302C663.863 68.092 663.761 66.0805 663.556 64.4957C663.351 62.8905 662.972 61.6308 662.419 60.7165C661.886 59.7819 661.148 59.1317 660.206 58.766C659.284 58.4002 658.106 58.2174 656.672 58.2174H654.644V98.996H656.672Z"/>
<path d="M679.321 52.4572H687.281V98.295H698.129V104.512H679.321V52.4572Z"/>
<path d="M709.407 87.1708L698.836 52.4572H706.857L713.28 77.3571H713.648L720.01 52.4572H728L717.367 87.1708V104.512H709.407V87.1708Z"/>
</mask>
<path d="M372.68 52.4572H381.839L391.55 104.512H383.498L382.054 95.1863H372.465L371.082 104.512H363L372.68 52.4572ZM381.132 89.2432L377.444 63.3071H377.106L373.387 89.2432H381.132Z" fill="black"/>
<path d="M407.254 105C406.639 105 405.922 104.929 405.102 104.787C404.283 104.665 403.433 104.39 402.552 103.964C401.691 103.537 400.841 102.938 400.001 102.166C399.161 101.373 398.403 100.337 397.727 99.0569C397.071 97.7566 396.538 96.1717 396.129 94.3025C395.719 92.4129 395.514 90.1677 395.514 87.567V69.1282C395.514 66.5072 395.729 64.2722 396.159 62.4232C396.59 60.554 397.163 58.9895 397.88 57.7297C398.598 56.4497 399.417 55.4338 400.339 54.682C401.281 53.9302 402.255 53.3613 403.258 52.9753C404.262 52.5689 405.256 52.3048 406.239 52.1829C407.223 52.061 408.135 52 408.975 52C411.105 52 412.898 52.2946 414.353 52.8838C415.828 53.4528 417.016 54.2452 417.917 55.2611C418.839 56.2567 419.495 57.425 419.884 58.766C420.294 60.107 420.499 61.5292 420.499 63.0328C420.499 64.1503 420.427 65.1865 420.284 66.1415C420.161 67.0761 419.987 68.1123 419.761 69.2501H413.4V66.7815C413.4 61.0721 411.853 58.2174 408.759 58.2174C407.919 58.2174 407.192 58.3596 406.578 58.644C405.963 58.9285 405.451 59.4161 405.041 60.107C404.631 60.7775 404.324 61.6715 404.119 62.789C403.935 63.9065 403.842 65.2983 403.842 66.9643V90.5538C403.842 92.1792 403.935 93.5304 404.119 94.6072C404.324 95.6841 404.621 96.5476 405.01 97.1978C405.42 97.848 405.922 98.3153 406.516 98.5998C407.131 98.8639 407.858 98.996 408.698 98.996C409.579 98.996 410.337 98.7725 410.972 98.3255C411.607 97.8582 412.13 97.2283 412.539 96.4359C412.949 95.6435 413.246 94.7088 413.431 93.632C413.636 92.5551 413.738 91.3868 413.738 90.1271V83.3307H409.651V78.1495H421.482V104.512H416.197L415.336 99.575C414.332 101.505 413.175 102.897 411.863 103.75C410.573 104.583 409.036 105 407.254 105Z" fill="black"/>
<path d="M428.858 52.4572H448.311V58.6745H436.817V74.2484H445.699V80.4658H436.817V98.295H448.618V104.512H428.858V52.4572Z" fill="black"/>
<path d="M467.211 77.4485H490.106V83.6354H467.211V77.4485Z" fill="black"/>
<path d="M511.956 52.4572H532.024V58.6745H519.916V74.2484H529.412V80.4658H519.916V104.512H511.956V52.4572Z" fill="black"/>
<path d="M537.341 52.4572H545.976C546.96 52.4572 548.035 52.4978 549.203 52.5791C550.391 52.6603 551.57 52.8635 552.737 53.1886C553.926 53.4934 555.063 53.9607 556.149 54.5906C557.255 55.2204 558.228 56.084 559.068 57.1811C559.929 58.2783 560.615 59.66 561.127 61.326C561.639 62.9718 561.895 64.9732 561.895 67.3301V68.6406C561.895 72.6026 561.322 75.8332 560.174 78.3324C559.027 80.8112 557.337 82.5992 555.104 83.6964L563.524 104.512H555.104L548.128 85.0374H545.147V104.512H537.341V52.4572ZM546.345 79.3381C547.738 79.3381 548.916 79.1857 549.879 78.881C550.842 78.5762 551.621 78.0682 552.215 77.3571C552.809 76.6256 553.239 75.6707 553.506 74.4922C553.772 73.2935 553.905 71.8204 553.905 70.073V65.9586C553.905 64.6176 553.782 63.4595 553.536 62.4842C553.29 61.5089 552.87 60.7063 552.276 60.0765C551.703 59.4466 550.934 58.9793 549.971 58.6745C549.009 58.3698 547.8 58.2174 546.345 58.2174H545.147V79.3381H546.345Z" fill="black"/>
<path d="M569.548 52.4572H577.507V104.512H569.548V52.4572Z" fill="black"/>
<path d="M586.511 52.4572H605.965V58.6745H594.471V74.2484H603.352V80.4658H594.471V98.295H606.272V104.512H586.511V52.4572Z" fill="black"/>
<path d="M612.019 52.4572H618.472L631.195 87.2927H631.38C631.318 86.48 631.236 85.5758 631.134 84.5802C631.031 83.5846 630.939 82.457 630.857 81.1972C630.775 79.9172 630.704 78.4746 630.642 76.8695C630.581 75.2643 630.55 73.456 630.55 71.4445V52.4572H637.68V104.512H631.165L618.503 70.5911H618.257C618.319 71.5055 618.401 72.5011 618.503 73.5779C618.606 74.6345 618.698 75.884 618.78 77.3266C618.862 78.7692 618.933 80.4556 618.995 82.3859C619.056 84.2958 619.087 86.5714 619.087 89.2128V104.512H612.019V52.4572Z" fill="black"/>
<path d="M646.684 52.4572H654.951C656.201 52.4572 657.491 52.4978 658.823 52.5791C660.175 52.64 661.486 52.8534 662.757 53.2191C664.047 53.5848 665.256 54.1537 666.383 54.9258C667.53 55.6776 668.534 56.7443 669.395 58.1259C670.255 59.4873 670.931 61.2143 671.423 63.3071C671.935 65.3795 672.191 67.9193 672.191 70.9264V86.0431C672.191 89.0502 671.935 91.6002 671.423 93.6929C670.931 95.7857 670.255 97.5127 669.395 98.8741C668.534 100.235 667.53 101.302 666.383 102.074C665.256 102.826 664.047 103.385 662.757 103.75C661.486 104.116 660.175 104.34 658.823 104.421C657.491 104.482 656.201 104.512 654.951 104.512H646.684V52.4572ZM656.672 98.996C658.106 98.996 659.284 98.8131 660.206 98.4474C661.148 98.0817 661.886 97.4416 662.419 96.5273C662.972 95.5927 663.351 94.333 663.556 92.7481C663.761 91.143 663.863 89.1213 663.863 86.6832V70.5302C663.863 68.092 663.761 66.0805 663.556 64.4957C663.351 62.8905 662.972 61.6308 662.419 60.7165C661.886 59.7819 661.148 59.1317 660.206 58.766C659.284 58.4002 658.106 58.2174 656.672 58.2174H654.644V98.996H656.672Z" fill="black"/>
<path d="M679.321 52.4572H687.281V98.295H698.129V104.512H679.321V52.4572Z" fill="black"/>
<path d="M709.407 87.1708L698.836 52.4572H706.857L713.28 77.3571H713.648L720.01 52.4572H728L717.367 87.1708V104.512H709.407V87.1708Z" fill="black"/>
<path d="M372.68 52.4572H381.839L391.55 104.512H383.498L382.054 95.1863H372.465L371.082 104.512H363L372.68 52.4572ZM381.132 89.2432L377.444 63.3071H377.106L373.387 89.2432H381.132Z" stroke="black" stroke-width="2" mask="url(#path-5-outside-1)"/>
<path d="M407.254 105C406.639 105 405.922 104.929 405.102 104.787C404.283 104.665 403.433 104.39 402.552 103.964C401.691 103.537 400.841 102.938 400.001 102.166C399.161 101.373 398.403 100.337 397.727 99.0569C397.071 97.7566 396.538 96.1717 396.129 94.3025C395.719 92.4129 395.514 90.1677 395.514 87.567V69.1282C395.514 66.5072 395.729 64.2722 396.159 62.4232C396.59 60.554 397.163 58.9895 397.88 57.7297C398.598 56.4497 399.417 55.4338 400.339 54.682C401.281 53.9302 402.255 53.3613 403.258 52.9753C404.262 52.5689 405.256 52.3048 406.239 52.1829C407.223 52.061 408.135 52 408.975 52C411.105 52 412.898 52.2946 414.353 52.8838C415.828 53.4528 417.016 54.2452 417.917 55.2611C418.839 56.2567 419.495 57.425 419.884 58.766C420.294 60.107 420.499 61.5292 420.499 63.0328C420.499 64.1503 420.427 65.1865 420.284 66.1415C420.161 67.0761 419.987 68.1123 419.761 69.2501H413.4V66.7815C413.4 61.0721 411.853 58.2174 408.759 58.2174C407.919 58.2174 407.192 58.3596 406.578 58.644C405.963 58.9285 405.451 59.4161 405.041 60.107C404.631 60.7775 404.324 61.6715 404.119 62.789C403.935 63.9065 403.842 65.2983 403.842 66.9643V90.5538C403.842 92.1792 403.935 93.5304 404.119 94.6072C404.324 95.6841 404.621 96.5476 405.01 97.1978C405.42 97.848 405.922 98.3153 406.516 98.5998C407.131 98.8639 407.858 98.996 408.698 98.996C409.579 98.996 410.337 98.7725 410.972 98.3255C411.607 97.8582 412.13 97.2283 412.539 96.4359C412.949 95.6435 413.246 94.7088 413.431 93.632C413.636 92.5551 413.738 91.3868 413.738 90.1271V83.3307H409.651V78.1495H421.482V104.512H416.197L415.336 99.575C414.332 101.505 413.175 102.897 411.863 103.75C410.573 104.583 409.036 105 407.254 105Z" stroke="black" stroke-width="2" mask="url(#path-5-outside-1)"/>
<path d="M428.858 52.4572H448.311V58.6745H436.817V74.2484H445.699V80.4658H436.817V98.295H448.618V104.512H428.858V52.4572Z" stroke="black" stroke-width="2" mask="url(#path-5-outside-1)"/>
<path d="M467.211 77.4485H490.106V83.6354H467.211V77.4485Z" stroke="black" stroke-width="2" mask="url(#path-5-outside-1)"/>
<path d="M511.956 52.4572H532.024V58.6745H519.916V74.2484H529.412V80.4658H519.916V104.512H511.956V52.4572Z" stroke="black" stroke-width="2" mask="url(#path-5-outside-1)"/>
<path d="M537.341 52.4572H545.976C546.96 52.4572 548.035 52.4978 549.203 52.5791C550.391 52.6603 551.57 52.8635 552.737 53.1886C553.926 53.4934 555.063 53.9607 556.149 54.5906C557.255 55.2204 558.228 56.084 559.068 57.1811C559.929 58.2783 560.615 59.66 561.127 61.326C561.639 62.9718 561.895 64.9732 561.895 67.3301V68.6406C561.895 72.6026 561.322 75.8332 560.174 78.3324C559.027 80.8112 557.337 82.5992 555.104 83.6964L563.524 104.512H555.104L548.128 85.0374H545.147V104.512H537.341V52.4572ZM546.345 79.3381C547.738 79.3381 548.916 79.1857 549.879 78.881C550.842 78.5762 551.621 78.0682 552.215 77.3571C552.809 76.6256 553.239 75.6707 553.506 74.4922C553.772 73.2935 553.905 71.8204 553.905 70.073V65.9586C553.905 64.6176 553.782 63.4595 553.536 62.4842C553.29 61.5089 552.87 60.7063 552.276 60.0765C551.703 59.4466 550.934 58.9793 549.971 58.6745C549.009 58.3698 547.8 58.2174 546.345 58.2174H545.147V79.3381H546.345Z" stroke="black" stroke-width="2" mask="url(#path-5-outside-1)"/>
<path d="M569.548 52.4572H577.507V104.512H569.548V52.4572Z" stroke="black" stroke-width="2" mask="url(#path-5-outside-1)"/>
<path d="M586.511 52.4572H605.965V58.6745H594.471V74.2484H603.352V80.4658H594.471V98.295H606.272V104.512H586.511V52.4572Z" stroke="black" stroke-width="2" mask="url(#path-5-outside-1)"/>
<path d="M612.019 52.4572H618.472L631.195 87.2927H631.38C631.318 86.48 631.236 85.5758 631.134 84.5802C631.031 83.5846 630.939 82.457 630.857 81.1972C630.775 79.9172 630.704 78.4746 630.642 76.8695C630.581 75.2643 630.55 73.456 630.55 71.4445V52.4572H637.68V104.512H631.165L618.503 70.5911H618.257C618.319 71.5055 618.401 72.5011 618.503 73.5779C618.606 74.6345 618.698 75.884 618.78 77.3266C618.862 78.7692 618.933 80.4556 618.995 82.3859C619.056 84.2958 619.087 86.5714 619.087 89.2128V104.512H612.019V52.4572Z" stroke="black" stroke-width="2" mask="url(#path-5-outside-1)"/>
<path d="M646.684 52.4572H654.951C656.201 52.4572 657.491 52.4978 658.823 52.5791C660.175 52.64 661.486 52.8534 662.757 53.2191C664.047 53.5848 665.256 54.1537 666.383 54.9258C667.53 55.6776 668.534 56.7443 669.395 58.1259C670.255 59.4873 670.931 61.2143 671.423 63.3071C671.935 65.3795 672.191 67.9193 672.191 70.9264V86.0431C672.191 89.0502 671.935 91.6002 671.423 93.6929C670.931 95.7857 670.255 97.5127 669.395 98.8741C668.534 100.235 667.53 101.302 666.383 102.074C665.256 102.826 664.047 103.385 662.757 103.75C661.486 104.116 660.175 104.34 658.823 104.421C657.491 104.482 656.201 104.512 654.951 104.512H646.684V52.4572ZM656.672 98.996C658.106 98.996 659.284 98.8131 660.206 98.4474C661.148 98.0817 661.886 97.4416 662.419 96.5273C662.972 95.5927 663.351 94.333 663.556 92.7481C663.761 91.143 663.863 89.1213 663.863 86.6832V70.5302C663.863 68.092 663.761 66.0805 663.556 64.4957C663.351 62.8905 662.972 61.6308 662.419 60.7165C661.886 59.7819 661.148 59.1317 660.206 58.766C659.284 58.4002 658.106 58.2174 656.672 58.2174H654.644V98.996H656.672Z" stroke="black" stroke-width="2" mask="url(#path-5-outside-1)"/>
<path d="M679.321 52.4572H687.281V98.295H698.129V104.512H679.321V52.4572Z" stroke="black" stroke-width="2" mask="url(#path-5-outside-1)"/>
<path d="M709.407 87.1708L698.836 52.4572H706.857L713.28 77.3571H713.648L720.01 52.4572H728L717.367 87.1708V104.512H709.407V87.1708Z" stroke="black" stroke-width="2" mask="url(#path-5-outside-1)"/>
</svg>
