<svg width="70" height="70" viewBox="0 0 70 70" fill="none" xmlns="http://www.w3.org/2000/svg">
<circle cx="35" cy="35" r="35" fill="#CC3E16"/>
<path d="M52.072 19H42.4323V23.5255H47.4257L39.7139 32.5765H28.9366C28.6828 32.5748 28.4313 32.6319 28.1964 32.7445C27.9615 32.8571 27.7479 33.023 27.5677 33.2327L16 46.8093L18.7184 49.9998L29.727 37.102H40.5043C40.758 37.1038 41.0096 37.0467 41.2445 36.9341C41.4794 36.8215 41.693 36.6556 41.8732 36.4458L50.1441 26.716V32.5765H54V21.2628C54 20.6626 53.7969 20.0871 53.4353 19.6627C53.0738 19.2384 52.5834 19 52.072 19Z" fill="white"/>
</svg>
