<svg width="71" height="70" viewBox="0 0 71 70" fill="none" xmlns="http://www.w3.org/2000/svg">
<path fill-rule="evenodd" clip-rule="evenodd" d="M34.9457 0.000861519C15.8043 0.0432973 0.210536 15.4468 0.00194474 34.644C-0.199647 53.9921 15.2969 69.7962 34.645 69.998C53.9937 70.1998 69.8246 54.7306 70.0264 35.3822C70.2281 16.0337 54.7316 0.211378 35.3832 0.000861519C35.2324 -0.000888409 35.0964 0.000511534 34.9457 0.000861519ZM21.958 23.8163C22.1234 23.8012 22.2808 23.8145 22.4502 23.8163C25.1602 23.843 27.3767 26.0823 27.3446 28.7927C27.3175 31.5027 25.0785 33.7192 22.3681 33.687H22.341C19.6309 33.6607 17.4418 31.3936 17.474 28.6833C17.4994 26.1426 19.4776 24.0417 21.9582 23.8163H21.958ZM47.7969 24.0624C47.8059 24.0623 47.8149 24.0623 47.824 24.0624C50.5297 24.0976 52.7233 26.3539 52.691 29.0661C52.6647 31.7838 50.4207 33.9839 47.7146 33.9604C45.0069 33.9254 42.7968 31.6647 42.8202 28.9567C42.8561 26.249 45.0848 24.0388 47.7967 24.0624H47.7969ZM56.6011 35.765C56.6467 35.7626 56.6923 35.7626 56.7379 35.765C56.9127 35.7643 57.086 35.7987 57.2473 35.8661C57.4087 35.9335 57.5549 36.0326 57.6772 36.1575C57.7996 36.2825 57.8957 36.4307 57.9598 36.5934C58.0238 36.7561 58.0546 36.93 58.0503 37.1049C57.9297 48.7932 48.3294 58.1972 36.6411 58.0767C36.2933 58.0727 35.9613 57.9307 35.718 57.6821C35.4747 57.4335 35.3401 57.0985 35.3437 56.7507C35.3473 56.4028 35.4888 56.0707 35.7372 55.8272C35.9855 55.5836 36.3204 55.4486 36.6682 55.4518C46.9434 55.5577 55.3192 47.3528 55.4252 37.0775C55.4223 36.7515 55.5413 36.4362 55.7588 36.1934C55.9763 35.9506 56.2766 35.7979 56.6009 35.765H56.6011Z" fill="#BBC437"/>
</svg>
