<svg width="34" height="22" viewBox="0 0 34 22" fill="none" xmlns="http://www.w3.org/2000/svg">
<path d="M33.9067 10.7141C33.891 10.3374 33.7261 9.90195 33.4514 9.62731L24.4844 0.668988C23.8767 0.155595 22.7116 -0.0563389 22.0324 0.537254C21.3635 1.12189 21.3834 2.25577 22.0498 2.84273L28.3547 9.13331H1.68131C0.75278 9.13331 0 9.84107 0 10.7141C0 11.5872 0.75278 12.295 1.68131 12.295H28.3547L22.0498 18.5856C21.4761 19.126 21.3701 20.2997 22.0324 20.8911C22.6946 21.4823 23.9017 21.2935 24.4844 20.7593L33.4514 11.801C33.7582 11.4944 33.9077 11.1347 33.9067 10.7141Z" fill="white"/>
</svg>
