<svg width="259" height="50" viewBox="0 0 259 50" fill="none" xmlns="http://www.w3.org/2000/svg">
<rect x="1" y="1" width="48" height="48" rx="4" fill="white" stroke="#155777" stroke-width="2"/>
<path d="M41.9319 34.8607C41.5397 34.7653 41.1945 34.6209 40.8977 34.4301C40.5042 34.1672 40.2013 33.8879 39.9889 33.595C39.7753 33.2994 39.6015 32.9751 39.4615 32.6127C38.6324 30.407 37.6295 27.6264 36.4504 24.2682C35.2701 20.9099 33.6396 16.3419 31.5578 10.5586H28.3705C26.8728 14.6375 25.5042 18.365 24.2684 21.7478C23.0302 25.1292 21.7956 28.5065 20.5634 31.8757C20.3618 32.4506 20.1096 32.9506 19.8067 33.3688C19.5037 33.7898 19.1344 34.1427 18.7 34.4301C18.4441 34.6113 18.0966 34.7516 17.6561 34.8525C17.2156 34.9533 16.8197 35.0174 16.4685 35.0419V36.4437H25.7444V35.0419C24.5436 34.922 23.6843 34.7272 23.1702 34.4561C22.6536 34.1877 22.3966 33.8594 22.3966 33.4765C22.3966 33.3566 22.4147 33.1468 22.4533 32.8457C22.4883 32.5474 22.609 32.061 22.8117 31.3907C22.971 30.8744 23.1593 30.2871 23.3777 29.6264C23.5455 29.1209 23.6976 28.6768 23.8424 28.2695H31.9175L33.7108 33.1891C33.7845 33.3907 33.8303 33.5542 33.8448 33.6727C33.8617 33.7926 33.8701 33.9015 33.8701 33.9969C33.8701 34.2735 33.4827 34.5023 32.7067 34.689C31.9307 34.8756 31.5059 34.9928 30.9315 35.0405V36.4437H43V35.0419C42.6814 35.0174 42.3242 34.9588 41.9319 34.8607ZM30.9242 25.5447H24.8127L27.8467 16.8732L30.9242 25.5447Z" fill="#155777"/>
<path d="M26.7642 35.2772C26.4746 35.205 26.2199 35.1014 26.0003 34.9584C25.7106 34.7635 25.4874 34.5592 25.3305 34.3439C25.1748 34.126 25.0456 33.8862 24.9443 33.6205C24.3336 31.9952 23.5938 29.9462 22.7236 27.4708C21.8559 24.9967 20.6539 21.6303 19.12 17.3701H16.7726C15.6696 20.3742 14.6606 23.1234 13.7483 25.6165C12.8359 28.107 11.9259 30.5947 11.0183 33.0784C10.8699 33.5007 10.6841 33.8685 10.4608 34.1805C10.2375 34.4897 9.96597 34.75 9.64494 34.9598C9.45667 35.0933 9.20082 35.1968 8.87497 35.2731C8.54912 35.348 8.25706 35.393 8 35.412V36.4434H14.8332V35.4107C13.9498 35.3221 13.3162 35.1791 12.9372 34.9802C12.5595 34.7813 12.3676 34.5415 12.3676 34.2568C12.3676 34.1696 12.3821 34.0143 12.4099 33.7935C12.4352 33.5728 12.5233 33.2159 12.673 32.7214C12.79 32.3413 12.9288 31.9067 13.0905 31.4203C13.1316 31.2949 13.3765 30.5933 13.7133 29.6315H19.1188L20.7046 34.0456C20.7589 34.1941 20.7915 34.314 20.8035 34.4026C20.8156 34.4898 20.8229 34.5701 20.8229 34.6423C20.8229 34.8439 20.5356 35.0142 19.9648 35.1532C19.3915 35.2894 18.8955 35.3766 18.4731 35.412V36.4434H27.3109V35.4107C27.3109 35.4107 27.0539 35.3494 26.7642 35.2772ZM14.1912 28.2691C15.1506 25.5335 16.384 22.024 16.384 22.024L18.6288 28.2691H14.1912Z" fill="#155777"/>
<rect x="72" width="187" height="50" rx="4" fill="#155777"/>
<path d="M88.9355 15.4497H91.5547L94.332 30.4614H92.0293L91.6162 27.772H88.874L88.4785 30.4614H86.167L88.9355 15.4497ZM91.3525 26.0581L90.2979 18.5786H90.2012L89.1377 26.0581H91.3525ZM95.1758 27.9302C95.1758 27.6665 95.1992 27.4116 95.2461 27.1655C95.2988 26.9194 95.3486 26.7231 95.3955 26.5767H96.96C96.96 27.0161 96.9805 27.3853 97.0215 27.6841C97.0684 27.9771 97.1416 28.2114 97.2412 28.3872C97.3408 28.563 97.4727 28.689 97.6367 28.7651C97.8066 28.8413 98.0117 28.8794 98.252 28.8794C98.5859 28.8794 98.8291 28.7856 98.9814 28.5981C99.1338 28.4106 99.21 28.1938 99.21 27.9478C99.21 27.8188 99.1924 27.6958 99.1572 27.5786C99.1221 27.4614 99.0723 27.3442 99.0078 27.2271C98.9434 27.104 98.8643 26.981 98.7705 26.8579C98.6768 26.7349 98.5713 26.6001 98.4541 26.4536L96.8281 24.5376C96.6172 24.2739 96.4121 24.0073 96.2129 23.7378C96.0195 23.4624 95.8467 23.1812 95.6943 22.894C95.5479 22.6011 95.4277 22.2964 95.334 21.98C95.2461 21.6636 95.2021 21.3296 95.2021 20.978C95.2021 20.5093 95.2812 20.1021 95.4395 19.7563C95.6035 19.4106 95.8203 19.1235 96.0898 18.895C96.3652 18.6665 96.6816 18.4966 97.0391 18.3853C97.3965 18.2739 97.7744 18.2183 98.1729 18.2183C98.6123 18.2183 99.0078 18.271 99.3594 18.3765C99.7109 18.4819 100.013 18.6401 100.265 18.8511C100.517 19.062 100.71 19.3257 100.845 19.6421C100.979 19.9526 101.047 20.3159 101.047 20.7319C101.047 21.0132 101.021 21.2856 100.968 21.5493C100.921 21.813 100.874 22.0386 100.827 22.2261H99.2891C99.2832 21.8276 99.2656 21.479 99.2363 21.1802C99.207 20.8813 99.1514 20.6353 99.0693 20.4419C98.9932 20.2427 98.8848 20.0933 98.7441 19.9937C98.6094 19.894 98.4307 19.8442 98.208 19.8442C98.0146 19.8442 97.8535 19.8765 97.7246 19.9409C97.5957 19.9995 97.4902 20.0786 97.4082 20.1782C97.332 20.2778 97.2764 20.3892 97.2412 20.5122C97.2119 20.6353 97.1973 20.7612 97.1973 20.8901C97.1973 21.1714 97.2646 21.4321 97.3994 21.6724C97.5342 21.9126 97.7129 22.1733 97.9355 22.4546L99.7109 24.5376C99.8398 24.6958 99.9893 24.8892 100.159 25.1177C100.329 25.3403 100.49 25.5894 100.643 25.8647C100.795 26.1343 100.924 26.4302 101.029 26.7524C101.135 27.0747 101.188 27.4116 101.188 27.7632C101.188 28.1909 101.12 28.5806 100.985 28.9321C100.851 29.2778 100.651 29.5737 100.388 29.8198C100.124 30.0659 99.7988 30.2563 99.4121 30.3911C99.0312 30.5259 98.5947 30.5933 98.1025 30.5933C97.6982 30.5933 97.3174 30.5493 96.96 30.4614C96.6025 30.3677 96.292 30.2183 96.0283 30.0132C95.7646 29.8022 95.5566 29.5269 95.4043 29.187C95.252 28.8472 95.1758 28.4282 95.1758 27.9302ZM102.471 27.9302C102.471 27.6665 102.494 27.4116 102.541 27.1655C102.594 26.9194 102.644 26.7231 102.69 26.5767H104.255C104.255 27.0161 104.275 27.3853 104.316 27.6841C104.363 27.9771 104.437 28.2114 104.536 28.3872C104.636 28.563 104.768 28.689 104.932 28.7651C105.102 28.8413 105.307 28.8794 105.547 28.8794C105.881 28.8794 106.124 28.7856 106.276 28.5981C106.429 28.4106 106.505 28.1938 106.505 27.9478C106.505 27.8188 106.487 27.6958 106.452 27.5786C106.417 27.4614 106.367 27.3442 106.303 27.2271C106.238 27.104 106.159 26.981 106.065 26.8579C105.972 26.7349 105.866 26.6001 105.749 26.4536L104.123 24.5376C103.912 24.2739 103.707 24.0073 103.508 23.7378C103.314 23.4624 103.142 23.1812 102.989 22.894C102.843 22.6011 102.723 22.2964 102.629 21.98C102.541 21.6636 102.497 21.3296 102.497 20.978C102.497 20.5093 102.576 20.1021 102.734 19.7563C102.898 19.4106 103.115 19.1235 103.385 18.895C103.66 18.6665 103.977 18.4966 104.334 18.3853C104.691 18.2739 105.069 18.2183 105.468 18.2183C105.907 18.2183 106.303 18.271 106.654 18.3765C107.006 18.4819 107.308 18.6401 107.56 18.8511C107.812 19.062 108.005 19.3257 108.14 19.6421C108.274 19.9526 108.342 20.3159 108.342 20.7319C108.342 21.0132 108.315 21.2856 108.263 21.5493C108.216 21.813 108.169 22.0386 108.122 22.2261H106.584C106.578 21.8276 106.561 21.479 106.531 21.1802C106.502 20.8813 106.446 20.6353 106.364 20.4419C106.288 20.2427 106.18 20.0933 106.039 19.9937C105.904 19.894 105.726 19.8442 105.503 19.8442C105.31 19.8442 105.148 19.8765 105.02 19.9409C104.891 19.9995 104.785 20.0786 104.703 20.1782C104.627 20.2778 104.571 20.3892 104.536 20.5122C104.507 20.6353 104.492 20.7612 104.492 20.8901C104.492 21.1714 104.56 21.4321 104.694 21.6724C104.829 21.9126 105.008 22.1733 105.23 22.4546L107.006 24.5376C107.135 24.6958 107.284 24.8892 107.454 25.1177C107.624 25.3403 107.785 25.5894 107.938 25.8647C108.09 26.1343 108.219 26.4302 108.324 26.7524C108.43 27.0747 108.482 27.4116 108.482 27.7632C108.482 28.1909 108.415 28.5806 108.28 28.9321C108.146 29.2778 107.946 29.5737 107.683 29.8198C107.419 30.0659 107.094 30.2563 106.707 30.3911C106.326 30.5259 105.89 30.5933 105.397 30.5933C104.993 30.5933 104.612 30.5493 104.255 30.4614C103.897 30.3677 103.587 30.2183 103.323 30.0132C103.06 29.8022 102.852 29.5269 102.699 29.187C102.547 28.8472 102.471 28.4282 102.471 27.9302ZM113.158 30.5933C112.637 30.5933 112.174 30.4966 111.77 30.3032C111.371 30.1099 111.034 29.8081 110.759 29.3979C110.483 28.9878 110.275 28.4634 110.135 27.8247C109.994 27.1802 109.924 26.4067 109.924 25.5044V23.2192C109.924 22.4517 109.979 21.7954 110.091 21.2505C110.208 20.6997 110.357 20.2397 110.539 19.8706C110.727 19.4956 110.94 19.1997 111.181 18.9829C111.427 18.7661 111.679 18.6021 111.937 18.4907C112.194 18.3735 112.449 18.3003 112.701 18.271C112.959 18.2358 113.196 18.2183 113.413 18.2183C113.812 18.2183 114.195 18.2798 114.564 18.4028C114.934 18.52 115.259 18.7251 115.54 19.0181C115.821 19.3052 116.044 19.6919 116.208 20.1782C116.378 20.6646 116.463 21.271 116.463 21.9976C116.463 22.2437 116.454 22.4927 116.437 22.7446C116.425 22.9966 116.407 23.2456 116.384 23.4917C116.36 23.7319 116.328 23.9663 116.287 24.1948C116.252 24.4233 116.214 24.6343 116.173 24.8276H112.156V26.0581C112.156 26.5854 112.177 27.0308 112.218 27.394C112.259 27.7515 112.326 28.0415 112.42 28.2642C112.52 28.481 112.651 28.6392 112.815 28.7388C112.985 28.8325 113.196 28.8794 113.448 28.8794C113.583 28.8794 113.715 28.853 113.844 28.8003C113.973 28.7417 114.084 28.6479 114.178 28.519C114.277 28.3901 114.356 28.2202 114.415 28.0093C114.474 27.7925 114.503 27.5259 114.503 27.2095V26.8315H116.357V27.2974C116.357 28.4458 116.082 29.2837 115.531 29.811C114.986 30.3325 114.195 30.5933 113.158 30.5933ZM114.389 23.3335C114.395 23.269 114.4 23.1841 114.406 23.0786C114.412 22.9673 114.415 22.853 114.415 22.7358C114.421 22.6187 114.424 22.5044 114.424 22.3931C114.424 22.2759 114.424 22.1763 114.424 22.0942C114.424 21.2974 114.33 20.7231 114.143 20.3716C113.955 20.02 113.677 19.8442 113.308 19.8442C113.114 19.8442 112.944 19.8911 112.798 19.9849C112.651 20.0728 112.531 20.2251 112.438 20.4419C112.344 20.6528 112.273 20.9341 112.227 21.2856C112.18 21.6372 112.156 22.0737 112.156 22.5952V23.3335H114.389ZM117.869 27.9302C117.869 27.6665 117.893 27.4116 117.939 27.1655C117.992 26.9194 118.042 26.7231 118.089 26.5767H119.653C119.653 27.0161 119.674 27.3853 119.715 27.6841C119.762 27.9771 119.835 28.2114 119.935 28.3872C120.034 28.563 120.166 28.689 120.33 28.7651C120.5 28.8413 120.705 28.8794 120.945 28.8794C121.279 28.8794 121.522 28.7856 121.675 28.5981C121.827 28.4106 121.903 28.1938 121.903 27.9478C121.903 27.8188 121.886 27.6958 121.851 27.5786C121.815 27.4614 121.766 27.3442 121.701 27.2271C121.637 27.104 121.558 26.981 121.464 26.8579C121.37 26.7349 121.265 26.6001 121.147 26.4536L119.521 24.5376C119.311 24.2739 119.105 24.0073 118.906 23.7378C118.713 23.4624 118.54 23.1812 118.388 22.894C118.241 22.6011 118.121 22.2964 118.027 21.98C117.939 21.6636 117.896 21.3296 117.896 20.978C117.896 20.5093 117.975 20.1021 118.133 19.7563C118.297 19.4106 118.514 19.1235 118.783 18.895C119.059 18.6665 119.375 18.4966 119.732 18.3853C120.09 18.2739 120.468 18.2183 120.866 18.2183C121.306 18.2183 121.701 18.271 122.053 18.3765C122.404 18.4819 122.706 18.6401 122.958 18.8511C123.21 19.062 123.403 19.3257 123.538 19.6421C123.673 19.9526 123.74 20.3159 123.74 20.7319C123.74 21.0132 123.714 21.2856 123.661 21.5493C123.614 21.813 123.567 22.0386 123.521 22.2261H121.982C121.977 21.8276 121.959 21.479 121.93 21.1802C121.9 20.8813 121.845 20.6353 121.763 20.4419C121.687 20.2427 121.578 20.0933 121.438 19.9937C121.303 19.894 121.124 19.8442 120.901 19.8442C120.708 19.8442 120.547 19.8765 120.418 19.9409C120.289 19.9995 120.184 20.0786 120.102 20.1782C120.025 20.2778 119.97 20.3892 119.935 20.5122C119.905 20.6353 119.891 20.7612 119.891 20.8901C119.891 21.1714 119.958 21.4321 120.093 21.6724C120.228 21.9126 120.406 22.1733 120.629 22.4546L122.404 24.5376C122.533 24.6958 122.683 24.8892 122.853 25.1177C123.022 25.3403 123.184 25.5894 123.336 25.8647C123.488 26.1343 123.617 26.4302 123.723 26.7524C123.828 27.0747 123.881 27.4116 123.881 27.7632C123.881 28.1909 123.813 28.5806 123.679 28.9321C123.544 29.2778 123.345 29.5737 123.081 29.8198C122.817 30.0659 122.492 30.2563 122.105 30.3911C121.725 30.5259 121.288 30.5933 120.796 30.5933C120.392 30.5933 120.011 30.5493 119.653 30.4614C119.296 30.3677 118.985 30.2183 118.722 30.0132C118.458 29.8022 118.25 29.5269 118.098 29.187C117.945 28.8472 117.869 28.4282 117.869 27.9302ZM125.164 27.9302C125.164 27.6665 125.188 27.4116 125.234 27.1655C125.287 26.9194 125.337 26.7231 125.384 26.5767H126.948C126.948 27.0161 126.969 27.3853 127.01 27.6841C127.057 27.9771 127.13 28.2114 127.229 28.3872C127.329 28.563 127.461 28.689 127.625 28.7651C127.795 28.8413 128 28.8794 128.24 28.8794C128.574 28.8794 128.817 28.7856 128.97 28.5981C129.122 28.4106 129.198 28.1938 129.198 27.9478C129.198 27.8188 129.181 27.6958 129.146 27.5786C129.11 27.4614 129.061 27.3442 128.996 27.2271C128.932 27.104 128.853 26.981 128.759 26.8579C128.665 26.7349 128.56 26.6001 128.442 26.4536L126.816 24.5376C126.605 24.2739 126.4 24.0073 126.201 23.7378C126.008 23.4624 125.835 23.1812 125.683 22.894C125.536 22.6011 125.416 22.2964 125.322 21.98C125.234 21.6636 125.19 21.3296 125.19 20.978C125.19 20.5093 125.27 20.1021 125.428 19.7563C125.592 19.4106 125.809 19.1235 126.078 18.895C126.354 18.6665 126.67 18.4966 127.027 18.3853C127.385 18.2739 127.763 18.2183 128.161 18.2183C128.601 18.2183 128.996 18.271 129.348 18.3765C129.699 18.4819 130.001 18.6401 130.253 18.8511C130.505 19.062 130.698 19.3257 130.833 19.6421C130.968 19.9526 131.035 20.3159 131.035 20.7319C131.035 21.0132 131.009 21.2856 130.956 21.5493C130.909 21.813 130.862 22.0386 130.815 22.2261H129.277C129.271 21.8276 129.254 21.479 129.225 21.1802C129.195 20.8813 129.14 20.6353 129.058 20.4419C128.981 20.2427 128.873 20.0933 128.732 19.9937C128.598 19.894 128.419 19.8442 128.196 19.8442C128.003 19.8442 127.842 19.8765 127.713 19.9409C127.584 19.9995 127.479 20.0786 127.396 20.1782C127.32 20.2778 127.265 20.3892 127.229 20.5122C127.2 20.6353 127.186 20.7612 127.186 20.8901C127.186 21.1714 127.253 21.4321 127.388 21.6724C127.522 21.9126 127.701 22.1733 127.924 22.4546L129.699 24.5376C129.828 24.6958 129.978 24.8892 130.147 25.1177C130.317 25.3403 130.479 25.5894 130.631 25.8647C130.783 26.1343 130.912 26.4302 131.018 26.7524C131.123 27.0747 131.176 27.4116 131.176 27.7632C131.176 28.1909 131.108 28.5806 130.974 28.9321C130.839 29.2778 130.64 29.5737 130.376 29.8198C130.112 30.0659 129.787 30.2563 129.4 30.3911C129.02 30.5259 128.583 30.5933 128.091 30.5933C127.687 30.5933 127.306 30.5493 126.948 30.4614C126.591 30.3677 126.28 30.2183 126.017 30.0132C125.753 29.8022 125.545 29.5269 125.393 29.187C125.24 28.8472 125.164 28.4282 125.164 27.9302ZM132.934 18.3589H134.656L134.85 19.6509V19.6597C135.025 19.3843 135.213 19.1558 135.412 18.9741C135.611 18.7866 135.816 18.6372 136.027 18.5259C136.244 18.4146 136.464 18.3354 136.687 18.2886C136.915 18.2417 137.141 18.2183 137.363 18.2183C137.838 18.2183 138.239 18.3325 138.567 18.561C138.896 18.7896 139.145 19.1323 139.314 19.5894C139.49 19.3257 139.675 19.106 139.868 18.9302C140.067 18.7544 140.272 18.6138 140.483 18.5083C140.694 18.4028 140.908 18.3296 141.125 18.2886C141.342 18.2417 141.562 18.2183 141.784 18.2183C142.487 18.2183 143.029 18.4673 143.41 18.9653C143.797 19.4575 143.99 20.1987 143.99 21.189V30.4614H141.767V21.2681C141.767 21.0044 141.746 20.7817 141.705 20.6001C141.664 20.4185 141.603 20.272 141.521 20.1606C141.438 20.0493 141.333 19.9702 141.204 19.9233C141.075 19.8706 140.92 19.8442 140.738 19.8442C140.533 19.8442 140.328 19.9204 140.123 20.0728C139.918 20.2192 139.73 20.4243 139.561 20.688C139.566 20.7407 139.569 20.7935 139.569 20.8462C139.569 20.8989 139.569 20.9517 139.569 21.0044V30.4614H137.346V21.2681C137.346 21.0044 137.325 20.7817 137.284 20.6001C137.243 20.4185 137.182 20.272 137.1 20.1606C137.018 20.0493 136.912 19.9702 136.783 19.9233C136.654 19.8706 136.499 19.8442 136.317 19.8442C136.118 19.8442 135.916 19.9175 135.711 20.064C135.506 20.2104 135.321 20.4126 135.157 20.6704V30.4614H132.934V18.3589ZM149.211 30.5933C148.689 30.5933 148.227 30.4966 147.822 30.3032C147.424 30.1099 147.087 29.8081 146.812 29.3979C146.536 28.9878 146.328 28.4634 146.188 27.8247C146.047 27.1802 145.977 26.4067 145.977 25.5044V23.2192C145.977 22.4517 146.032 21.7954 146.144 21.2505C146.261 20.6997 146.41 20.2397 146.592 19.8706C146.779 19.4956 146.993 19.1997 147.233 18.9829C147.479 18.7661 147.731 18.6021 147.989 18.4907C148.247 18.3735 148.502 18.3003 148.754 18.271C149.012 18.2358 149.249 18.2183 149.466 18.2183C149.864 18.2183 150.248 18.2798 150.617 18.4028C150.986 18.52 151.312 18.7251 151.593 19.0181C151.874 19.3052 152.097 19.6919 152.261 20.1782C152.431 20.6646 152.516 21.271 152.516 21.9976C152.516 22.2437 152.507 22.4927 152.489 22.7446C152.478 22.9966 152.46 23.2456 152.437 23.4917C152.413 23.7319 152.381 23.9663 152.34 24.1948C152.305 24.4233 152.267 24.6343 152.226 24.8276H148.209V26.0581C148.209 26.5854 148.229 27.0308 148.271 27.394C148.312 27.7515 148.379 28.0415 148.473 28.2642C148.572 28.481 148.704 28.6392 148.868 28.7388C149.038 28.8325 149.249 28.8794 149.501 28.8794C149.636 28.8794 149.768 28.853 149.896 28.8003C150.025 28.7417 150.137 28.6479 150.23 28.519C150.33 28.3901 150.409 28.2202 150.468 28.0093C150.526 27.7925 150.556 27.5259 150.556 27.2095V26.8315H152.41V27.2974C152.41 28.4458 152.135 29.2837 151.584 29.811C151.039 30.3325 150.248 30.5933 149.211 30.5933ZM150.441 23.3335C150.447 23.269 150.453 23.1841 150.459 23.0786C150.465 22.9673 150.468 22.853 150.468 22.7358C150.474 22.6187 150.477 22.5044 150.477 22.3931C150.477 22.2759 150.477 22.1763 150.477 22.0942C150.477 21.2974 150.383 20.7231 150.195 20.3716C150.008 20.02 149.729 19.8442 149.36 19.8442C149.167 19.8442 148.997 19.8911 148.851 19.9849C148.704 20.0728 148.584 20.2251 148.49 20.4419C148.396 20.6528 148.326 20.9341 148.279 21.2856C148.232 21.6372 148.209 22.0737 148.209 22.5952V23.3335H150.441ZM154.396 18.3589H156.11L156.312 19.6509V19.6597C156.488 19.3843 156.676 19.1558 156.875 18.9741C157.08 18.7866 157.291 18.6372 157.508 18.5259C157.725 18.4146 157.944 18.3354 158.167 18.2886C158.396 18.2417 158.621 18.2183 158.844 18.2183C159.553 18.2183 160.098 18.4673 160.479 18.9653C160.865 19.4575 161.059 20.1987 161.059 21.189V30.4614H158.835V21.2681C158.835 20.7349 158.753 20.3657 158.589 20.1606C158.425 19.9497 158.185 19.8442 157.868 19.8442C157.646 19.8442 157.423 19.9175 157.2 20.064C156.983 20.2104 156.79 20.4126 156.62 20.6704V30.4614H154.396V18.3589ZM163.616 19.9409H162.676V18.3589H163.81L164.258 15.2212H165.84V18.3589H167.773V19.9409H165.84V27.6401C165.84 27.9038 165.863 28.1177 165.91 28.2817C165.963 28.4399 166.033 28.5659 166.121 28.6597C166.209 28.7476 166.312 28.8062 166.429 28.8354C166.546 28.8647 166.669 28.8794 166.798 28.8794C167.015 28.8794 167.205 28.853 167.369 28.8003C167.539 28.7476 167.7 28.6743 167.853 28.5806V29.811C167.724 29.9692 167.583 30.0981 167.431 30.1978C167.284 30.2974 167.132 30.3794 166.974 30.4438C166.815 30.5024 166.654 30.5435 166.49 30.5669C166.326 30.5903 166.165 30.6021 166.007 30.6021C165.696 30.6021 165.397 30.561 165.11 30.479C164.823 30.397 164.568 30.2417 164.346 30.0132C164.123 29.7788 163.944 29.4565 163.81 29.0464C163.681 28.6362 163.616 28.103 163.616 27.4468V19.9409ZM174.682 17.2427H172.265V15.4497H179.366V17.2427H176.958V30.4614H174.682V17.2427ZM183.682 30.5933C183.16 30.5933 182.697 30.4966 182.293 30.3032C181.895 30.1099 181.558 29.8081 181.282 29.3979C181.007 28.9878 180.799 28.4634 180.658 27.8247C180.518 27.1802 180.447 26.4067 180.447 25.5044V23.2192C180.447 22.4517 180.503 21.7954 180.614 21.2505C180.731 20.6997 180.881 20.2397 181.062 19.8706C181.25 19.4956 181.464 19.1997 181.704 18.9829C181.95 18.7661 182.202 18.6021 182.46 18.4907C182.718 18.3735 182.973 18.3003 183.225 18.271C183.482 18.2358 183.72 18.2183 183.937 18.2183C184.335 18.2183 184.719 18.2798 185.088 18.4028C185.457 18.52 185.782 18.7251 186.063 19.0181C186.345 19.3052 186.567 19.6919 186.731 20.1782C186.901 20.6646 186.986 21.271 186.986 21.9976C186.986 22.2437 186.978 22.4927 186.96 22.7446C186.948 22.9966 186.931 23.2456 186.907 23.4917C186.884 23.7319 186.852 23.9663 186.811 24.1948C186.775 24.4233 186.737 24.6343 186.696 24.8276H182.68V26.0581C182.68 26.5854 182.7 27.0308 182.741 27.394C182.782 27.7515 182.85 28.0415 182.943 28.2642C183.043 28.481 183.175 28.6392 183.339 28.7388C183.509 28.8325 183.72 28.8794 183.972 28.8794C184.106 28.8794 184.238 28.853 184.367 28.8003C184.496 28.7417 184.607 28.6479 184.701 28.519C184.801 28.3901 184.88 28.2202 184.938 28.0093C184.997 27.7925 185.026 27.5259 185.026 27.2095V26.8315H186.881V27.2974C186.881 28.4458 186.605 29.2837 186.055 29.811C185.51 30.3325 184.719 30.5933 183.682 30.5933ZM184.912 23.3335C184.918 23.269 184.924 23.1841 184.93 23.0786C184.936 22.9673 184.938 22.853 184.938 22.7358C184.944 22.6187 184.947 22.5044 184.947 22.3931C184.947 22.2759 184.947 22.1763 184.947 22.0942C184.947 21.2974 184.854 20.7231 184.666 20.3716C184.479 20.02 184.2 19.8442 183.831 19.8442C183.638 19.8442 183.468 19.8911 183.321 19.9849C183.175 20.0728 183.055 20.2251 182.961 20.4419C182.867 20.6528 182.797 20.9341 182.75 21.2856C182.703 21.6372 182.68 22.0737 182.68 22.5952V23.3335H184.912ZM188.393 27.9302C188.393 27.6665 188.416 27.4116 188.463 27.1655C188.516 26.9194 188.565 26.7231 188.612 26.5767H190.177C190.177 27.0161 190.197 27.3853 190.238 27.6841C190.285 27.9771 190.358 28.2114 190.458 28.3872C190.558 28.563 190.689 28.689 190.854 28.7651C191.023 28.8413 191.229 28.8794 191.469 28.8794C191.803 28.8794 192.046 28.7856 192.198 28.5981C192.351 28.4106 192.427 28.1938 192.427 27.9478C192.427 27.8188 192.409 27.6958 192.374 27.5786C192.339 27.4614 192.289 27.3442 192.225 27.2271C192.16 27.104 192.081 26.981 191.987 26.8579C191.894 26.7349 191.788 26.6001 191.671 26.4536L190.045 24.5376C189.834 24.2739 189.629 24.0073 189.43 23.7378C189.236 23.4624 189.063 23.1812 188.911 22.894C188.765 22.6011 188.645 22.2964 188.551 21.98C188.463 21.6636 188.419 21.3296 188.419 20.978C188.419 20.5093 188.498 20.1021 188.656 19.7563C188.82 19.4106 189.037 19.1235 189.307 18.895C189.582 18.6665 189.898 18.4966 190.256 18.3853C190.613 18.2739 190.991 18.2183 191.39 18.2183C191.829 18.2183 192.225 18.271 192.576 18.3765C192.928 18.4819 193.229 18.6401 193.481 18.8511C193.733 19.062 193.927 19.3257 194.062 19.6421C194.196 19.9526 194.264 20.3159 194.264 20.7319C194.264 21.0132 194.237 21.2856 194.185 21.5493C194.138 21.813 194.091 22.0386 194.044 22.2261H192.506C192.5 21.8276 192.482 21.479 192.453 21.1802C192.424 20.8813 192.368 20.6353 192.286 20.4419C192.21 20.2427 192.102 20.0933 191.961 19.9937C191.826 19.894 191.647 19.8442 191.425 19.8442C191.231 19.8442 191.07 19.8765 190.941 19.9409C190.812 19.9995 190.707 20.0786 190.625 20.1782C190.549 20.2778 190.493 20.3892 190.458 20.5122C190.429 20.6353 190.414 20.7612 190.414 20.8901C190.414 21.1714 190.481 21.4321 190.616 21.6724C190.751 21.9126 190.93 22.1733 191.152 22.4546L192.928 24.5376C193.057 24.6958 193.206 24.8892 193.376 25.1177C193.546 25.3403 193.707 25.5894 193.859 25.8647C194.012 26.1343 194.141 26.4302 194.246 26.7524C194.352 27.0747 194.404 27.4116 194.404 27.7632C194.404 28.1909 194.337 28.5806 194.202 28.9321C194.067 29.2778 193.868 29.5737 193.604 29.8198C193.341 30.0659 193.016 30.2563 192.629 30.3911C192.248 30.5259 191.812 30.5933 191.319 30.5933C190.915 30.5933 190.534 30.5493 190.177 30.4614C189.819 30.3677 189.509 30.2183 189.245 30.0132C188.981 29.8022 188.773 29.5269 188.621 29.187C188.469 28.8472 188.393 28.4282 188.393 27.9302ZM196.417 19.9409H195.477V18.3589H196.61L197.059 15.2212H198.641V18.3589H200.574V19.9409H198.641V27.6401C198.641 27.9038 198.664 28.1177 198.711 28.2817C198.764 28.4399 198.834 28.5659 198.922 28.6597C199.01 28.7476 199.112 28.8062 199.229 28.8354C199.347 28.8647 199.47 28.8794 199.599 28.8794C199.815 28.8794 200.006 28.853 200.17 28.8003C200.34 28.7476 200.501 28.6743 200.653 28.5806V29.811C200.524 29.9692 200.384 30.0981 200.231 30.1978C200.085 30.2974 199.933 30.3794 199.774 30.4438C199.616 30.5024 199.455 30.5435 199.291 30.5669C199.127 30.5903 198.966 30.6021 198.808 30.6021C198.497 30.6021 198.198 30.561 197.911 30.479C197.624 30.397 197.369 30.2417 197.146 30.0132C196.924 29.7788 196.745 29.4565 196.61 29.0464C196.481 28.6362 196.417 28.103 196.417 27.4468V19.9409Z" fill="white"/>
<path d="M245.907 23.0587C245.891 22.687 245.726 22.2574 245.451 21.9865L236.484 13.1487C235.877 12.6422 234.712 12.4331 234.032 13.0188C233.363 13.5955 233.383 14.7141 234.05 15.2932L240.355 21.4991H213.681C212.753 21.4991 212 22.1974 212 23.0587C212 23.92 212.753 24.6183 213.681 24.6183H240.355L234.05 30.8243C233.476 31.3574 233.37 32.5153 234.032 33.0987C234.695 33.682 235.902 33.4957 236.484 32.9687L245.451 24.1309C245.758 23.8285 245.908 23.4736 245.907 23.0587Z" fill="white"/>
</svg>
