<svg width="50" height="50" viewBox="0 0 50 50" fill="none" xmlns="http://www.w3.org/2000/svg">
<rect x="1" y="1" width="48" height="48" rx="4" fill="white" stroke="#155777" stroke-width="2"/>
<path d="M41.9319 35.6909C41.5397 35.5943 41.1945 35.4478 40.8977 35.2545C40.5042 34.988 40.2013 34.7049 39.9889 34.408C39.7753 34.1083 39.6015 33.7797 39.4615 33.4123C38.6324 31.1765 37.6295 28.358 36.4504 24.9539C35.2701 21.5499 33.6396 16.9195 31.5578 11.0574H28.3705C26.8728 15.192 25.5042 18.9703 24.2684 22.3992C23.0302 25.8267 21.7956 29.2501 20.5634 32.6652C20.3618 33.248 20.1096 33.7548 19.8067 34.1787C19.5037 34.6055 19.1344 34.9631 18.7 35.2545C18.4441 35.4382 18.0966 35.5804 17.6561 35.6826C17.2156 35.7848 16.8197 35.8497 16.4685 35.8746V37.2956H25.7444V35.8746C24.5436 35.7531 23.6843 35.5556 23.1702 35.2808C22.6536 35.0087 22.3966 34.6759 22.3966 34.2879C22.3966 34.1664 22.4147 33.9537 22.4533 33.6485C22.4883 33.3461 22.609 32.8531 22.8117 32.1736C22.971 31.6503 23.1593 31.055 23.3777 30.3852C23.5455 29.8729 23.6976 29.4227 23.8424 29.0098H31.9175L33.7108 33.9965C33.7845 34.2009 33.8303 34.3666 33.8448 34.4867C33.8617 34.6082 33.8701 34.7187 33.8701 34.8154C33.8701 35.0957 33.4827 35.3277 32.7067 35.5169C31.9307 35.7061 31.5059 35.8248 30.9315 35.8732V37.2956H43V35.8746C42.6814 35.8497 42.3242 35.7904 41.9319 35.6909ZM30.9242 26.2479H24.8127L27.8467 17.4581L30.9242 26.2479Z" fill="#155777"/>
<path d="M26.7642 36.113C26.4746 36.0398 26.2199 35.9348 26.0003 35.7898C25.7106 35.5923 25.4874 35.3852 25.3305 35.167C25.1748 34.9461 25.0456 34.703 24.9443 34.4337C24.3336 32.7862 23.5938 30.7093 22.7236 28.2001C21.8559 25.6923 20.6539 22.2799 19.12 17.9617H16.7726C15.6696 21.0067 14.6606 23.7934 13.7483 26.3206C12.8359 28.845 11.9259 31.3667 11.0183 33.8842C10.8699 34.3123 10.6841 34.6851 10.4608 35.0013C10.2375 35.3148 9.96597 35.5786 9.64494 35.7912C9.45667 35.9266 9.20082 36.0315 8.87497 36.1088C8.54912 36.1848 8.25706 36.2303 8 36.2497V37.2951H14.8332V36.2483C13.9498 36.1586 13.3162 36.0136 12.9372 35.812C12.5595 35.6104 12.3676 35.3673 12.3676 35.0787C12.3676 34.9903 12.3821 34.8328 12.4099 34.6091C12.4352 34.3854 12.5233 34.0236 12.673 33.5223C12.79 33.137 12.9288 32.6965 13.0905 32.2035C13.1316 32.0764 13.3765 31.3653 13.7133 30.3903H19.1188L20.7046 34.8646C20.7589 35.0151 20.7915 35.1367 20.8035 35.2264C20.8156 35.3148 20.8229 35.3962 20.8229 35.4694C20.8229 35.6738 20.5356 35.8464 19.9648 35.9873C19.3915 36.1254 18.8955 36.2138 18.4731 36.2497V37.2951H27.3109V36.2483C27.3109 36.2483 27.0539 36.1862 26.7642 36.113ZM14.1912 29.0093C15.1506 26.2364 16.384 22.679 16.384 22.679L18.6288 29.0093H14.1912Z" fill="#155777"/>
</svg>
