<svg width="70" height="70" viewBox="0 0 70 70" fill="none" xmlns="http://www.w3.org/2000/svg">
<circle cx="35" cy="35" r="35" fill="#EAA74B"/>
<path fill-rule="evenodd" clip-rule="evenodd" d="M20.7816 25.9426H25.8391V22.9081C25.8391 21.2644 27.1035 20 28.6207 20H40.3794C41.8966 20 43.2874 21.2644 43.2874 22.9081V25.9426H48.2185C49.7357 25.9426 51.0001 27.207 51.0001 28.7243V46.4256C51.0001 47.9429 49.7357 49.2073 48.2185 49.2073H20.7816C19.2644 49.2073 18 47.9429 18 46.4256V28.7243C18 27.207 19.2644 25.9426 20.7816 25.9426ZM33.9311 29.8622V31.3795C32.161 31.6323 31.023 32.8967 31.023 34.2875C31.023 36.1841 32.2874 37.1956 34.4368 37.9543C35.5748 38.3336 36.207 38.5864 36.207 39.598C36.207 42.3796 32.6667 40.8623 31.4023 40.1037L30.5173 41.8738C31.023 42.1267 32.2874 42.8854 33.9311 43.0118V44.7819H35.4483V42.8854C37.4713 42.506 38.4828 40.9888 38.4828 39.4715C38.4828 37.7014 37.3449 36.9427 35.4483 36.1841C33.9311 35.5519 33.2989 35.1726 33.2989 34.0347C33.2989 32.1381 36.5863 33.276 37.5978 33.7818L38.3564 32.1381C37.9771 32.0117 36.8391 31.3795 35.4483 31.253V29.8622H33.9311ZM27.8621 25.9426H41.138V22.9081C41.138 22.5288 40.7587 22.1495 40.3794 22.1495H28.6207C28.2414 22.1495 27.8621 22.5288 27.8621 22.9081V25.9426Z" fill="white"/>
</svg>
