<svg width="203" height="53" viewBox="0 0 203 53" fill="none" xmlns="http://www.w3.org/2000/svg">
<rect x="2" y="2.60498" width="199" height="47.7137" stroke="#CC3E16" stroke-width="4"/>
<path d="M23.2832 18.9155H25.7529C26.0342 18.9155 26.3418 18.9272 26.6758 18.9507C27.0156 18.9741 27.3525 19.0327 27.6865 19.1265C28.0264 19.2144 28.3516 19.3491 28.6621 19.5308C28.9785 19.7124 29.2568 19.9614 29.4971 20.2778C29.7432 20.5942 29.9395 20.9927 30.0859 21.4731C30.2324 21.9478 30.3057 22.5249 30.3057 23.2046V23.5825C30.3057 24.7251 30.1416 25.6567 29.8135 26.3774C29.4854 27.0923 29.002 27.6079 28.3633 27.9243L30.7715 33.9272H28.3633L26.3682 28.311H25.5156V33.9272H23.2832V18.9155ZM25.8584 26.6675C26.2568 26.6675 26.5938 26.6235 26.8691 26.5356C27.1445 26.4478 27.3672 26.3013 27.5371 26.0962C27.707 25.8853 27.8301 25.6099 27.9062 25.27C27.9824 24.9243 28.0205 24.4995 28.0205 23.9956V22.8091C28.0205 22.4224 27.9854 22.0884 27.915 21.8071C27.8447 21.5259 27.7246 21.2944 27.5547 21.1128C27.3906 20.9312 27.1709 20.7964 26.8955 20.7085C26.6201 20.6206 26.2744 20.5767 25.8584 20.5767H25.5156V26.6675H25.8584ZM35.2715 34.0591C34.75 34.0591 34.2871 33.9624 33.8828 33.769C33.4844 33.5757 33.1475 33.2739 32.8721 32.8638C32.5967 32.4536 32.3887 31.9292 32.248 31.2905C32.1074 30.646 32.0371 29.8726 32.0371 28.9702V26.6851C32.0371 25.9175 32.0928 25.2612 32.2041 24.7163C32.3213 24.1655 32.4707 23.7056 32.6523 23.3364C32.8398 22.9614 33.0537 22.6655 33.2939 22.4487C33.54 22.2319 33.792 22.0679 34.0498 21.9565C34.3076 21.8394 34.5625 21.7661 34.8145 21.7368C35.0723 21.7017 35.3096 21.6841 35.5264 21.6841C35.9248 21.6841 36.3086 21.7456 36.6777 21.8687C37.0469 21.9858 37.3721 22.1909 37.6533 22.4839C37.9346 22.771 38.1572 23.1577 38.3213 23.644C38.4912 24.1304 38.5762 24.7368 38.5762 25.4634C38.5762 25.7095 38.5674 25.9585 38.5498 26.2104C38.5381 26.4624 38.5205 26.7114 38.4971 26.9575C38.4736 27.1978 38.4414 27.4321 38.4004 27.6606C38.3652 27.8892 38.3271 28.1001 38.2861 28.2935H34.2695V29.5239C34.2695 30.0513 34.29 30.4966 34.3311 30.8599C34.3721 31.2173 34.4395 31.5073 34.5332 31.73C34.6328 31.9468 34.7646 32.105 34.9287 32.2046C35.0986 32.2983 35.3096 32.3452 35.5615 32.3452C35.6963 32.3452 35.8281 32.3188 35.957 32.2661C36.0859 32.2075 36.1973 32.1138 36.291 31.9849C36.3906 31.856 36.4697 31.686 36.5283 31.4751C36.5869 31.2583 36.6162 30.9917 36.6162 30.6753V30.2974H38.4707V30.7632C38.4707 31.9116 38.1953 32.7495 37.6445 33.2769C37.0996 33.7983 36.3086 34.0591 35.2715 34.0591ZM36.502 26.7993C36.5078 26.7349 36.5137 26.6499 36.5195 26.5444C36.5254 26.4331 36.5283 26.3188 36.5283 26.2017C36.5342 26.0845 36.5371 25.9702 36.5371 25.8589C36.5371 25.7417 36.5371 25.6421 36.5371 25.5601C36.5371 24.7632 36.4434 24.189 36.2559 23.8374C36.0684 23.4858 35.79 23.3101 35.4209 23.3101C35.2275 23.3101 35.0576 23.3569 34.9111 23.4507C34.7646 23.5386 34.6445 23.6909 34.5508 23.9077C34.457 24.1187 34.3867 24.3999 34.3398 24.7515C34.293 25.103 34.2695 25.5396 34.2695 26.061V26.7993H36.502ZM39.9824 31.396C39.9824 31.1323 40.0059 30.8774 40.0527 30.6313C40.1055 30.3853 40.1553 30.189 40.2021 30.0425H41.7666C41.7666 30.4819 41.7871 30.8511 41.8281 31.1499C41.875 31.4429 41.9482 31.6772 42.0479 31.853C42.1475 32.0288 42.2793 32.1548 42.4434 32.231C42.6133 32.3071 42.8184 32.3452 43.0586 32.3452C43.3926 32.3452 43.6357 32.2515 43.7881 32.064C43.9404 31.8765 44.0166 31.6597 44.0166 31.4136C44.0166 31.2847 43.999 31.1616 43.9639 31.0444C43.9287 30.9272 43.8789 30.8101 43.8145 30.6929C43.75 30.5698 43.6709 30.4468 43.5771 30.3237C43.4834 30.2007 43.3779 30.0659 43.2607 29.9194L41.6348 28.0034C41.4238 27.7397 41.2188 27.4731 41.0195 27.2036C40.8262 26.9282 40.6533 26.647 40.501 26.3599C40.3545 26.0669 40.2344 25.7622 40.1406 25.4458C40.0527 25.1294 40.0088 24.7954 40.0088 24.4438C40.0088 23.9751 40.0879 23.5679 40.2461 23.2222C40.4102 22.8765 40.627 22.5894 40.8965 22.3608C41.1719 22.1323 41.4883 21.9624 41.8457 21.8511C42.2031 21.7397 42.5811 21.6841 42.9795 21.6841C43.4189 21.6841 43.8145 21.7368 44.166 21.8423C44.5176 21.9478 44.8193 22.106 45.0713 22.3169C45.3232 22.5278 45.5166 22.7915 45.6514 23.1079C45.7861 23.4185 45.8535 23.7817 45.8535 24.1978C45.8535 24.479 45.8271 24.7515 45.7744 25.0151C45.7275 25.2788 45.6807 25.5044 45.6338 25.6919H44.0957C44.0898 25.2935 44.0723 24.9448 44.043 24.646C44.0137 24.3472 43.958 24.1011 43.876 23.9077C43.7998 23.7085 43.6914 23.5591 43.5508 23.4595C43.416 23.3599 43.2373 23.3101 43.0146 23.3101C42.8213 23.3101 42.6602 23.3423 42.5312 23.4067C42.4023 23.4653 42.2969 23.5444 42.2148 23.644C42.1387 23.7437 42.083 23.855 42.0479 23.978C42.0186 24.1011 42.0039 24.2271 42.0039 24.356C42.0039 24.6372 42.0713 24.8979 42.2061 25.1382C42.3408 25.3784 42.5195 25.6392 42.7422 25.9204L44.5176 28.0034C44.6465 28.1616 44.7959 28.355 44.9658 28.5835C45.1357 28.8062 45.2969 29.0552 45.4492 29.3306C45.6016 29.6001 45.7305 29.896 45.8359 30.2183C45.9414 30.5405 45.9941 30.8774 45.9941 31.229C45.9941 31.6567 45.9268 32.0464 45.792 32.3979C45.6572 32.7437 45.458 33.0396 45.1943 33.2856C44.9307 33.5317 44.6055 33.7222 44.2188 33.8569C43.8379 33.9917 43.4014 34.0591 42.9092 34.0591C42.5049 34.0591 42.124 34.0151 41.7666 33.9272C41.4092 33.8335 41.0986 33.6841 40.835 33.479C40.5713 33.2681 40.3633 32.9927 40.2109 32.6528C40.0586 32.313 39.9824 31.894 39.9824 31.396ZM50.8018 34.0591C50.5439 34.0591 50.2803 34.0386 50.0107 33.9976C49.7471 33.9565 49.4893 33.8716 49.2373 33.7427C48.9912 33.6138 48.7568 33.4292 48.5342 33.189C48.3174 32.9487 48.127 32.6323 47.9629 32.2397C47.7988 31.8472 47.6699 31.3638 47.5762 30.7896C47.4824 30.2153 47.4355 29.5298 47.4355 28.7329V26.8345C47.4355 26.0493 47.4824 25.3784 47.5762 24.8218C47.6758 24.2593 47.8076 23.7876 47.9717 23.4067C48.1416 23.0259 48.3379 22.7241 48.5605 22.5015C48.7832 22.2729 49.0176 22.1001 49.2637 21.9829C49.5156 21.8599 49.7734 21.7808 50.0371 21.7456C50.3008 21.7046 50.5586 21.6841 50.8105 21.6841C51.0508 21.6841 51.2998 21.7017 51.5576 21.7368C51.8154 21.772 52.0674 21.8481 52.3135 21.9653C52.5596 22.0767 52.791 22.2466 53.0078 22.4751C53.2305 22.6978 53.4238 22.9995 53.5879 23.3804C53.7578 23.7612 53.8896 24.2358 53.9834 24.8042C54.083 25.3667 54.1328 26.0435 54.1328 26.8345V28.7329C54.1328 29.5181 54.083 30.1948 53.9834 30.7632C53.8838 31.3315 53.749 31.812 53.5791 32.2046C53.4092 32.5972 53.2129 32.9165 52.9902 33.1626C52.7676 33.4028 52.5332 33.5903 52.2871 33.7251C52.041 33.8599 51.7891 33.9478 51.5312 33.9888C51.2793 34.0356 51.0361 34.0591 50.8018 34.0591ZM50.8193 32.3452C51.0186 32.3452 51.1855 32.2954 51.3203 32.1958C51.4609 32.0903 51.5723 31.9204 51.6543 31.686C51.7422 31.4517 51.8037 31.144 51.8389 30.7632C51.8799 30.3765 51.9004 29.8989 51.9004 29.3306V26.3511C51.9004 25.7827 51.8799 25.3052 51.8389 24.9185C51.8037 24.5317 51.7422 24.2212 51.6543 23.9868C51.5723 23.7466 51.4609 23.5737 51.3203 23.4683C51.1855 23.3628 51.0186 23.3101 50.8193 23.3101C50.6084 23.3101 50.4297 23.3628 50.2832 23.4683C50.1426 23.5737 50.0254 23.7466 49.9316 23.9868C49.8379 24.2212 49.7705 24.5317 49.7295 24.9185C49.6885 25.3052 49.668 25.7827 49.668 26.3511V29.3306C49.668 29.8989 49.6885 30.3765 49.7295 30.7632C49.7705 31.144 49.8379 31.4517 49.9316 31.686C50.0254 31.9204 50.1426 32.0903 50.2832 32.1958C50.4297 32.2954 50.6084 32.3452 50.8193 32.3452ZM56.1191 21.8247H58.3428V30.9214C58.3428 31.4546 58.4248 31.8267 58.5889 32.0376C58.7529 32.2427 58.9932 32.3452 59.3096 32.3452C59.5322 32.3452 59.749 32.2837 59.96 32.1606C60.1709 32.0376 60.3613 31.8618 60.5312 31.6333V21.8247H62.7549V33.9272H61.0586L60.8389 32.6353H60.8301C60.6543 32.9106 60.4668 33.1421 60.2676 33.3296C60.0742 33.5112 59.8691 33.6577 59.6523 33.769C59.4414 33.8745 59.2246 33.9507 59.002 33.9976C58.7793 34.0444 58.5566 34.0679 58.334 34.0679C57.625 34.0679 57.0771 33.8218 56.6904 33.3296C56.3096 32.8374 56.1191 32.0933 56.1191 31.0972V21.8247ZM65.084 21.8247H66.71L66.9033 23.0552C67.1494 22.5981 67.4307 22.2554 67.7471 22.0269C68.0693 21.7983 68.3975 21.6841 68.7314 21.6841C69.3701 21.6841 69.8418 21.8804 70.1465 22.2729C70.4512 22.6655 70.6035 23.2544 70.6035 24.0396C70.6035 24.1392 70.5947 24.2593 70.5771 24.3999C70.5654 24.5347 70.5449 24.6782 70.5156 24.8306C70.4922 24.9771 70.46 25.1265 70.4189 25.2788C70.3838 25.4253 70.3457 25.5601 70.3047 25.6831H68.7578V24.5581C68.7578 24.312 68.7402 24.1099 68.7051 23.9517C68.6758 23.7935 68.6348 23.6675 68.582 23.5737C68.5293 23.4741 68.4678 23.4067 68.3975 23.3716C68.3271 23.3306 68.251 23.3101 68.1689 23.3101C67.9932 23.3101 67.8291 23.3687 67.6768 23.4858C67.5303 23.5972 67.4072 23.7554 67.3076 23.9604V33.9272H65.084V21.8247ZM74.8311 34.0591C73.8115 34.0591 73.0322 33.6401 72.4932 32.8022C71.96 31.9644 71.6934 30.687 71.6934 28.9702V26.6851C71.6934 25.9175 71.749 25.2612 71.8604 24.7163C71.9717 24.1655 72.1182 23.7056 72.2998 23.3364C72.4873 22.9614 72.6982 22.6655 72.9326 22.4487C73.1729 22.2319 73.4189 22.0679 73.6709 21.9565C73.9229 21.8394 74.1719 21.7661 74.418 21.7368C74.6641 21.7017 74.8896 21.6841 75.0947 21.6841C75.5049 21.6841 75.8799 21.7397 76.2197 21.8511C76.5596 21.9565 76.8525 22.1206 77.0986 22.3433C77.3447 22.5601 77.5352 22.8354 77.6699 23.1694C77.8047 23.5034 77.8721 23.896 77.8721 24.3472C77.8721 24.6284 77.8574 24.8716 77.8281 25.0767C77.8047 25.2759 77.7695 25.4692 77.7227 25.6567H75.9473V25.2524C75.9473 24.6431 75.874 24.1685 75.7275 23.8286C75.5869 23.4829 75.3525 23.3101 75.0244 23.3101C74.8428 23.3101 74.6846 23.354 74.5498 23.4419C74.415 23.5239 74.3008 23.6675 74.207 23.8726C74.1191 24.0776 74.0518 24.353 74.0049 24.6987C73.9639 25.0444 73.9434 25.478 73.9434 25.9995V29.436C73.9434 29.9634 73.9609 30.4116 73.9961 30.7808C74.0312 31.1499 74.0928 31.4517 74.1807 31.686C74.2686 31.9146 74.3857 32.0815 74.5322 32.187C74.6787 32.2925 74.8604 32.3452 75.0771 32.3452C75.1885 32.3452 75.2969 32.3188 75.4023 32.2661C75.5078 32.2075 75.5986 32.1138 75.6748 31.9849C75.7568 31.856 75.8213 31.686 75.8682 31.4751C75.9209 31.2583 75.9473 30.9917 75.9473 30.6753V30.2974H77.8633V30.7632C77.8633 31.9116 77.6084 32.7495 77.0986 33.2769C76.5947 33.7983 75.8389 34.0591 74.8311 34.0591ZM82.5918 34.0591C82.0703 34.0591 81.6074 33.9624 81.2031 33.769C80.8047 33.5757 80.4678 33.2739 80.1924 32.8638C79.917 32.4536 79.709 31.9292 79.5684 31.2905C79.4277 30.646 79.3574 29.8726 79.3574 28.9702V26.6851C79.3574 25.9175 79.4131 25.2612 79.5244 24.7163C79.6416 24.1655 79.791 23.7056 79.9727 23.3364C80.1602 22.9614 80.374 22.6655 80.6143 22.4487C80.8604 22.2319 81.1123 22.0679 81.3701 21.9565C81.6279 21.8394 81.8828 21.7661 82.1348 21.7368C82.3926 21.7017 82.6299 21.6841 82.8467 21.6841C83.2451 21.6841 83.6289 21.7456 83.998 21.8687C84.3672 21.9858 84.6924 22.1909 84.9736 22.4839C85.2549 22.771 85.4775 23.1577 85.6416 23.644C85.8115 24.1304 85.8965 24.7368 85.8965 25.4634C85.8965 25.7095 85.8877 25.9585 85.8701 26.2104C85.8584 26.4624 85.8408 26.7114 85.8174 26.9575C85.7939 27.1978 85.7617 27.4321 85.7207 27.6606C85.6855 27.8892 85.6475 28.1001 85.6064 28.2935H81.5898V29.5239C81.5898 30.0513 81.6104 30.4966 81.6514 30.8599C81.6924 31.2173 81.7598 31.5073 81.8535 31.73C81.9531 31.9468 82.085 32.105 82.249 32.2046C82.4189 32.2983 82.6299 32.3452 82.8818 32.3452C83.0166 32.3452 83.1484 32.3188 83.2773 32.2661C83.4062 32.2075 83.5176 32.1138 83.6113 31.9849C83.7109 31.856 83.79 31.686 83.8486 31.4751C83.9072 31.2583 83.9365 30.9917 83.9365 30.6753V30.2974H85.791V30.7632C85.791 31.9116 85.5156 32.7495 84.9648 33.2769C84.4199 33.7983 83.6289 34.0591 82.5918 34.0591ZM83.8223 26.7993C83.8281 26.7349 83.834 26.6499 83.8398 26.5444C83.8457 26.4331 83.8486 26.3188 83.8486 26.2017C83.8545 26.0845 83.8574 25.9702 83.8574 25.8589C83.8574 25.7417 83.8574 25.6421 83.8574 25.5601C83.8574 24.7632 83.7637 24.189 83.5762 23.8374C83.3887 23.4858 83.1104 23.3101 82.7412 23.3101C82.5479 23.3101 82.3779 23.3569 82.2314 23.4507C82.085 23.5386 81.9648 23.6909 81.8711 23.9077C81.7773 24.1187 81.707 24.3999 81.6602 24.7515C81.6133 25.103 81.5898 25.5396 81.5898 26.061V26.7993H83.8223ZM94.7998 34.0679C94.624 34.0679 94.4189 34.0474 94.1846 34.0063C93.9502 33.9712 93.707 33.8921 93.4551 33.769C93.209 33.646 92.9658 33.4731 92.7256 33.2505C92.4854 33.022 92.2686 32.7231 92.0752 32.354C91.8877 31.979 91.7354 31.522 91.6182 30.9829C91.501 30.438 91.4424 29.7905 91.4424 29.0405V23.7231C91.4424 22.9673 91.5039 22.3228 91.627 21.7896C91.75 21.2505 91.9141 20.7993 92.1191 20.436C92.3242 20.0669 92.5586 19.7739 92.8223 19.5571C93.0918 19.3403 93.3701 19.1763 93.6572 19.0649C93.9443 18.9478 94.2285 18.8716 94.5098 18.8364C94.791 18.8013 95.0518 18.7837 95.292 18.7837C95.9014 18.7837 96.4141 18.8687 96.8301 19.0386C97.252 19.2026 97.5918 19.4312 97.8496 19.7241C98.1133 20.0112 98.3008 20.3481 98.4121 20.7349C98.5293 21.1216 98.5879 21.5317 98.5879 21.9653C98.5879 22.2876 98.5674 22.5864 98.5264 22.8618C98.4912 23.1313 98.4414 23.4302 98.377 23.7583H96.5576V23.0464C96.5576 21.3999 96.1152 20.5767 95.2305 20.5767C94.9902 20.5767 94.7822 20.6177 94.6064 20.6997C94.4307 20.7817 94.2842 20.9224 94.167 21.1216C94.0498 21.3149 93.9619 21.5728 93.9033 21.895C93.8506 22.2173 93.8242 22.6187 93.8242 23.0991V29.9019C93.8242 30.3706 93.8506 30.7603 93.9033 31.0708C93.9619 31.3813 94.0469 31.6304 94.1582 31.8179C94.2754 32.0054 94.4189 32.1401 94.5889 32.2222C94.7646 32.2983 94.9727 32.3364 95.2129 32.3364C95.4648 32.3364 95.6816 32.272 95.8633 32.1431C96.0449 32.0083 96.1943 31.8267 96.3115 31.5981C96.4287 31.3696 96.5137 31.1001 96.5664 30.7896C96.625 30.479 96.6543 30.1421 96.6543 29.7788V27.8188H95.4854V26.3247H98.8691V33.9272H97.3574L97.1113 32.5034C96.8242 33.0601 96.4932 33.4614 96.1182 33.7075C95.749 33.9478 95.3096 34.0679 94.7998 34.0679ZM100.855 21.8247H103.079V30.9214C103.079 31.4546 103.161 31.8267 103.325 32.0376C103.489 32.2427 103.729 32.3452 104.046 32.3452C104.269 32.3452 104.485 32.2837 104.696 32.1606C104.907 32.0376 105.098 31.8618 105.268 31.6333V21.8247H107.491V33.9272H105.795L105.575 32.6353H105.566C105.391 32.9106 105.203 33.1421 105.004 33.3296C104.811 33.5112 104.605 33.6577 104.389 33.769C104.178 33.8745 103.961 33.9507 103.738 33.9976C103.516 34.0444 103.293 34.0679 103.07 34.0679C102.361 34.0679 101.813 33.8218 101.427 33.3296C101.046 32.8374 100.855 32.0933 100.855 31.0972V21.8247ZM111.007 20.0933C110.597 20.0933 110.271 19.9702 110.031 19.7241C109.797 19.478 109.68 19.1177 109.68 18.6431C109.68 18.3794 109.709 18.1597 109.768 17.9839C109.832 17.8022 109.92 17.6587 110.031 17.5532C110.148 17.4419 110.289 17.3628 110.453 17.3159C110.617 17.2632 110.805 17.2368 111.016 17.2368C111.455 17.2368 111.789 17.3481 112.018 17.5708C112.246 17.7935 112.36 18.1509 112.36 18.6431C112.36 19.1001 112.243 19.4575 112.009 19.7153C111.78 19.9673 111.446 20.0933 111.007 20.0933ZM109.855 21.8247H112.079V33.9272H109.855V21.8247ZM116.729 34.0679C116.594 34.0679 116.436 34.0532 116.254 34.0239C116.072 34.0005 115.885 33.9419 115.691 33.8481C115.498 33.7544 115.308 33.6138 115.12 33.4263C114.933 33.2388 114.766 32.9839 114.619 32.6616C114.473 32.3335 114.353 31.9292 114.259 31.4487C114.171 30.9683 114.127 30.3853 114.127 29.6997V25.8589C114.127 25.1792 114.174 24.605 114.268 24.1362C114.367 23.6675 114.496 23.2808 114.654 22.9761C114.812 22.6655 114.988 22.4253 115.182 22.2554C115.381 22.0796 115.577 21.9507 115.771 21.8687C115.97 21.7866 116.157 21.7368 116.333 21.7192C116.515 21.7017 116.664 21.6929 116.781 21.6929C116.998 21.6929 117.203 21.7222 117.396 21.7808C117.59 21.8394 117.766 21.9185 117.924 22.0181C118.082 22.1118 118.223 22.2202 118.346 22.3433C118.469 22.4604 118.571 22.5806 118.653 22.7036L118.662 22.6948L118.592 21.1655V17.9399H120.807V33.9272H119.075L118.882 32.8022C118.782 32.9604 118.668 33.1157 118.539 33.2681C118.41 33.4204 118.258 33.5581 118.082 33.6812C117.906 33.7983 117.707 33.8921 117.484 33.9624C117.262 34.0327 117.01 34.0679 116.729 34.0679ZM117.484 32.3452C117.631 32.3452 117.76 32.3218 117.871 32.2749C117.988 32.2222 118.091 32.1577 118.179 32.0815C118.272 31.9995 118.352 31.9058 118.416 31.8003C118.486 31.6948 118.545 31.5864 118.592 31.4751V24.1978C118.48 23.9517 118.331 23.7437 118.144 23.5737C117.962 23.3979 117.739 23.3101 117.476 23.3101C117.312 23.3101 117.162 23.3394 117.027 23.3979C116.893 23.4565 116.775 23.5679 116.676 23.7319C116.576 23.8901 116.497 24.1128 116.438 24.3999C116.386 24.6812 116.359 25.0474 116.359 25.4985V30.1392C116.359 30.5903 116.386 30.9595 116.438 31.2466C116.497 31.5337 116.576 31.7593 116.676 31.9233C116.775 32.0815 116.893 32.1929 117.027 32.2573C117.168 32.3159 117.32 32.3452 117.484 32.3452ZM126.01 34.0591C125.488 34.0591 125.025 33.9624 124.621 33.769C124.223 33.5757 123.886 33.2739 123.61 32.8638C123.335 32.4536 123.127 31.9292 122.986 31.2905C122.846 30.646 122.775 29.8726 122.775 28.9702V26.6851C122.775 25.9175 122.831 25.2612 122.942 24.7163C123.06 24.1655 123.209 23.7056 123.391 23.3364C123.578 22.9614 123.792 22.6655 124.032 22.4487C124.278 22.2319 124.53 22.0679 124.788 21.9565C125.046 21.8394 125.301 21.7661 125.553 21.7368C125.811 21.7017 126.048 21.6841 126.265 21.6841C126.663 21.6841 127.047 21.7456 127.416 21.8687C127.785 21.9858 128.11 22.1909 128.392 22.4839C128.673 22.771 128.896 23.1577 129.06 23.644C129.229 24.1304 129.314 24.7368 129.314 25.4634C129.314 25.7095 129.306 25.9585 129.288 26.2104C129.276 26.4624 129.259 26.7114 129.235 26.9575C129.212 27.1978 129.18 27.4321 129.139 27.6606C129.104 27.8892 129.065 28.1001 129.024 28.2935H125.008V29.5239C125.008 30.0513 125.028 30.4966 125.069 30.8599C125.11 31.2173 125.178 31.5073 125.271 31.73C125.371 31.9468 125.503 32.105 125.667 32.2046C125.837 32.2983 126.048 32.3452 126.3 32.3452C126.435 32.3452 126.566 32.3188 126.695 32.2661C126.824 32.2075 126.936 32.1138 127.029 31.9849C127.129 31.856 127.208 31.686 127.267 31.4751C127.325 31.2583 127.354 30.9917 127.354 30.6753V30.2974H129.209V30.7632C129.209 31.9116 128.934 32.7495 128.383 33.2769C127.838 33.7983 127.047 34.0591 126.01 34.0591ZM127.24 26.7993C127.246 26.7349 127.252 26.6499 127.258 26.5444C127.264 26.4331 127.267 26.3188 127.267 26.2017C127.272 26.0845 127.275 25.9702 127.275 25.8589C127.275 25.7417 127.275 25.6421 127.275 25.5601C127.275 24.7632 127.182 24.189 126.994 23.8374C126.807 23.4858 126.528 23.3101 126.159 23.3101C125.966 23.3101 125.796 23.3569 125.649 23.4507C125.503 23.5386 125.383 23.6909 125.289 23.9077C125.195 24.1187 125.125 24.3999 125.078 24.7515C125.031 25.103 125.008 25.5396 125.008 26.061V26.7993H127.24Z" fill="#CC3E16"/>
<path d="M179 26.3718C178.985 25.9983 178.824 25.5666 178.557 25.2944L169.83 16.4138C169.238 15.9048 168.104 15.6947 167.443 16.2832C166.792 16.8627 166.812 17.9868 167.46 18.5686L173.597 24.8047H147.636C146.733 24.8047 146 25.5063 146 26.3718C146 27.2373 146.733 27.9389 147.636 27.9389H173.597L167.46 34.175C166.902 34.7107 166.799 35.8742 167.443 36.4604C168.088 37.0466 169.263 36.8593 169.83 36.3298L178.557 27.4492C178.856 27.1453 179.001 26.7887 179 26.3718Z" fill="#CC3E16"/>
</svg>
