<svg width="70" height="70" viewBox="0 0 70 70" fill="none" xmlns="http://www.w3.org/2000/svg">
<circle cx="35" cy="35" r="35" fill="#6EAD94"/>
<path d="M28.2405 51.4572C30.3191 50.4179 30.9457 49.3384 30.6674 47.249C31.8716 47.3882 32.9531 47.128 33.8106 46.2299C34.6725 45.3274 34.9178 44.2491 34.6838 43.0996C35.283 43.0188 35.8843 43.0224 36.4297 42.8494C38.8505 42.0813 39.5809 39.0672 37.7847 37.2702C36.6533 36.138 35.4749 35.0525 34.3149 33.9493C31.2389 31.0238 28.1617 28.0998 25.0849 25.1751C24.6807 24.791 24.2652 24.4181 23.8751 24.0204C22.944 23.0712 22.9279 21.6012 23.8244 20.6604C24.7173 19.7237 26.1998 19.6533 27.1816 20.5567C28.6508 21.9084 30.0882 23.2948 31.5382 24.6675C33.6541 26.6708 35.7681 28.6774 37.8861 30.6783C38.4652 31.2253 39.1071 31.6809 39.8508 31.9874C40.8639 32.4049 41.8031 32.2854 42.6062 31.543C43.0105 31.1693 43.372 30.7289 43.6693 30.2652C44.3675 29.1765 44.9852 28.0355 45.6919 26.9523C46.6459 25.4896 48.5805 25.2141 49.9447 26.3004C51.0685 27.1953 51.3331 28.7892 50.5525 30.0991C49.448 31.9524 48.3275 33.7961 47.213 35.6437C46.6652 36.5523 46.1227 37.4641 45.5616 38.3646C45.41 38.6075 45.4108 38.8002 45.5383 39.0568C46.0579 40.1025 46.547 41.1631 47.057 42.2136C48.7406 45.6801 47.4576 49.5279 44.0131 51.2288C41.6772 52.3818 39.3275 53.5084 36.9646 54.6052C33.8942 56.0301 30.2761 54.9012 28.5382 52.0138C28.43 51.8336 28.3391 51.6426 28.2405 51.4572Z" fill="white"/>
<path d="M24.5934 34.875C24.9666 34.8818 25.518 35.0757 25.9697 35.5C28.329 37.7162 30.6923 39.9288 33.0364 42.1611C33.994 43.0729 34.0089 44.572 33.1204 45.5176C32.2018 46.495 30.7213 46.5666 29.7283 45.6403C27.6638 43.7145 25.6178 41.7686 23.5637 39.8311C23.2762 39.5596 22.9785 39.2986 22.6974 39.0206C21.971 38.3019 21.7599 37.2629 22.1416 36.335C22.5036 35.4554 23.3787 34.8766 24.5934 34.875Z" fill="white"/>
<path d="M37.7715 39.9594C37.7478 40.6302 37.3053 41.3984 36.3863 41.8167C35.4966 42.2213 34.5989 42.1416 33.8593 41.4873C32.7557 40.5108 31.7051 39.4735 30.6337 38.4608C29.3527 37.2507 28.0704 36.0417 26.7943 34.8267C26.1322 34.1965 25.8563 33.4235 26.0627 32.525C26.491 30.66 28.6649 30.0137 30.0887 31.3261C30.9743 32.1425 31.8395 32.9815 32.7142 33.81C34.0463 35.0708 35.372 36.3385 36.7137 37.5893C37.3126 38.1475 37.7831 38.756 37.7715 39.9594Z" fill="white"/>
<path d="M21.4884 40.0963C22.1352 40.0891 22.7027 40.4016 23.2026 40.8765C24.7913 42.3871 26.3824 43.8953 27.9731 45.4034C28.2989 45.7127 28.6335 46.0127 28.9541 46.3276C29.974 47.3307 30.0219 48.8304 29.0707 49.8016C28.1324 50.76 26.6503 50.7657 25.6315 49.8049C23.7625 48.0417 21.9051 46.2657 20.0289 44.5102C19.3033 43.8313 18.8432 43.0704 19.0495 42.036C19.2824 40.8661 20.2368 40.0895 21.4884 40.0963Z" fill="white"/>
<path d="M43.399 23.4158C42.9111 23.3711 42.6086 23.2034 42.4377 22.8463C42.2551 22.465 42.3247 22.1079 42.5925 21.7946C42.6959 21.674 42.8331 21.579 42.9626 21.4837C43.8169 20.8563 44.6691 20.2269 45.5302 19.6092C46.0519 19.2348 46.6323 19.3023 46.9609 19.754C47.2999 20.2205 47.201 20.7751 46.6821 21.1624C45.7897 21.8284 44.8907 22.4859 43.9838 23.1318C43.7867 23.2722 43.543 23.3478 43.399 23.4158Z" fill="white"/>
<path d="M35.3799 20.4365C35.3795 20.928 35.137 21.2956 34.7919 21.4352C34.4292 21.582 33.9409 21.5104 33.7044 21.1967C32.9483 20.1936 32.2018 19.1821 31.4891 18.148C31.187 17.7096 31.3487 17.1474 31.7678 16.8646C32.1821 16.5851 32.7528 16.6555 33.0705 17.0774C33.7937 18.0378 34.4971 19.0136 35.1953 19.9925C35.3043 20.1465 35.3446 20.3488 35.3799 20.4365Z" fill="white"/>
<path d="M40.8299 21.1587C40.1115 21.1559 39.6933 20.5067 39.9647 19.7843C40.116 19.3821 40.309 18.9956 40.4828 18.6018C40.7796 17.9297 41.0639 17.252 41.376 16.5872C41.6169 16.074 42.0907 15.8676 42.5709 16.0277C43.1006 16.2043 43.3906 16.7344 43.165 17.2838C42.6952 18.4273 42.18 19.5527 41.6672 20.6781C41.5116 21.0207 41.1995 21.1559 40.8299 21.1587Z" fill="white"/>
<path d="M38.5288 19.3125C38.5437 20.0072 38.2139 20.4279 37.6685 20.4798C37.1348 20.5305 36.6799 20.154 36.6103 19.5591C36.4796 18.4357 36.3605 17.3106 36.2628 16.184C36.2423 15.9467 36.2801 15.6703 36.3891 15.464C36.5809 15.1 36.9373 14.9447 37.3479 15.0175C37.7755 15.0935 38.0735 15.351 38.133 15.7942C38.2428 16.6124 38.3257 17.4341 38.4178 18.2547C38.4596 18.6296 38.4966 19.0048 38.5288 19.3125Z" fill="white"/>
</svg>
