<svg width="163" height="69" viewBox="0 0 163 69" fill="none" xmlns="http://www.w3.org/2000/svg">
<rect x="2" y="2" width="159" height="65" stroke="#CC3E16" stroke-width="4"/>
<path d="M34.9141 22.9844H38.4062L42.1094 43H39.0391L38.4883 39.4141H34.832L34.3047 43H31.2227L34.9141 22.9844ZM38.1367 37.1289L36.7305 27.1562H36.6016L35.1836 37.1289H38.1367ZM44.0547 22.9844H47.0898C47.4727 22.9844 47.8906 23.0039 48.3438 23.043C48.8047 23.0742 49.2617 23.1562 49.7148 23.2891C50.1758 23.4141 50.6172 23.6094 51.0391 23.875C51.4688 24.1406 51.8477 24.5039 52.1758 24.9648C52.5039 25.418 52.7656 25.9883 52.9609 26.6758C53.1641 27.3633 53.2656 28.1992 53.2656 29.1836V29.8867C53.2656 30.957 53.1719 31.875 52.9844 32.6406C52.8047 33.3984 52.5625 34.0391 52.2578 34.5625C51.9531 35.0781 51.5977 35.4922 51.1914 35.8047C50.793 36.1172 50.375 36.3555 49.9375 36.5195C49.5078 36.6758 49.0703 36.7812 48.625 36.8359C48.1875 36.8828 47.7734 36.9062 47.3828 36.9062H47.0898V43H44.0547V22.9844ZM47.2422 34.6797C47.7891 34.6797 48.25 34.6016 48.625 34.4453C49 34.2812 49.2969 34.0312 49.5156 33.6953C49.7422 33.3516 49.9023 32.9141 49.9961 32.3828C50.0977 31.8438 50.1484 31.1992 50.1484 30.4492V28.6445C50.1484 28.0508 50.1055 27.5391 50.0195 27.1094C49.9336 26.6719 49.7773 26.3125 49.5508 26.0312C49.332 25.75 49.0352 25.543 48.6602 25.4102C48.2852 25.2695 47.8125 25.1992 47.2422 25.1992H47.0898V34.6797H47.2422ZM55.5625 22.9844H58.5977C58.9805 22.9844 59.3984 23.0039 59.8516 23.043C60.3125 23.0742 60.7695 23.1562 61.2227 23.2891C61.6836 23.4141 62.125 23.6094 62.5469 23.875C62.9766 24.1406 63.3555 24.5039 63.6836 24.9648C64.0117 25.418 64.2734 25.9883 64.4688 26.6758C64.6719 27.3633 64.7734 28.1992 64.7734 29.1836V29.8867C64.7734 30.957 64.6797 31.875 64.4922 32.6406C64.3125 33.3984 64.0703 34.0391 63.7656 34.5625C63.4609 35.0781 63.1055 35.4922 62.6992 35.8047C62.3008 36.1172 61.8828 36.3555 61.4453 36.5195C61.0156 36.6758 60.5781 36.7812 60.1328 36.8359C59.6953 36.8828 59.2812 36.9062 58.8906 36.9062H58.5977V43H55.5625V22.9844ZM58.75 34.6797C59.2969 34.6797 59.7578 34.6016 60.1328 34.4453C60.5078 34.2812 60.8047 34.0312 61.0234 33.6953C61.25 33.3516 61.4102 32.9141 61.5039 32.3828C61.6055 31.8438 61.6562 31.1992 61.6562 30.4492V28.6445C61.6562 28.0508 61.6133 27.5391 61.5273 27.1094C61.4414 26.6719 61.2852 26.3125 61.0586 26.0312C60.8398 25.75 60.543 25.543 60.168 25.4102C59.793 25.2695 59.3203 25.1992 58.75 25.1992H58.5977V34.6797H58.75ZM67.0703 22.9844H70.1055V40.6094H74.2422V43H67.0703V22.9844ZM78.543 36.332L74.5117 22.9844H77.5703L80.0195 32.5586H80.1602L82.5859 22.9844H85.6328L81.5781 36.332V43H78.543V36.332Z" fill="#CC3E16"/>
<path d="M139 34.9065C138.985 34.5165 138.824 34.0658 138.557 33.7815L129.83 24.508C129.238 23.9766 128.104 23.7572 127.443 24.3717C126.792 24.9769 126.812 26.1506 127.46 26.7582L133.597 33.2701H107.636C106.733 33.2701 106 34.0028 106 34.9065C106 35.8103 106.733 36.543 107.636 36.543H133.597L127.46 43.0549C126.902 43.6143 126.799 44.8293 127.443 45.4415C128.088 46.0535 129.263 45.858 129.83 45.3051L138.557 36.0316C138.856 35.7143 139.001 35.3419 139 34.9065Z" fill="#CC3E16"/>
</svg>
