<svg width="70" height="70" viewBox="0 0 70 70" fill="none" xmlns="http://www.w3.org/2000/svg">
<circle cx="35" cy="35" r="35" fill="#155777"/>
<path d="M51.9517 35.4411C46.6002 30.067 41.2405 24.701 35.8652 19.3506C34.2774 17.7699 32.3318 16.9938 30.0789 17C27.2229 17.0082 24.3673 17.0016 21.5113 17.0024C19.1577 17.0028 18.0097 18.1387 18.0082 20.4687C18.0074 21.9217 18.0082 23.3748 18.0082 24.8278C18.0082 26.3303 17.9868 27.8327 18.0132 29.3348C18.0498 31.387 18.7474 33.2014 20.1957 34.6619C25.5876 40.099 30.9995 45.5171 36.4116 50.9345C37.7856 52.3097 39.5095 52.368 40.8668 51.0243C44.5943 47.3347 48.3055 43.628 51.989 39.8944C53.3603 38.5052 53.3257 36.821 51.9517 35.4411ZM25.4006 27.3499C23.7793 27.3566 22.4365 26.0342 22.4213 24.4162C22.4057 22.7648 23.7579 21.4074 25.4088 21.4175C27.0262 21.4273 28.353 22.7663 28.3519 24.3874C28.3503 26.0089 27.0211 27.3433 25.4006 27.3499Z" fill="white"/>
</svg>
