<svg width="80" height="61" viewBox="0 0 80 61" fill="none" xmlns="http://www.w3.org/2000/svg">
<rect x="2" y="2" width="76" height="57" stroke="#6EAD94" stroke-width="4"/>
<path d="M20 30.906C20.0181 30.4445 20.208 29.9111 20.5245 29.5747L30.8517 18.6012C31.5515 17.9723 32.8934 17.7127 33.6755 18.4398C34.4459 19.1559 34.423 20.5449 33.6555 21.2639L26.3942 28.9696H57.1137C58.1831 28.9696 59.05 29.8365 59.05 30.906C59.05 31.9755 58.1831 32.8425 57.1137 32.8425H26.3942L33.6555 40.5482C34.3163 41.2101 34.4384 42.6479 33.6755 43.3723C32.9129 44.0966 31.5227 43.8652 30.8517 43.2109L20.5245 32.2374C20.1711 31.8618 19.9989 31.4212 20 30.906Z" fill="#6EAD94"/>
</svg>
